<svg xmlns="http://www.w3.org/2000/svg" fill="none" viewBox="0 0 598.6932084309133 695.968" style="max-height: 500px" width="598.6932084309133" height="695.968">
<path fill="url(#paint0_linear_372_574)" d="M0 9.99999C0 4.47714 4.47715 0 10 0H586C591.523 0 596 4.47715 596 10V682C596 687.523 591.523 692 586 692H10C4.47716 692 0 687.523 0 682V9.99999Z"/>
<path fill="url(#paint1_linear_372_574)" d="M0 9.99999C0 4.47714 4.47715 0 10 0H586C591.523 0 596 4.47715 596 10V682C596 687.523 591.523 692 586 692H10C4.47716 692 0 687.523 0 682V9.99999Z"/>
<circle fill-opacity="0.12" fill="white" r="112" cy="616" cx="510"/>
<circle fill-opacity="0.13" fill="#FFF9F9" r="80" cy="530" cx="427"/>
<path fill="white" d="M40.98 61.2C40.98 59.2773 41.4093 57.56 42.268 56.048C43.1453 54.5173 44.3307 53.332 45.824 52.492C47.336 51.6333 49.0253 51.204 50.892 51.204C53.076 51.204 54.9893 51.764 56.632 52.884C58.2747 54.004 59.4227 55.5533 60.076 57.532H55.568C55.12 56.5987 54.4853 55.8987 53.664 55.432C52.8613 54.9653 51.928 54.732 50.864 54.732C49.7253 54.732 48.708 55.0027 47.812 55.544C46.9347 56.0667 46.244 56.8133 45.74 57.784C45.2547 58.7547 45.012 59.8933 45.012 61.2C45.012 62.488 45.2547 63.6267 45.74 64.616C46.244 65.5867 46.9347 66.3427 47.812 66.884C48.708 67.4067 49.7253 67.668 50.864 67.668C51.928 67.668 52.8613 67.4347 53.664 66.968C54.4853 66.4827 55.12 65.7733 55.568 64.84H60.076C59.4227 66.8373 58.2747 68.396 56.632 69.516C55.008 70.6173 53.0947 71.168 50.892 71.168C49.0253 71.168 47.336 70.748 45.824 69.908C44.3307 69.0493 43.1453 67.864 42.268 66.352C41.4093 64.84 40.98 63.1227 40.98 61.2ZM70.3122 71.252C68.8189 71.252 67.4749 70.9253 66.2802 70.272C65.0855 69.6 64.1429 68.6573 63.4522 67.444C62.7802 66.2307 62.4442 64.8307 62.4442 63.244C62.4442 61.6573 62.7895 60.2573 63.4802 59.044C64.1895 57.8307 65.1509 56.8973 66.3642 56.244C67.5775 55.572 68.9309 55.236 70.4242 55.236C71.9175 55.236 73.2709 55.572 74.4842 56.244C75.6975 56.8973 76.6495 57.8307 77.3402 59.044C78.0495 60.2573 78.4042 61.6573 78.4042 63.244C78.4042 64.8307 78.0402 66.2307 77.3122 67.444C76.6029 68.6573 75.6322 69.6 74.4002 70.272C73.1869 70.9253 71.8242 71.252 70.3122 71.252ZM70.3122 67.836C71.0215 67.836 71.6842 67.668 72.3002 67.332C72.9349 66.9773 73.4389 66.4547 73.8122 65.764C74.1855 65.0733 74.3722 64.2333 74.3722 63.244C74.3722 61.7693 73.9802 60.64 73.1962 59.856C72.4309 59.0533 71.4882 58.652 70.3682 58.652C69.2482 58.652 68.3055 59.0533 67.5402 59.856C66.7935 60.64 66.4202 61.7693 66.4202 63.244C66.4202 64.7187 66.7842 65.8573 67.5122 66.66C68.2589 67.444 69.1922 67.836 70.3122 67.836ZM89.8757 55.264C91.7237 55.264 93.217 55.852 94.3557 57.028C95.4943 58.1853 96.0637 59.8093 96.0637 61.9V71H92.1437V62.432C92.1437 61.2 91.8357 60.2573 91.2197 59.604C90.6037 58.932 89.7637 58.596 88.6997 58.596C87.617 58.596 86.7583 58.932 86.1237 59.604C85.5077 60.2573 85.1997 61.2 85.1997 62.432V71H81.2797V55.488H85.1997V57.42C85.7223 56.748 86.385 56.2253 87.1877 55.852C88.009 55.46 88.905 55.264 89.8757 55.264ZM104.355 58.708V66.212C104.355 66.7347 104.477 67.1173 104.719 67.36C104.981 67.584 105.41 67.696 106.007 67.696H107.827V71H105.363C102.059 71 100.407 69.3947 100.407 66.184V58.708H98.5594V55.488H100.407V51.652H104.355V55.488H107.827V58.708H104.355ZM109.639 63.188C109.639 61.62 109.947 60.2293 110.563 59.016C111.198 57.8027 112.047 56.8693 113.111 56.216C114.194 55.5627 115.398 55.236 116.723 55.236C117.88 55.236 118.888 55.4693 119.747 55.936C120.624 56.4027 121.324 56.9907 121.847 57.7V55.488H125.795V71H121.847V68.732C121.343 69.46 120.643 70.0667 119.747 70.552C118.87 71.0187 117.852 71.252 116.695 71.252C115.388 71.252 114.194 70.916 113.111 70.244C112.047 69.572 111.198 68.6293 110.563 67.416C109.947 66.184 109.639 64.7747 109.639 63.188ZM121.847 63.244C121.847 62.292 121.66 61.48 121.287 60.808C120.914 60.1173 120.41 59.5947 119.775 59.24C119.14 58.8667 118.459 58.68 117.731 58.68C117.003 58.68 116.331 58.8573 115.715 59.212C115.099 59.5667 114.595 60.0893 114.203 60.78C113.83 61.452 113.643 62.2547 113.643 63.188C113.643 64.1213 113.83 64.9427 114.203 65.652C114.595 66.3427 115.099 66.8747 115.715 67.248C116.35 67.6213 117.022 67.808 117.731 67.808C118.459 67.808 119.14 67.6307 119.775 67.276C120.41 66.9027 120.914 66.38 121.287 65.708C121.66 65.0173 121.847 64.196 121.847 63.244ZM128.615 63.244C128.615 61.6387 128.942 60.2387 129.595 59.044C130.249 57.8307 131.154 56.8973 132.311 56.244C133.469 55.572 134.794 55.236 136.287 55.236C138.21 55.236 139.797 55.7213 141.047 56.692C142.317 57.644 143.166 58.988 143.595 60.724H139.367C139.143 60.052 138.761 59.5293 138.219 59.156C137.697 58.764 137.043 58.568 136.259 58.568C135.139 58.568 134.253 58.9787 133.599 59.8C132.946 60.6027 132.619 61.7507 132.619 63.244C132.619 64.7187 132.946 65.8667 133.599 66.688C134.253 67.4907 135.139 67.892 136.259 67.892C137.846 67.892 138.882 67.1827 139.367 65.764H143.595C143.166 67.444 142.317 68.7787 141.047 69.768C139.778 70.7573 138.191 71.252 136.287 71.252C134.794 71.252 133.469 70.9253 132.311 70.272C131.154 69.6 130.249 68.6667 129.595 67.472C128.942 66.2587 128.615 64.8493 128.615 63.244ZM151.031 58.708V66.212C151.031 66.7347 151.152 67.1173 151.395 67.36C151.656 67.584 152.086 67.696 152.683 67.696H154.503V71H152.039C148.735 71 147.083 69.3947 147.083 66.184V58.708H145.235V55.488H147.083V51.652H151.031V55.488H154.503V58.708H151.031ZM167.915 51.456V71H163.995V51.456H167.915ZM180.383 55.264C182.231 55.264 183.725 55.852 184.863 57.028C186.002 58.1853 186.571 59.8093 186.571 61.9V71H182.651V62.432C182.651 61.2 182.343 60.2573 181.727 59.604C181.111 58.932 180.271 58.596 179.207 58.596C178.125 58.596 177.266 58.932 176.631 59.604C176.015 60.2573 175.707 61.2 175.707 62.432V71H171.787V55.488H175.707V57.42C176.23 56.748 176.893 56.2253 177.695 55.852C178.517 55.46 179.413 55.264 180.383 55.264ZM197.411 58.708H194.695V71H190.719V58.708H188.955V55.488H190.719V54.704C190.719 52.8 191.261 51.4 192.343 50.504C193.426 49.608 195.059 49.188 197.243 49.244V52.548C196.291 52.5293 195.629 52.688 195.255 53.024C194.882 53.36 194.695 53.9667 194.695 54.844V55.488H197.411V58.708ZM206.84 71.252C205.346 71.252 204.002 70.9253 202.808 70.272C201.613 69.6 200.67 68.6573 199.98 67.444C199.308 66.2307 198.972 64.8307 198.972 63.244C198.972 61.6573 199.317 60.2573 200.008 59.044C200.717 57.8307 201.678 56.8973 202.892 56.244C204.105 55.572 205.458 55.236 206.952 55.236C208.445 55.236 209.798 55.572 211.012 56.244C212.225 56.8973 213.177 57.8307 213.868 59.044C214.577 60.2573 214.932 61.6573 214.932 63.244C214.932 64.8307 214.568 66.2307 213.84 67.444C213.13 68.6573 212.16 69.6 210.928 70.272C209.714 70.9253 208.352 71.252 206.84 71.252ZM206.84 67.836C207.549 67.836 208.212 67.668 208.828 67.332C209.462 66.9773 209.966 66.4547 210.34 65.764C210.713 65.0733 210.9 64.2333 210.9 63.244C210.9 61.7693 210.508 60.64 209.724 59.856C208.958 59.0533 208.016 58.652 206.896 58.652C205.776 58.652 204.833 59.0533 204.068 59.856C203.321 60.64 202.948 61.7693 202.948 63.244C202.948 64.7187 203.312 65.8573 204.04 66.66C204.786 67.444 205.72 67.836 206.84 67.836ZM221.727 57.896C222.231 57.0747 222.884 56.4307 223.687 55.964C224.508 55.4973 225.442 55.264 226.487 55.264V59.38H225.451C224.219 59.38 223.286 59.6693 222.651 60.248C222.035 60.8267 221.727 61.8347 221.727 63.272V71H217.807V55.488H221.727V57.896ZM248.391 55.264C250.295 55.264 251.826 55.852 252.983 57.028C254.159 58.1853 254.747 59.8093 254.747 61.9V71H250.827V62.432C250.827 61.2187 250.519 60.2947 249.903 59.66C249.287 59.0067 248.447 58.68 247.383 58.68C246.319 58.68 245.47 59.0067 244.835 59.66C244.219 60.2947 243.911 61.2187 243.911 62.432V71H239.991V62.432C239.991 61.2187 239.683 60.2947 239.067 59.66C238.451 59.0067 237.611 58.68 236.547 58.68C235.465 58.68 234.606 59.0067 233.971 59.66C233.355 60.2947 233.047 61.2187 233.047 62.432V71H229.127V55.488H233.047V57.364C233.551 56.7107 234.195 56.1973 234.979 55.824C235.782 55.4507 236.659 55.264 237.611 55.264C238.825 55.264 239.907 55.5253 240.859 56.048C241.811 56.552 242.549 57.28 243.071 58.232C243.575 57.336 244.303 56.6173 245.255 56.076C246.226 55.5347 247.271 55.264 248.391 55.264ZM257.459 63.188C257.459 61.62 257.767 60.2293 258.383 59.016C259.018 57.8027 259.867 56.8693 260.931 56.216C262.014 55.5627 263.218 55.236 264.543 55.236C265.7 55.236 266.708 55.4693 267.567 55.936C268.444 56.4027 269.144 56.9907 269.667 57.7V55.488H273.615V71H269.667V68.732C269.163 69.46 268.463 70.0667 267.567 70.552C266.69 71.0187 265.672 71.252 264.515 71.252C263.208 71.252 262.014 70.916 260.931 70.244C259.867 69.572 259.018 68.6293 258.383 67.416C257.767 66.184 257.459 64.7747 257.459 63.188ZM269.667 63.244C269.667 62.292 269.48 61.48 269.107 60.808C268.734 60.1173 268.23 59.5947 267.595 59.24C266.96 58.8667 266.279 58.68 265.551 58.68C264.823 58.68 264.151 58.8573 263.535 59.212C262.919 59.5667 262.415 60.0893 262.023 60.78C261.65 61.452 261.463 62.2547 261.463 63.188C261.463 64.1213 261.65 64.9427 262.023 65.652C262.415 66.3427 262.919 66.8747 263.535 67.248C264.17 67.6213 264.842 67.808 265.551 67.808C266.279 67.808 266.96 67.6307 267.595 67.276C268.23 66.9027 268.734 66.38 269.107 65.708C269.48 65.0173 269.667 64.196 269.667 63.244ZM282.008 58.708V66.212C282.008 66.7347 282.129 67.1173 282.372 67.36C282.633 67.584 283.062 67.696 283.66 67.696H285.48V71H283.016C279.712 71 278.06 69.3947 278.06 66.184V58.708H276.212V55.488H278.06V51.652H282.008V55.488H285.48V58.708H282.008ZM290.287 53.64C289.597 53.64 289.018 53.4253 288.551 52.996C288.103 52.548 287.879 51.9973 287.879 51.344C287.879 50.6907 288.103 50.1493 288.551 49.72C289.018 49.272 289.597 49.048 290.287 49.048C290.978 49.048 291.547 49.272 291.995 49.72C292.462 50.1493 292.695 50.6907 292.695 51.344C292.695 51.9973 292.462 52.548 291.995 52.996C291.547 53.4253 290.978 53.64 290.287 53.64ZM292.219 55.488V71H288.299V55.488H292.219ZM302.98 71.252C301.487 71.252 300.143 70.9253 298.948 70.272C297.753 69.6 296.811 68.6573 296.12 67.444C295.448 66.2307 295.112 64.8307 295.112 63.244C295.112 61.6573 295.457 60.2573 296.148 59.044C296.857 57.8307 297.819 56.8973 299.032 56.244C300.245 55.572 301.599 55.236 303.092 55.236C304.585 55.236 305.939 55.572 307.152 56.244C308.365 56.8973 309.317 57.8307 310.008 59.044C310.717 60.2573 311.072 61.6573 311.072 63.244C311.072 64.8307 310.708 66.2307 309.98 67.444C309.271 68.6573 308.3 69.6 307.068 70.272C305.855 70.9253 304.492 71.252 302.98 71.252ZM302.98 67.836C303.689 67.836 304.352 67.668 304.968 67.332C305.603 66.9773 306.107 66.4547 306.48 65.764C306.853 65.0733 307.04 64.2333 307.04 63.244C307.04 61.7693 306.648 60.64 305.864 59.856C305.099 59.0533 304.156 58.652 303.036 58.652C301.916 58.652 300.973 59.0533 300.208 59.856C299.461 60.64 299.088 61.7693 299.088 63.244C299.088 64.7187 299.452 65.8573 300.18 66.66C300.927 67.444 301.86 67.836 302.98 67.836ZM322.544 55.264C324.392 55.264 325.885 55.852 327.024 57.028C328.162 58.1853 328.732 59.8093 328.732 61.9V71H324.812V62.432C324.812 61.2 324.504 60.2573 323.888 59.604C323.272 58.932 322.432 58.596 321.368 58.596C320.285 58.596 319.426 58.932 318.792 59.604C318.176 60.2573 317.868 61.2 317.868 62.432V71H313.948V55.488H317.868V57.42C318.39 56.748 319.053 56.2253 319.856 55.852C320.677 55.46 321.573 55.264 322.544 55.264Z"/>
<path fill="white" d="M52 375.5C49.8128 375.503 47.7158 376.373 46.1692 377.919C44.6226 379.466 43.7526 381.563 43.75 383.75C43.7474 385.537 44.3312 387.276 45.412 388.7C45.412 388.7 45.637 388.996 45.6738 389.039L52 396.5L58.3293 389.035C58.3623 388.996 58.588 388.7 58.588 388.7L58.5888 388.698C59.669 387.275 60.2526 385.537 60.25 383.75C60.2474 381.563 59.3774 379.466 57.8308 377.919C56.2842 376.373 54.1873 375.503 52 375.5ZM52 386.75C51.4067 386.75 50.8266 386.574 50.3333 386.244C49.84 385.915 49.4554 385.446 49.2284 384.898C49.0013 384.35 48.9419 383.747 49.0577 383.165C49.1734 382.583 49.4591 382.048 49.8787 381.629C50.2982 381.209 50.8328 380.923 51.4147 380.808C51.9967 380.692 52.5999 380.751 53.1481 380.978C53.6962 381.205 54.1648 381.59 54.4944 382.083C54.8241 382.577 55 383.157 55 383.75C54.999 384.545 54.6826 385.308 54.1202 385.87C53.5578 386.433 52.7954 386.749 52 386.75Z"/>
<path fill="white" d="M60 236.999H62C62 231.869 58.127 228 52.99 228V230C57.052 230 60 232.943 60 236.999Z"/>
<path fill="white" d="M53 234C55.103 234 56 234.897 56 237H58C58 233.775 56.225 232 53 232V234ZM56.422 239.443C56.2299 239.269 55.9774 239.175 55.7178 239.183C55.4583 239.191 55.212 239.3 55.031 239.486L52.638 241.947C52.062 241.837 50.904 241.476 49.712 240.287C48.52 239.094 48.159 237.933 48.052 237.361L50.511 234.967C50.6975 234.786 50.8062 234.54 50.8142 234.28C50.8222 234.021 50.7289 233.768 50.554 233.576L46.859 229.513C46.6841 229.321 46.4409 229.204 46.1812 229.187C45.9215 229.171 45.6656 229.257 45.468 229.426L43.298 231.287C43.1251 231.461 43.022 231.692 43.008 231.936C42.993 232.186 42.707 238.108 47.299 242.702C51.305 246.707 56.323 247 57.705 247C57.907 247 58.031 246.994 58.064 246.992C58.3086 246.979 58.5394 246.875 58.712 246.701L60.572 244.53C60.7415 244.333 60.8273 244.077 60.8113 243.817C60.7952 243.558 60.6785 243.314 60.486 243.139L56.422 239.443Z"/>
<path fill="white" d="M98.36 231.8V233.24H95.048L95.128 233.4V236.792H93.688V233.4L93.768 233.24H90.44V231.8H93.768L93.688 231.64V228.232H95.128V231.64L95.048 231.8H98.36ZM104.613 226.04V239H103.093V229.144L103.205 227.832H103.173L102.373 228.824L101.061 230.136L100.117 229.192L103.285 226.04H104.613ZM120.74 234.776C120.756 233.432 119.716 231.8 117.396 231.8C115.172 231.8 113.956 233.416 113.94 234.792C113.908 236.152 115.012 237.736 117.284 237.736C119.46 237.736 120.708 236.2 120.74 234.776ZM122.276 234.776C122.228 236.968 120.708 239.176 117.268 239.176C113.796 239.176 111.988 236.536 112.052 232.6C112.132 228.312 114.42 225.88 117.46 225.88C119.444 225.88 120.724 226.52 121.796 227.8L120.676 228.936C119.94 227.896 118.868 227.32 117.428 227.32C115.012 227.32 113.652 229.368 113.604 232.248H113.636C114.404 231.112 115.844 230.36 117.428 230.36C120.708 230.36 122.308 232.456 122.276 234.776ZM130.836 229.816L130.932 228.36H130.9L130.1 229.4L126.372 233.848L125.732 234.488V234.52H130.916L130.836 234.36V229.816ZM134.036 234.52V235.96H132.276L132.356 236.12V239H130.836V236.12L130.916 235.96H123.796V234.808L131.108 226.04H132.356V234.36L132.276 234.52H134.036ZM144.752 226.04V227.304L141.232 231.912C140.16 233.304 139.808 234.68 139.808 236.76V239H138.288V236.664C138.288 234.296 138.704 232.808 139.984 231.128L141.92 228.6L142.912 227.512V227.48H135.152V226.04H144.752ZM151.074 233.08V234.52H145.714V233.08H151.074ZM160.763 230.264C160.795 228.904 159.691 227.32 157.419 227.32C155.243 227.32 153.995 228.856 153.963 230.28C153.947 231.624 154.987 233.256 157.307 233.256C159.531 233.256 160.747 231.64 160.763 230.264ZM162.651 232.456C162.571 236.744 160.331 239.176 157.307 239.176C155.307 239.176 153.931 238.552 152.795 237.224L153.931 236.088C154.715 237.176 155.867 237.736 157.307 237.736C159.739 237.736 161.051 235.688 161.099 232.808H161.067C160.299 233.944 158.859 234.696 157.275 234.696C153.995 234.696 152.395 232.6 152.427 230.28C152.459 228.088 153.995 225.88 157.435 225.88C160.907 225.88 162.715 228.52 162.651 232.456ZM173.931 235.4C173.931 237.192 172.571 239.16 169.051 239.16C167.051 239.16 165.531 238.44 164.411 237.192L165.547 236.072C166.347 237.048 167.515 237.72 169.051 237.72C171.467 237.72 172.363 236.456 172.363 235.4C172.363 234.072 171.387 233.144 169.355 232.952C168.811 232.904 167.355 232.888 167.355 232.888V231.496C167.355 231.496 168.843 231.48 169.275 231.432C171.419 231.192 172.091 230.136 172.091 229.224C172.091 228.248 171.355 227.336 169.051 227.336C167.595 227.336 166.459 227.928 165.659 228.888L164.539 227.752C165.627 226.52 167.115 225.88 169.035 225.88C172.395 225.88 173.675 227.528 173.675 229.224C173.675 230.536 172.763 231.512 171.419 232.104V232.136C173.019 232.712 173.931 233.896 173.931 235.4ZM184.445 232.6C184.445 229.784 183.628 227.32 180.861 227.32C178.221 227.32 177.261 229.704 177.261 232.6C177.261 235.448 178.189 237.72 180.845 237.72C183.485 237.72 184.445 235.56 184.445 232.6ZM186.013 232.6C186.013 236.536 184.253 239.16 180.845 239.16C177.469 239.16 175.693 236.536 175.693 232.6C175.693 228.664 177.565 225.88 180.845 225.88C184.189 225.88 186.013 228.648 186.013 232.6ZM192.731 233.08V234.52H187.371V233.08H192.731ZM202.835 232.6C202.835 229.784 202.019 227.32 199.251 227.32C196.611 227.32 195.651 229.704 195.651 232.6C195.651 235.448 196.579 237.72 199.235 237.72C201.875 237.72 202.835 235.56 202.835 232.6ZM204.403 232.6C204.403 236.536 202.643 239.16 199.235 239.16C195.859 239.16 194.083 236.536 194.083 232.6C194.083 228.664 195.955 225.88 199.235 225.88C202.579 225.88 204.403 228.648 204.403 232.6ZM214.497 230.264C214.529 228.904 213.425 227.32 211.153 227.32C208.977 227.32 207.729 228.856 207.697 230.28C207.681 231.624 208.721 233.256 211.041 233.256C213.265 233.256 214.481 231.64 214.497 230.264ZM216.385 232.456C216.305 236.744 214.065 239.176 211.041 239.176C209.041 239.176 207.665 238.552 206.529 237.224L207.665 236.088C208.449 237.176 209.601 237.736 211.041 237.736C213.473 237.736 214.785 235.688 214.833 232.808H214.801C214.033 233.944 212.593 234.696 211.009 234.696C207.729 234.696 206.129 232.6 206.161 230.28C206.193 228.088 207.729 225.88 211.169 225.88C214.641 225.88 216.449 228.52 216.385 232.456ZM226.85 235.304C226.85 233.976 225.49 232.792 223.266 232.792C221.058 232.792 219.714 233.976 219.714 235.304C219.714 236.36 220.85 237.72 223.282 237.72C225.698 237.72 226.85 236.36 226.85 235.304ZM226.386 229.416C226.386 228.44 225.602 227.336 223.298 227.336C220.994 227.336 220.178 228.44 220.178 229.416C220.178 230.328 221.138 231.544 223.266 231.544C225.41 231.544 226.386 230.328 226.386 229.416ZM228.418 235.336C228.418 237.128 226.802 239.16 223.282 239.16C219.762 239.16 218.146 237.128 218.146 235.336C218.146 233.832 219.058 232.712 220.642 232.136V232.104C219.378 231.512 218.61 230.632 218.61 229.32C218.61 227.576 219.89 225.88 223.25 225.88C226.61 225.88 227.97 227.576 227.97 229.32C227.97 230.632 227.17 231.48 225.922 232.104V232.136C227.49 232.744 228.418 233.832 228.418 235.336ZM238.881 235.304C238.881 233.976 237.521 232.792 235.297 232.792C233.089 232.792 231.745 233.976 231.745 235.304C231.745 236.36 232.881 237.72 235.313 237.72C237.729 237.72 238.881 236.36 238.881 235.304ZM238.417 229.416C238.417 228.44 237.633 227.336 235.329 227.336C233.025 227.336 232.209 228.44 232.209 229.416C232.209 230.328 233.169 231.544 235.297 231.544C237.441 231.544 238.417 230.328 238.417 229.416ZM240.449 235.336C240.449 237.128 238.833 239.16 235.313 239.16C231.793 239.16 230.177 237.128 230.177 235.336C230.177 233.832 231.089 232.712 232.673 232.136V232.104C231.409 231.512 230.641 230.632 230.641 229.32C230.641 227.576 231.921 225.88 235.281 225.88C238.641 225.88 240.001 227.576 240.001 229.32C240.001 230.632 239.201 231.48 237.953 232.104V232.136C239.521 232.744 240.449 233.832 240.449 235.336Z"/>
<path fill="white" d="M62 304H42V320H62V304ZM60 308L52 313L44 308V306L52 311L60 306V308Z"/>
<path fill="white" d="M91.912 302.92V313H90.44V302.92H91.912ZM92.136 300.52C92.136 301.144 91.8 301.576 91.176 301.576C90.536 301.576 90.216 301.144 90.216 300.52C90.216 299.896 90.552 299.464 91.176 299.464C91.816 299.464 92.136 299.896 92.136 300.52ZM103.647 306.568V313H102.175V306.888C102.175 305.288 101.679 304.168 99.3594 304.168C97.6634 304.168 96.2714 305.112 96.2714 307.016V313H94.7994V302.92H96.2714V304.184H96.3034C96.9914 303.32 98.2234 302.76 99.5194 302.76C102.175 302.76 103.647 304.12 103.647 306.568ZM111.272 302.92V304.264H108.072L108.152 304.424V313H106.68V304.424L106.76 304.264H105.48V302.92H106.76L106.68 302.76V302.632C106.68 300.712 107.864 299.48 109.896 299.48C110.344 299.48 110.92 299.592 111.272 299.736V301.112C110.936 300.968 110.28 300.856 109.928 300.856C108.728 300.856 108.152 301.544 108.152 302.664V302.76L108.072 302.92H111.272ZM120.287 307.96C120.287 305.832 119.311 304.168 116.991 304.168C114.671 304.168 113.711 305.816 113.711 307.96C113.711 310.088 114.687 311.752 117.007 311.752C119.327 311.752 120.287 310.088 120.287 307.96ZM121.759 307.96C121.759 310.952 120.143 313.16 116.991 313.16C113.823 313.16 112.239 310.984 112.239 307.96C112.239 304.952 113.823 302.76 116.991 302.76C120.175 302.76 121.759 304.92 121.759 307.96ZM131.985 305.832C131.985 304.872 131.729 303.912 130.577 303.912C129.121 303.912 128.241 305.8 128.241 307.064C128.241 308.216 128.561 309.208 129.729 309.208C131.265 309.208 131.985 307.288 131.985 305.832ZM137.361 305.896C137.361 307.944 135.905 310.408 133.649 310.408C132.849 310.408 132.209 310.072 131.857 309.4H131.825C131.169 310.056 130.305 310.424 129.457 310.424C127.665 310.424 126.817 308.888 126.817 307.272C126.817 305.144 128.465 302.76 130.753 302.76C131.393 302.76 132.065 303.112 132.417 303.592H132.449L132.641 302.936H134.033L132.977 307.048C132.865 307.464 132.785 307.896 132.785 308.312C132.785 308.84 133.265 309.24 133.777 309.24C135.425 309.24 136.129 307.304 136.129 305.912C136.129 303 133.729 300.52 130.785 300.52C127.601 300.52 124.977 303.176 124.977 306.36C124.977 309.688 127.473 312.376 130.833 312.376C131.921 312.376 133.009 311.992 133.921 311.384L134.721 312.168C133.665 312.936 132.241 313.416 130.913 313.416C126.849 313.416 123.761 310.44 123.761 306.296C123.761 302.52 127.041 299.48 130.753 299.48C134.321 299.48 137.361 302.28 137.361 305.896ZM147.764 310.232C147.764 311.704 146.644 313.176 143.732 313.176C142.148 313.176 140.484 312.68 139.364 311.448L140.452 310.36C141.572 311.384 142.5 311.768 143.684 311.768C145.476 311.768 146.276 311.096 146.276 310.296C146.276 309.64 145.892 309.208 144.516 308.84C144.292 308.776 142.932 308.376 142.724 308.312C140.948 307.816 139.652 307.128 139.652 305.576C139.652 304.104 140.916 302.76 143.62 302.76C145.204 302.76 146.564 303.32 147.54 304.392L146.452 305.48C145.764 304.648 144.852 304.168 143.62 304.168C141.876 304.168 141.14 304.872 141.14 305.528C141.14 306.136 141.716 306.536 143.364 306.984C143.572 307.048 144.756 307.416 144.98 307.48C146.98 308.024 147.764 308.936 147.764 310.232ZM157.921 310.232C157.921 311.704 156.801 313.176 153.889 313.176C152.305 313.176 150.641 312.68 149.521 311.448L150.609 310.36C151.729 311.384 152.657 311.768 153.841 311.768C155.633 311.768 156.433 311.096 156.433 310.296C156.433 309.64 156.049 309.208 154.673 308.84C154.449 308.776 153.089 308.376 152.881 308.312C151.105 307.816 149.809 307.128 149.809 305.576C149.809 304.104 151.073 302.76 153.777 302.76C155.361 302.76 156.721 303.32 157.697 304.392L156.609 305.48C155.921 304.648 155.009 304.168 153.777 304.168C152.033 304.168 151.297 304.872 151.297 305.528C151.297 306.136 151.873 306.536 153.521 306.984C153.729 307.048 154.913 307.416 155.137 307.48C157.137 308.024 157.921 308.936 157.921 310.232ZM165.117 311.016L166.157 312.04C165.245 312.792 164.301 313.16 163.245 313.16C161.565 313.16 160.477 312.04 160.477 310.056V304.424L160.557 304.264H159.277V302.92H160.557L160.477 302.76V301.16L161.949 300.36V302.76L161.869 302.92H165.069V304.264H161.869L161.949 304.424V309.992C161.949 311.176 162.477 311.768 163.325 311.768C164.029 311.768 164.557 311.544 165.117 311.016ZM172.793 302.808V304.376H172.313C170.857 304.376 169.225 305.352 169.225 308.024V313H167.753V302.92H169.225V304.664H169.257C169.833 303.432 171.177 302.808 172.473 302.808H172.793ZM181.397 308.28L181.557 308.136C181.365 308.12 180.853 308.088 180.533 308.088C178.773 308.088 175.461 308.056 175.461 310.072C175.461 311.416 177.013 311.784 178.117 311.784C179.141 311.784 181.397 311.496 181.397 310.056V308.28ZM182.869 306.44V313H181.397V312.104H181.365C180.485 312.888 179.269 313.176 178.101 313.176C176.069 313.176 173.989 312.392 173.989 310.072C173.989 306.904 177.989 306.792 180.437 306.792C180.805 306.792 181.365 306.824 181.557 306.856L181.397 306.68V306.456C181.397 304.728 180.133 304.168 178.629 304.168C177.541 304.168 176.277 304.408 175.461 305.176L174.437 304.168C175.669 303.128 177.029 302.776 178.629 302.776C180.773 302.776 182.869 303.624 182.869 306.44ZM192.602 310.664L193.642 311.688C192.698 312.68 191.434 313.16 189.898 313.16C186.65 313.16 185.114 310.968 185.114 308.04C185.114 305.048 186.858 302.76 189.93 302.76C191.562 302.76 192.746 303.256 193.514 304.072L192.474 305.112C191.93 304.52 191.018 304.152 189.93 304.168C187.674 304.184 186.586 305.944 186.586 308.04C186.586 310.056 187.53 311.752 189.914 311.752C191.018 311.752 191.898 311.416 192.602 310.664ZM197.037 299.56V313H195.565V299.56H197.037ZM199.117 307.864L204.285 313H202.237L197.197 307.816L201.981 302.92H204.061L199.117 307.832V307.864ZM207.657 311.832C207.657 312.616 207.225 313.16 206.441 313.16C205.657 313.16 205.241 312.616 205.241 311.832C205.241 311.064 205.657 310.52 206.441 310.52C207.241 310.52 207.657 311.048 207.657 311.832ZM211.693 302.92V313H210.221V302.92H211.693ZM211.917 300.52C211.917 301.144 211.581 301.576 210.957 301.576C210.317 301.576 209.997 301.144 209.997 300.52C209.997 299.896 210.333 299.464 210.957 299.464C211.597 299.464 211.917 299.896 211.917 300.52ZM222.069 307.96C222.069 305.832 221.093 304.168 218.773 304.168C216.453 304.168 215.493 305.816 215.493 307.96C215.493 310.088 216.469 311.752 218.789 311.752C221.109 311.752 222.069 310.088 222.069 307.96ZM223.541 307.96C223.541 310.952 221.925 313.16 218.773 313.16C215.605 313.16 214.021 310.984 214.021 307.96C214.021 304.952 215.605 302.76 218.773 302.76C221.957 302.76 223.541 304.92 223.541 307.96Z"/>
<path fill="white" d="M89 314.6H213.141V315.4H89V314.6Z"/>
<a href="mailto:info@sstrack.io">
<rect height="16" width="124.133" fill-opacity="0" fill="black"/>
</a>
<path fill="white" d="M96.68 380.816L96.776 379.36H96.744L95.944 380.4L92.216 384.848L91.576 385.488V385.52H96.76L96.68 385.36V380.816ZM99.88 385.52V386.96H98.12L98.2 387.12V390H96.68V387.12L96.76 386.96H89.64V385.808L96.952 377.04H98.2V385.36L98.12 385.52H99.88ZM110.916 386.4C110.916 388.192 109.556 390.16 106.036 390.16C104.036 390.16 102.516 389.44 101.396 388.192L102.532 387.072C103.332 388.048 104.5 388.72 106.036 388.72C108.452 388.72 109.348 387.456 109.348 386.4C109.348 385.072 108.372 384.144 106.34 383.952C105.796 383.904 104.34 383.888 104.34 383.888V382.496C104.34 382.496 105.828 382.48 106.26 382.432C108.404 382.192 109.076 381.136 109.076 380.224C109.076 379.248 108.34 378.336 106.036 378.336C104.58 378.336 103.444 378.928 102.644 379.888L101.524 378.752C102.612 377.52 104.1 376.88 106.02 376.88C109.38 376.88 110.66 378.528 110.66 380.224C110.66 381.536 109.748 382.512 108.404 383.104V383.136C110.004 383.712 110.916 384.896 110.916 386.4ZM121.877 377.04V378.304L118.357 382.912C117.285 384.304 116.933 385.68 116.933 387.76V390H115.413V387.664C115.413 385.296 115.829 383.808 117.109 382.128L119.045 379.6L120.037 378.512V378.48H112.277V377.04H121.877ZM131.991 383.6C131.991 380.784 131.175 378.32 128.407 378.32C125.767 378.32 124.807 380.704 124.807 383.6C124.807 386.448 125.735 388.72 128.391 388.72C131.031 388.72 131.991 386.56 131.991 383.6ZM133.559 383.6C133.559 387.536 131.799 390.16 128.391 390.16C125.015 390.16 123.239 387.536 123.239 383.6C123.239 379.664 125.111 376.88 128.391 376.88C131.735 376.88 133.559 379.648 133.559 383.6ZM150.927 386.48C150.927 388.288 149.551 390.16 145.759 390.16C143.679 390.16 141.503 389.488 140.191 388.048L141.391 386.928C142.767 388.192 144.047 388.72 145.695 388.72C148.095 388.72 149.359 387.808 149.359 386.576C149.359 385.696 148.607 384.88 146.847 384.416C146.559 384.336 144.751 383.856 144.463 383.776C142.095 383.12 140.527 382.272 140.527 380.384C140.527 378.592 142.079 376.88 145.599 376.88C147.679 376.88 149.439 377.616 150.559 378.864L149.407 379.968C148.591 378.992 147.311 378.32 145.615 378.32C143.183 378.32 142.095 379.264 142.095 380.32C142.095 381.312 143.087 381.824 145.231 382.416C145.519 382.496 147.023 382.912 147.327 382.992C149.887 383.664 150.927 384.976 150.927 386.48ZM158.054 388.016L159.094 389.04C158.182 389.792 157.238 390.16 156.182 390.16C154.502 390.16 153.414 389.04 153.414 387.056V381.424L153.494 381.264H152.214V379.92H153.494L153.414 379.76V378.16L154.886 377.36V379.76L154.806 379.92H158.006V381.264H154.806L154.886 381.424V386.992C154.886 388.176 155.414 388.768 156.262 388.768C156.966 388.768 157.494 388.544 158.054 388.016ZM161.49 384.288H168.306L168.13 384.128C167.89 382.4 166.898 381.168 164.93 381.168C162.914 381.168 161.922 382.448 161.666 384.128L161.49 384.288ZM169.65 385.04C169.65 385.28 169.634 385.424 169.618 385.632H161.474L161.65 385.792C161.906 387.616 162.962 388.752 165.01 388.752C166.114 388.752 167.058 388.368 167.778 387.664L168.818 388.688C167.842 389.648 166.53 390.16 164.994 390.16C161.666 390.16 160.13 387.968 160.13 385.04C160.13 381.952 161.89 379.76 164.93 379.76C168.114 379.76 169.65 382 169.65 385.04ZM172.771 384.288H179.587L179.411 384.128C179.171 382.4 178.179 381.168 176.211 381.168C174.195 381.168 173.203 382.448 172.947 384.128L172.771 384.288ZM180.931 385.04C180.931 385.28 180.915 385.424 180.899 385.632H172.755L172.931 385.792C173.187 387.616 174.243 388.752 176.291 388.752C177.395 388.752 178.339 388.368 179.059 387.664L180.099 388.688C179.123 389.648 177.811 390.16 176.275 390.16C172.947 390.16 171.411 387.968 171.411 385.04C171.411 381.952 173.171 379.76 176.211 379.76C179.395 379.76 180.931 382 180.931 385.04ZM184.725 376.56V390H183.253V376.56H184.725ZM195.452 387.232C195.452 388.704 194.332 390.176 191.42 390.176C189.836 390.176 188.172 389.68 187.052 388.448L188.14 387.36C189.26 388.384 190.188 388.768 191.372 388.768C193.164 388.768 193.964 388.096 193.964 387.296C193.964 386.64 193.58 386.208 192.204 385.84C191.98 385.776 190.62 385.376 190.412 385.312C188.636 384.816 187.34 384.128 187.34 382.576C187.34 381.104 188.604 379.76 191.308 379.76C192.892 379.76 194.252 380.32 195.228 381.392L194.14 382.48C193.452 381.648 192.54 381.168 191.308 381.168C189.564 381.168 188.828 381.872 188.828 382.528C188.828 383.136 189.404 383.536 191.052 383.984C191.26 384.048 192.444 384.416 192.668 384.48C194.668 385.024 195.452 385.936 195.452 387.232ZM205.169 385.28H210.881L210.721 385.12L208.433 379.92L208.049 378.624H208.017L207.617 379.92L205.329 385.12L205.169 385.28ZM208.833 377.04L214.529 390H212.865L211.489 386.88L211.569 386.72H204.481L204.561 386.88L203.185 390H201.521L207.217 377.04H208.833ZM222.985 379.92H224.633L220.345 390H218.729L214.441 379.92H216.089L219.097 387.136L219.529 388.416H219.561L219.977 387.136L222.985 379.92ZM226.803 384.288H233.619L233.443 384.128C233.203 382.4 232.211 381.168 230.243 381.168C228.227 381.168 227.235 382.448 226.979 384.128L226.803 384.288ZM234.963 385.04C234.963 385.28 234.947 385.424 234.931 385.632H226.787L226.963 385.792C227.219 387.616 228.275 388.752 230.323 388.752C231.427 388.752 232.371 388.368 233.091 387.664L234.131 388.688C233.155 389.648 231.843 390.16 230.307 390.16C226.979 390.16 225.443 387.968 225.443 385.04C225.443 381.952 227.203 379.76 230.243 379.76C233.427 379.76 234.963 382 234.963 385.04ZM255.549 377.04H257.149L253.693 390H251.709L249.437 381.36L249.197 379.824H249.165L248.925 381.36L246.653 390H244.653L241.197 377.04H242.829L245.453 387.12L245.661 388.416H245.693L245.917 387.12L248.573 377.04H249.789L252.461 387.12L252.669 388.416H252.701L252.909 387.12L255.549 377.04ZM270.1 382L270.228 381.84H267.06L267.108 382L266.34 385.04L266.228 385.2H269.348L269.316 385.04L270.1 382ZM273.444 380.4V381.84H271.38L271.428 382L270.66 385.04L270.548 385.2H272.212V386.64H270.164L270.196 386.8L269.38 390H268.036L268.852 386.8L268.996 386.64H265.844L265.876 386.8L265.06 390H263.716L264.532 386.8L264.676 386.64H262.98V385.2H265.028L264.996 385.04L265.78 382L265.908 381.84H264.212V380.4H266.26L266.228 380.24L267.044 377.04H268.388L267.572 380.24L267.46 380.4H270.58L270.548 380.24L271.364 377.04H272.708L271.892 380.24L271.78 380.4H273.444ZM283.938 380.432C283.938 382.08 283.042 383.328 280.626 384.176L278.562 384.896C277.106 385.408 276.338 386.496 276.338 388.016C276.338 388.144 276.354 388.272 276.354 388.384L276.194 388.56H283.922V390H274.834L274.802 387.872C274.77 386.032 275.794 384.256 278.066 383.456L279.81 382.848C281.698 382.192 282.37 381.472 282.37 380.432C282.37 379.36 281.65 378.32 279.49 378.32C278.05 378.32 276.914 378.896 276.13 379.968L275.01 378.848C276.082 377.568 277.618 376.88 279.506 376.88C282.674 376.88 283.938 378.672 283.938 380.432ZM294.445 383.6C294.445 380.784 293.628 378.32 290.861 378.32C288.221 378.32 287.261 380.704 287.261 383.6C287.261 386.448 288.189 388.72 290.845 388.72C293.485 388.72 294.445 386.56 294.445 383.6ZM296.013 383.6C296.013 387.536 294.253 390.16 290.845 390.16C287.469 390.16 285.693 387.536 285.693 383.6C285.693 379.664 287.565 376.88 290.845 376.88C294.189 376.88 296.013 379.648 296.013 383.6ZM304.571 380.816L304.667 379.36H304.635L303.835 380.4L300.107 384.848L299.467 385.488V385.52H304.651L304.571 385.36V380.816ZM307.771 385.52V386.96H306.011L306.091 387.12V390H304.571V387.12L304.651 386.96H297.531V385.808L304.843 377.04H306.091V385.36L306.011 385.52H307.771ZM328.111 377.04H329.711L326.255 390H324.271L321.999 381.36L321.759 379.824H321.727L321.487 381.36L319.215 390H317.215L313.759 377.04H315.391L318.015 387.12L318.223 388.416H318.255L318.479 387.12L321.135 377.04H322.351L325.023 387.12L325.231 388.416H325.263L325.471 387.12L328.111 377.04ZM338.397 384.96C338.397 382.832 337.421 381.168 335.101 381.168C332.781 381.168 331.821 382.816 331.821 384.96C331.821 387.088 332.797 388.752 335.117 388.752C337.437 388.752 338.397 387.088 338.397 384.96ZM339.869 384.96C339.869 387.952 338.253 390.16 335.101 390.16C331.933 390.16 330.349 387.984 330.349 384.96C330.349 381.952 331.933 379.76 335.101 379.76C338.285 379.76 339.869 381.92 339.869 384.96ZM349.678 384.96C349.678 382.832 348.702 381.168 346.382 381.168C344.062 381.168 343.102 382.816 343.102 384.96C343.102 387.088 344.078 388.752 346.398 388.752C348.718 388.752 349.678 387.088 349.678 384.96ZM351.15 384.96C351.15 387.952 349.534 390.16 346.382 390.16C343.214 390.16 341.63 387.984 341.63 384.96C341.63 381.952 343.214 379.76 346.382 379.76C349.566 379.76 351.15 381.92 351.15 384.96ZM360.895 385.008C360.895 382.864 360.031 381.168 357.647 381.168C355.311 381.168 354.383 382.88 354.383 385.008C354.383 387.136 355.279 388.752 357.647 388.752C359.999 388.752 360.895 387.136 360.895 385.008ZM362.239 376.576V390H360.767V388.832H360.735C360.031 389.696 358.959 390.16 357.583 390.16C354.431 390.16 352.911 388.016 352.911 385.024C352.911 381.984 354.463 379.76 357.583 379.76C358.895 379.76 360.031 380.32 360.735 381.152H360.767V376.576H362.239ZM372.968 385.008C372.968 382.88 372.072 381.168 369.704 381.168C367.336 381.168 366.456 382.864 366.456 385.008C366.456 387.136 367.352 388.752 369.72 388.752C372.088 388.752 372.968 387.136 372.968 385.008ZM374.44 385.008C374.44 388 372.92 390.16 369.768 390.16C368.392 390.16 367.32 389.696 366.616 388.832H366.584V390H365.112V376.56H366.584V381.152H366.616C367.384 380.272 368.424 379.76 369.768 379.76C372.952 379.76 374.44 381.968 374.44 385.008ZM381.793 379.808V381.376H381.313C379.857 381.376 378.225 382.352 378.225 385.024V390H376.753V379.92H378.225V381.664H378.257C378.833 380.432 380.177 379.808 381.473 379.808H381.793ZM385.021 379.92V390H383.549V379.92H385.021ZM385.245 377.52C385.245 378.144 384.909 378.576 384.285 378.576C383.645 378.576 383.325 378.144 383.325 377.52C383.325 376.896 383.661 376.464 384.285 376.464C384.925 376.464 385.245 376.896 385.245 377.52ZM395.333 385.008C395.333 382.864 394.469 381.168 392.085 381.168C389.749 381.168 388.821 382.88 388.821 385.008C388.821 387.136 389.717 388.752 392.085 388.752C394.437 388.752 395.333 387.136 395.333 385.008ZM396.677 376.576V390H395.205V388.832H395.173C394.469 389.696 393.397 390.16 392.021 390.16C388.869 390.16 387.349 388.016 387.349 385.024C387.349 381.984 388.901 379.76 392.021 379.76C393.333 379.76 394.469 380.32 395.173 381.152H395.205V376.576H396.677ZM406.973 384.512C406.973 382.544 405.805 381.168 403.645 381.168C401.469 381.168 400.461 382.608 400.461 384.512C400.461 386.496 401.517 387.792 403.645 387.792C405.965 387.792 406.973 386.416 406.973 384.512ZM406.845 379.92H408.317V389.12C408.317 391.856 406.845 393.44 403.757 393.44C402.157 393.44 400.797 392.992 399.645 392.08L400.701 391.024C401.469 391.664 402.669 392.048 403.757 392.048C405.789 392.048 406.845 390.976 406.845 389.104V387.872H406.813C405.997 388.8 404.925 389.2 403.581 389.2C400.509 389.2 398.989 387.328 398.989 384.512C398.989 381.904 400.557 379.76 403.581 379.76C404.941 379.76 406.141 380.288 406.813 381.152H406.845V379.92ZM411.99 384.288H418.806L418.63 384.128C418.39 382.4 417.398 381.168 415.43 381.168C413.414 381.168 412.422 382.448 412.166 384.128L411.99 384.288ZM420.15 385.04C420.15 385.28 420.134 385.424 420.118 385.632H411.974L412.15 385.792C412.406 387.616 413.462 388.752 415.51 388.752C416.614 388.752 417.558 388.368 418.278 387.664L419.318 388.688C418.342 389.648 417.03 390.16 415.494 390.16C412.166 390.16 410.63 387.968 410.63 385.04C410.63 381.952 412.39 379.76 415.43 379.76C418.614 379.76 420.15 382 420.15 385.04ZM424.439 388.832C424.439 389.168 424.359 389.424 424.263 389.664L422.935 392.736L421.991 392.352L422.871 390.304L423.079 390.144C422.407 390.144 421.991 389.584 421.991 388.832C421.991 388.064 422.407 387.52 423.191 387.52C423.991 387.52 424.439 388.048 424.439 388.832ZM100.456 406.6C100.456 403.784 99.208 401.32 95.96 401.32C92.728 401.32 91.448 403.704 91.448 406.6C91.448 409.448 92.744 411.72 95.96 411.72C99.192 411.72 100.456 409.448 100.456 406.6ZM102.024 406.6C102.024 410.536 99.88 413.16 95.944 413.16C91.96 413.16 89.88 410.536 89.88 406.6C89.88 402.664 91.976 399.88 95.944 399.88C99.944 399.88 102.024 402.648 102.024 406.6ZM114.986 400.04V413H113.594L106.89 404.104L105.898 402.584H105.866V413H104.346V400.04H105.738L112.49 409L113.434 410.456H113.466V400.04H114.986ZM131.583 411.56V413H122.815V400.04H124.335V411.384L124.175 411.56H131.583ZM138.711 403.816L138.807 402.36H138.775L137.975 403.4L134.247 407.848L133.607 408.488V408.52H138.791L138.711 408.36V403.816ZM141.911 408.52V409.96H140.151L140.231 410.12V413H138.711V410.12L138.791 409.96H131.671V408.808L138.983 400.04H140.231V408.36L140.151 408.52H141.911ZM152.755 411.56V413H143.987V400.04H145.507V411.384L145.347 411.56H152.755ZM165.633 403.816L165.729 402.36H165.697L164.897 403.4L161.169 407.848L160.529 408.488V408.52H165.713L165.633 408.36V403.816ZM168.833 408.52V409.96H167.073L167.153 410.12V413H165.633V410.12L165.713 409.96H158.593V408.808L165.905 400.04H167.153V408.36L167.073 408.52H168.833ZM180.141 400.04H182.045L176.653 407.56V413H175.117V407.56L169.709 400.04H171.629L174.989 404.792L175.869 406.28H175.901L176.765 404.792L180.141 400.04ZM188.524 403.816L188.62 402.36H188.588L187.788 403.4L184.06 407.848L183.42 408.488V408.52H188.604L188.524 408.36V403.816ZM191.724 408.52V409.96H189.964L190.044 410.12V413H188.524V410.12L188.604 409.96H181.484V408.808L188.796 400.04H190.044V408.36L189.964 408.52H191.724ZM195.767 411.832C195.767 412.168 195.687 412.424 195.591 412.664L194.263 415.736L193.319 415.352L194.199 413.304L194.407 413.144C193.735 413.144 193.319 412.584 193.319 411.832C193.319 411.064 193.735 410.52 194.519 410.52C195.319 410.52 195.767 411.048 195.767 411.832ZM213.924 401.864L212.772 402.968C212.02 401.96 210.852 401.32 209.092 401.32C205.7 401.32 204.292 403.704 204.292 406.6C204.292 409.448 205.636 411.72 209.076 411.72C210.836 411.72 212.004 411.096 212.756 410.088L213.892 411.176C212.82 412.424 211.204 413.16 209.06 413.16C204.884 413.16 202.724 410.536 202.724 406.6C202.724 402.664 204.98 399.88 209.076 399.88C211.268 399.88 212.852 400.616 213.924 401.864ZM222.694 408.28L222.854 408.136C222.662 408.12 222.15 408.088 221.83 408.088C220.07 408.088 216.758 408.056 216.758 410.072C216.758 411.416 218.31 411.784 219.414 411.784C220.438 411.784 222.694 411.496 222.694 410.056V408.28ZM224.166 406.44V413H222.694V412.104H222.662C221.782 412.888 220.566 413.176 219.398 413.176C217.366 413.176 215.286 412.392 215.286 410.072C215.286 406.904 219.286 406.792 221.734 406.792C222.102 406.792 222.662 406.824 222.854 406.856L222.694 406.68V406.456C222.694 404.728 221.43 404.168 219.926 404.168C218.838 404.168 217.574 404.408 216.758 405.176L215.734 404.168C216.966 403.128 218.326 402.776 219.926 402.776C222.07 402.776 224.166 403.624 224.166 406.44ZM235.819 406.568V413H234.347V406.888C234.347 405.288 233.851 404.168 231.531 404.168C229.835 404.168 228.443 405.112 228.443 407.016V413H226.971V402.92H228.443V404.184H228.475C229.163 403.32 230.395 402.76 231.691 402.76C234.347 402.76 235.819 404.12 235.819 406.568ZM245.46 408.28L245.62 408.136C245.428 408.12 244.916 408.088 244.596 408.088C242.836 408.088 239.524 408.056 239.524 410.072C239.524 411.416 241.076 411.784 242.18 411.784C243.204 411.784 245.46 411.496 245.46 410.056V408.28ZM246.932 406.44V413H245.46V412.104H245.428C244.548 412.888 243.332 413.176 242.164 413.176C240.132 413.176 238.052 412.392 238.052 410.072C238.052 406.904 242.052 406.792 244.5 406.792C244.868 406.792 245.428 406.824 245.62 406.856L245.46 406.68V406.456C245.46 404.728 244.196 404.168 242.692 404.168C241.604 404.168 240.34 404.408 239.524 405.176L238.5 404.168C239.732 403.128 241.092 402.776 242.692 402.776C244.836 402.776 246.932 403.624 246.932 406.44ZM257.161 408.008C257.161 405.864 256.297 404.168 253.913 404.168C251.577 404.168 250.649 405.88 250.649 408.008C250.649 410.136 251.545 411.752 253.913 411.752C256.265 411.752 257.161 410.136 257.161 408.008ZM258.505 399.576V413H257.033V411.832H257.001C256.297 412.696 255.225 413.16 253.849 413.16C250.697 413.16 249.177 411.016 249.177 408.024C249.177 404.984 250.729 402.76 253.849 402.76C255.161 402.76 256.297 403.32 257.001 404.152H257.033V399.576H258.505ZM268.226 408.28L268.385 408.136C268.194 408.12 267.682 408.088 267.362 408.088C265.602 408.088 262.289 408.056 262.289 410.072C262.289 411.416 263.842 411.784 264.946 411.784C265.97 411.784 268.226 411.496 268.226 410.056V408.28ZM269.698 406.44V413H268.226V412.104H268.194C267.314 412.888 266.098 413.176 264.93 413.176C262.898 413.176 260.818 412.392 260.818 410.072C260.818 406.904 264.818 406.792 267.266 406.792C267.634 406.792 268.194 406.824 268.385 406.856L268.226 406.68V406.456C268.226 404.728 266.962 404.168 265.458 404.168C264.37 404.168 263.106 404.408 262.289 405.176L261.266 404.168C262.498 403.128 263.858 402.776 265.458 402.776C267.602 402.776 269.698 403.624 269.698 406.44ZM274.439 411.832C274.439 412.616 274.007 413.16 273.223 413.16C272.439 413.16 272.023 412.616 272.023 411.832C272.023 411.064 272.439 410.52 273.223 410.52C274.023 410.52 274.439 411.048 274.439 411.832Z"/>
<path fill="#C9C9C9" d="M45.364 108.126C44.536 108.126 43.792 107.982 43.132 107.694C42.484 107.394 41.974 106.986 41.602 106.47C41.23 105.942 41.038 105.336 41.026 104.652H42.772C42.832 105.24 43.072 105.738 43.492 106.146C43.924 106.542 44.548 106.74 45.364 106.74C46.144 106.74 46.756 106.548 47.2 106.164C47.656 105.768 47.884 105.264 47.884 104.652C47.884 104.172 47.752 103.782 47.488 103.482C47.224 103.182 46.894 102.954 46.498 102.798C46.102 102.642 45.568 102.474 44.896 102.294C44.068 102.078 43.402 101.862 42.898 101.646C42.406 101.43 41.98 101.094 41.62 100.638C41.272 100.17 41.098 99.546 41.098 98.766C41.098 98.082 41.272 97.476 41.62 96.948C41.968 96.42 42.454 96.012 43.078 95.724C43.714 95.436 44.44 95.292 45.256 95.292C46.432 95.292 47.392 95.586 48.136 96.174C48.892 96.762 49.318 97.542 49.414 98.514H47.614C47.554 98.034 47.302 97.614 46.858 97.254C46.414 96.882 45.826 96.696 45.094 96.696C44.41 96.696 43.852 96.876 43.42 97.236C42.988 97.584 42.772 98.076 42.772 98.712C42.772 99.168 42.898 99.54 43.15 99.828C43.414 100.116 43.732 100.338 44.104 100.494C44.488 100.638 45.022 100.806 45.706 100.998C46.534 101.226 47.2 101.454 47.704 101.682C48.208 101.898 48.64 102.24 49 102.708C49.36 103.164 49.54 103.788 49.54 104.58C49.54 105.192 49.378 105.768 49.054 106.308C48.73 106.848 48.25 107.286 47.614 107.622C46.978 107.958 46.228 108.126 45.364 108.126ZM51.3385 103.032C51.3385 102.024 51.5425 101.142 51.9505 100.386C52.3585 99.618 52.9165 99.024 53.6245 98.604C54.3445 98.184 55.1425 97.974 56.0185 97.974C56.8825 97.974 57.6325 98.16 58.2685 98.532C58.9045 98.904 59.3785 99.372 59.6905 99.936V98.136H61.3465V108H59.6905V106.164C59.3665 106.74 58.8805 107.22 58.2325 107.604C57.5965 107.976 56.8525 108.162 56.0005 108.162C55.1245 108.162 54.3325 107.946 53.6245 107.514C52.9165 107.082 52.3585 106.476 51.9505 105.696C51.5425 104.916 51.3385 104.028 51.3385 103.032ZM59.6905 103.05C59.6905 102.306 59.5405 101.658 59.2405 101.106C58.9405 100.554 58.5325 100.134 58.0165 99.846C57.5125 99.546 56.9545 99.396 56.3425 99.396C55.7305 99.396 55.1725 99.54 54.6685 99.828C54.1645 100.116 53.7625 100.536 53.4625 101.088C53.1625 101.64 53.0125 102.288 53.0125 103.032C53.0125 103.788 53.1625 104.448 53.4625 105.012C53.7625 105.564 54.1645 105.99 54.6685 106.29C55.1725 106.578 55.7305 106.722 56.3425 106.722C56.9545 106.722 57.5125 106.578 58.0165 106.29C58.5325 105.99 58.9405 105.564 59.2405 105.012C59.5405 104.448 59.6905 103.794 59.6905 103.05ZM72.6105 98.136L66.6705 112.644H64.9785L66.9225 107.892L62.9445 98.136H64.7625L67.8585 106.128L70.9185 98.136H72.6105ZM82.5479 108.162C81.7919 108.162 81.1139 108.036 80.5139 107.784C79.9139 107.52 79.4399 107.16 79.0919 106.704C78.7439 106.236 78.5519 105.702 78.5159 105.102H80.2079C80.2559 105.594 80.4839 105.996 80.8919 106.308C81.3119 106.62 81.8579 106.776 82.5299 106.776C83.1539 106.776 83.6459 106.638 84.0059 106.362C84.3659 106.086 84.5459 105.738 84.5459 105.318C84.5459 104.886 84.3539 104.568 83.9699 104.364C83.5859 104.148 82.9919 103.938 82.1879 103.734C81.4559 103.542 80.8559 103.35 80.3879 103.158C79.9319 102.954 79.5359 102.66 79.1999 102.276C78.8759 101.88 78.7139 101.364 78.7139 100.728C78.7139 100.224 78.8639 99.762 79.1639 99.342C79.4639 98.922 79.8899 98.592 80.4419 98.352C80.9939 98.1 81.6239 97.974 82.3319 97.974C83.4239 97.974 84.3059 98.25 84.9779 98.802C85.6499 99.354 86.0099 100.11 86.0579 101.07H84.4199C84.3839 100.554 84.1739 100.14 83.7899 99.828C83.4179 99.516 82.9139 99.36 82.2779 99.36C81.6899 99.36 81.2219 99.486 80.8739 99.738C80.5259 99.99 80.3519 100.32 80.3519 100.728C80.3519 101.052 80.4539 101.322 80.6579 101.538C80.8739 101.742 81.1379 101.91 81.4499 102.042C81.7739 102.162 82.2179 102.3 82.7819 102.456C83.4899 102.648 84.0659 102.84 84.5099 103.032C84.9539 103.212 85.3319 103.488 85.6439 103.86C85.9679 104.232 86.1359 104.718 86.1479 105.318C86.1479 105.858 85.9979 106.344 85.6979 106.776C85.3979 107.208 84.9719 107.55 84.4199 107.802C83.8799 108.042 83.2559 108.162 82.5479 108.162ZM92.7622 108.162C91.8382 108.162 90.9982 107.952 90.2422 107.532C89.4982 107.112 88.9102 106.518 88.4782 105.75C88.0582 104.97 87.8482 104.07 87.8482 103.05C87.8482 102.042 88.0642 101.154 88.4962 100.386C88.9402 99.606 89.5402 99.012 90.2962 98.604C91.0522 98.184 91.8982 97.974 92.8342 97.974C93.7702 97.974 94.6162 98.184 95.3722 98.604C96.1282 99.012 96.7222 99.6 97.1542 100.368C97.5982 101.136 97.8202 102.03 97.8202 103.05C97.8202 104.07 97.5922 104.97 97.1362 105.75C96.6922 106.518 96.0862 107.112 95.3182 107.532C94.5502 107.952 93.6982 108.162 92.7622 108.162ZM92.7622 106.722C93.3502 106.722 93.9022 106.584 94.4182 106.308C94.9342 106.032 95.3482 105.618 95.6602 105.066C95.9842 104.514 96.1462 103.842 96.1462 103.05C96.1462 102.258 95.9902 101.586 95.6782 101.034C95.3662 100.482 94.9582 100.074 94.4542 99.81C93.9502 99.534 93.4042 99.396 92.8162 99.396C92.2162 99.396 91.6642 99.534 91.1602 99.81C90.6682 100.074 90.2722 100.482 89.9722 101.034C89.6722 101.586 89.5222 102.258 89.5222 103.05C89.5222 103.854 89.6662 104.532 89.9542 105.084C90.2542 105.636 90.6502 106.05 91.1422 106.326C91.6342 106.59 92.1742 106.722 92.7622 106.722ZM111.836 97.956C112.604 97.956 113.288 98.118 113.888 98.442C114.488 98.754 114.962 99.228 115.31 99.864C115.658 100.5 115.832 101.274 115.832 102.186V108H114.212V102.42C114.212 101.436 113.966 100.686 113.474 100.17C112.994 99.642 112.34 99.378 111.512 99.378C110.66 99.378 109.982 99.654 109.478 100.206C108.974 100.746 108.722 101.532 108.722 102.564V108H107.102V102.42C107.102 101.436 106.856 100.686 106.364 100.17C105.884 99.642 105.23 99.378 104.402 99.378C103.55 99.378 102.872 99.654 102.368 100.206C101.864 100.746 101.612 101.532 101.612 102.564V108H99.9739V98.136H101.612V99.558C101.936 99.042 102.368 98.646 102.908 98.37C103.46 98.094 104.066 97.956 104.726 97.956C105.554 97.956 106.286 98.142 106.922 98.514C107.558 98.886 108.032 99.432 108.344 100.152C108.62 99.456 109.076 98.916 109.712 98.532C110.348 98.148 111.056 97.956 111.836 97.956ZM127.519 102.69C127.519 103.002 127.501 103.332 127.465 103.68H119.581C119.641 104.652 119.971 105.414 120.571 105.966C121.183 106.506 121.921 106.776 122.785 106.776C123.493 106.776 124.081 106.614 124.549 106.29C125.029 105.954 125.365 105.51 125.557 104.958H127.321C127.057 105.906 126.529 106.68 125.737 107.28C124.945 107.868 123.961 108.162 122.785 108.162C121.849 108.162 121.009 107.952 120.265 107.532C119.533 107.112 118.957 106.518 118.537 105.75C118.117 104.97 117.907 104.07 117.907 103.05C117.907 102.03 118.111 101.136 118.519 100.368C118.927 99.6 119.497 99.012 120.229 98.604C120.973 98.184 121.825 97.974 122.785 97.974C123.721 97.974 124.549 98.178 125.269 98.586C125.989 98.994 126.541 99.558 126.925 100.278C127.321 100.986 127.519 101.79 127.519 102.69ZM125.827 102.348C125.827 101.724 125.689 101.19 125.413 100.746C125.137 100.29 124.759 99.948 124.279 99.72C123.811 99.48 123.289 99.36 122.713 99.36C121.885 99.36 121.177 99.624 120.589 100.152C120.013 100.68 119.683 101.412 119.599 102.348H125.827ZM131.679 99.486V105.3C131.679 105.78 131.781 106.122 131.985 106.326C132.189 106.518 132.543 106.614 133.047 106.614H134.253V108H132.777C131.865 108 131.181 107.79 130.725 107.37C130.269 106.95 130.041 106.26 130.041 105.3V99.486H128.763V98.136H130.041V95.652H131.679V98.136H134.253V99.486H131.679ZM141.134 97.956C141.878 97.956 142.55 98.118 143.15 98.442C143.75 98.754 144.218 99.228 144.554 99.864C144.902 100.5 145.076 101.274 145.076 102.186V108H143.456V102.42C143.456 101.436 143.21 100.686 142.718 100.17C142.226 99.642 141.554 99.378 140.702 99.378C139.838 99.378 139.148 99.648 138.632 100.188C138.128 100.728 137.876 101.514 137.876 102.546V108H136.238V94.68H137.876V99.54C138.2 99.036 138.644 98.646 139.208 98.37C139.784 98.094 140.426 97.956 141.134 97.956ZM148.597 96.534C148.285 96.534 148.021 96.426 147.805 96.21C147.589 95.994 147.481 95.73 147.481 95.418C147.481 95.106 147.589 94.842 147.805 94.626C148.021 94.41 148.285 94.302 148.597 94.302C148.897 94.302 149.149 94.41 149.353 94.626C149.569 94.842 149.677 95.106 149.677 95.418C149.677 95.73 149.569 95.994 149.353 96.21C149.149 96.426 148.897 96.534 148.597 96.534ZM149.389 98.136V108H147.751V98.136H149.389ZM156.987 97.956C158.187 97.956 159.159 98.322 159.903 99.054C160.647 99.774 161.019 100.818 161.019 102.186V108H159.399V102.42C159.399 101.436 159.153 100.686 158.661 100.17C158.169 99.642 157.497 99.378 156.645 99.378C155.781 99.378 155.091 99.648 154.575 100.188C154.071 100.728 153.819 101.514 153.819 102.546V108H152.181V98.136H153.819V99.54C154.143 99.036 154.581 98.646 155.133 98.37C155.697 98.094 156.315 97.956 156.987 97.956ZM167.763 97.974C168.615 97.974 169.359 98.16 169.995 98.532C170.643 98.904 171.123 99.372 171.435 99.936V98.136H173.091V108.216C173.091 109.116 172.899 109.914 172.515 110.61C172.131 111.318 171.579 111.87 170.859 112.266C170.151 112.662 169.323 112.86 168.375 112.86C167.079 112.86 165.999 112.554 165.135 111.942C164.271 111.33 163.761 110.496 163.605 109.44H165.225C165.405 110.04 165.777 110.52 166.341 110.88C166.905 111.252 167.583 111.438 168.375 111.438C169.275 111.438 170.007 111.156 170.571 110.592C171.147 110.028 171.435 109.236 171.435 108.216V106.146C171.111 106.722 170.631 107.202 169.995 107.586C169.359 107.97 168.615 108.162 167.763 108.162C166.887 108.162 166.089 107.946 165.369 107.514C164.661 107.082 164.103 106.476 163.695 105.696C163.287 104.916 163.083 104.028 163.083 103.032C163.083 102.024 163.287 101.142 163.695 100.386C164.103 99.618 164.661 99.024 165.369 98.604C166.089 98.184 166.887 97.974 167.763 97.974ZM171.435 103.05C171.435 102.306 171.285 101.658 170.985 101.106C170.685 100.554 170.277 100.134 169.761 99.846C169.257 99.546 168.699 99.396 168.087 99.396C167.475 99.396 166.917 99.54 166.413 99.828C165.909 100.116 165.507 100.536 165.207 101.088C164.907 101.64 164.757 102.288 164.757 103.032C164.757 103.788 164.907 104.448 165.207 105.012C165.507 105.564 165.909 105.99 166.413 106.29C166.917 106.578 167.475 106.722 168.087 106.722C168.699 106.722 169.257 106.578 169.761 106.29C170.277 105.99 170.685 105.564 170.985 105.012C171.285 104.448 171.435 103.794 171.435 103.05ZM182.655 99.486V105.3C182.655 105.78 182.757 106.122 182.961 106.326C183.165 106.518 183.519 106.614 184.023 106.614H185.229V108H183.753C182.841 108 182.157 107.79 181.701 107.37C181.245 106.95 181.017 106.26 181.017 105.3V99.486H179.739V98.136H181.017V95.652H182.655V98.136H185.229V99.486H182.655ZM191.516 108.162C190.592 108.162 189.752 107.952 188.996 107.532C188.252 107.112 187.664 106.518 187.232 105.75C186.812 104.97 186.602 104.07 186.602 103.05C186.602 102.042 186.818 101.154 187.25 100.386C187.694 99.606 188.294 99.012 189.05 98.604C189.806 98.184 190.652 97.974 191.588 97.974C192.524 97.974 193.37 98.184 194.126 98.604C194.882 99.012 195.476 99.6 195.908 100.368C196.352 101.136 196.574 102.03 196.574 103.05C196.574 104.07 196.346 104.97 195.89 105.75C195.446 106.518 194.84 107.112 194.072 107.532C193.304 107.952 192.452 108.162 191.516 108.162ZM191.516 106.722C192.104 106.722 192.656 106.584 193.172 106.308C193.688 106.032 194.102 105.618 194.414 105.066C194.738 104.514 194.9 103.842 194.9 103.05C194.9 102.258 194.744 101.586 194.432 101.034C194.12 100.482 193.712 100.074 193.208 99.81C192.704 99.534 192.158 99.396 191.57 99.396C190.97 99.396 190.418 99.534 189.914 99.81C189.422 100.074 189.026 100.482 188.726 101.034C188.426 101.586 188.276 102.258 188.276 103.05C188.276 103.854 188.42 104.532 188.708 105.084C189.008 105.636 189.404 106.05 189.896 106.326C190.388 106.59 190.928 106.722 191.516 106.722ZM207.019 108.162C206.263 108.162 205.585 108.036 204.985 107.784C204.385 107.52 203.911 107.16 203.563 106.704C203.215 106.236 203.023 105.702 202.987 105.102H204.679C204.727 105.594 204.955 105.996 205.363 106.308C205.783 106.62 206.329 106.776 207.001 106.776C207.625 106.776 208.117 106.638 208.477 106.362C208.837 106.086 209.017 105.738 209.017 105.318C209.017 104.886 208.825 104.568 208.441 104.364C208.057 104.148 207.463 103.938 206.659 103.734C205.927 103.542 205.327 103.35 204.859 103.158C204.403 102.954 204.007 102.66 203.671 102.276C203.347 101.88 203.185 101.364 203.185 100.728C203.185 100.224 203.335 99.762 203.635 99.342C203.935 98.922 204.361 98.592 204.913 98.352C205.465 98.1 206.095 97.974 206.803 97.974C207.895 97.974 208.777 98.25 209.449 98.802C210.121 99.354 210.481 100.11 210.529 101.07H208.891C208.855 100.554 208.645 100.14 208.261 99.828C207.889 99.516 207.385 99.36 206.749 99.36C206.161 99.36 205.693 99.486 205.345 99.738C204.997 99.99 204.823 100.32 204.823 100.728C204.823 101.052 204.925 101.322 205.129 101.538C205.345 101.742 205.609 101.91 205.921 102.042C206.245 102.162 206.689 102.3 207.253 102.456C207.961 102.648 208.537 102.84 208.981 103.032C209.425 103.212 209.803 103.488 210.115 103.86C210.439 104.232 210.607 104.718 210.619 105.318C210.619 105.858 210.469 106.344 210.169 106.776C209.869 107.208 209.443 107.55 208.891 107.802C208.351 108.042 207.727 108.162 207.019 108.162ZM214.929 99.486V105.3C214.929 105.78 215.031 106.122 215.235 106.326C215.439 106.518 215.793 106.614 216.297 106.614H217.503V108H216.027C215.115 108 214.431 107.79 213.975 107.37C213.519 106.95 213.291 106.26 213.291 105.3V99.486H212.013V98.136H213.291V95.652H214.929V98.136H217.503V99.486H214.929ZM218.876 103.032C218.876 102.024 219.08 101.142 219.488 100.386C219.896 99.618 220.454 99.024 221.162 98.604C221.882 98.184 222.68 97.974 223.556 97.974C224.42 97.974 225.17 98.16 225.806 98.532C226.442 98.904 226.916 99.372 227.228 99.936V98.136H228.884V108H227.228V106.164C226.904 106.74 226.418 107.22 225.77 107.604C225.134 107.976 224.39 108.162 223.538 108.162C222.662 108.162 221.87 107.946 221.162 107.514C220.454 107.082 219.896 106.476 219.488 105.696C219.08 104.916 218.876 104.028 218.876 103.032ZM227.228 103.05C227.228 102.306 227.078 101.658 226.778 101.106C226.478 100.554 226.07 100.134 225.554 99.846C225.05 99.546 224.492 99.396 223.88 99.396C223.268 99.396 222.71 99.54 222.206 99.828C221.702 100.116 221.3 100.536 221 101.088C220.7 101.64 220.55 102.288 220.55 103.032C220.55 103.788 220.7 104.448 221 105.012C221.3 105.564 221.702 105.99 222.206 106.29C222.71 106.578 223.268 106.722 223.88 106.722C224.492 106.722 225.05 106.578 225.554 106.29C226.07 105.99 226.478 105.564 226.778 105.012C227.078 104.448 227.228 103.794 227.228 103.05ZM233.29 99.738C233.578 99.174 233.986 98.736 234.514 98.424C235.054 98.112 235.708 97.956 236.476 97.956V99.648H236.044C234.208 99.648 233.29 100.644 233.29 102.636V108H231.652V98.136H233.29V99.738ZM240.364 99.486V105.3C240.364 105.78 240.466 106.122 240.67 106.326C240.874 106.518 241.228 106.614 241.732 106.614H242.938V108H241.462C240.55 108 239.866 107.79 239.41 107.37C238.954 106.95 238.726 106.26 238.726 105.3V99.486H237.448V98.136H238.726V95.652H240.364V98.136H242.938V99.486H240.364ZM249.11 103.032C249.11 102.024 249.314 101.142 249.722 100.386C250.13 99.618 250.688 99.024 251.396 98.604C252.116 98.184 252.914 97.974 253.79 97.974C254.654 97.974 255.404 98.16 256.04 98.532C256.676 98.904 257.15 99.372 257.462 99.936V98.136H259.118V108H257.462V106.164C257.138 106.74 256.652 107.22 256.004 107.604C255.368 107.976 254.624 108.162 253.772 108.162C252.896 108.162 252.104 107.946 251.396 107.514C250.688 107.082 250.13 106.476 249.722 105.696C249.314 104.916 249.11 104.028 249.11 103.032ZM257.462 103.05C257.462 102.306 257.312 101.658 257.012 101.106C256.712 100.554 256.304 100.134 255.788 99.846C255.284 99.546 254.726 99.396 254.114 99.396C253.502 99.396 252.944 99.54 252.44 99.828C251.936 100.116 251.534 100.536 251.234 101.088C250.934 101.64 250.784 102.288 250.784 103.032C250.784 103.788 250.934 104.448 251.234 105.012C251.534 105.564 251.936 105.99 252.44 106.29C252.944 106.578 253.502 106.722 254.114 106.722C254.726 106.722 255.284 106.578 255.788 106.29C256.304 105.99 256.712 105.564 257.012 105.012C257.312 104.448 257.462 103.794 257.462 103.05ZM268.323 94.68V108H266.685V94.68H268.323ZM271.961 96.534C271.649 96.534 271.385 96.426 271.169 96.21C270.953 95.994 270.845 95.73 270.845 95.418C270.845 95.106 270.953 94.842 271.169 94.626C271.385 94.41 271.649 94.302 271.961 94.302C272.261 94.302 272.513 94.41 272.717 94.626C272.933 94.842 273.041 95.106 273.041 95.418C273.041 95.73 272.933 95.994 272.717 96.21C272.513 96.426 272.261 96.534 271.961 96.534ZM272.753 98.136V108H271.115V98.136H272.753ZM279.216 106.488L282.276 98.136H284.022L280.152 108H278.244L274.374 98.136H276.138L279.216 106.488ZM294.634 102.69C294.634 103.002 294.616 103.332 294.58 103.68H286.696C286.756 104.652 287.086 105.414 287.686 105.966C288.298 106.506 289.036 106.776 289.9 106.776C290.608 106.776 291.196 106.614 291.664 106.29C292.144 105.954 292.48 105.51 292.672 104.958H294.436C294.172 105.906 293.644 106.68 292.852 107.28C292.06 107.868 291.076 108.162 289.9 108.162C288.964 108.162 288.124 107.952 287.38 107.532C286.648 107.112 286.072 106.518 285.652 105.75C285.232 104.97 285.022 104.07 285.022 103.05C285.022 102.03 285.226 101.136 285.634 100.368C286.042 99.6 286.612 99.012 287.344 98.604C288.088 98.184 288.94 97.974 289.9 97.974C290.836 97.974 291.664 98.178 292.384 98.586C293.104 98.994 293.656 99.558 294.04 100.278C294.436 100.986 294.634 101.79 294.634 102.69ZM292.942 102.348C292.942 101.724 292.804 101.19 292.528 100.746C292.252 100.29 291.874 99.948 291.394 99.72C290.926 99.48 290.404 99.36 289.828 99.36C289 99.36 288.292 99.624 287.704 100.152C287.128 100.68 286.798 101.412 286.714 102.348H292.942ZM300.983 103.05C300.983 102.03 301.187 101.142 301.595 100.386C302.003 99.618 302.567 99.024 303.287 98.604C304.019 98.184 304.853 97.974 305.789 97.974C307.001 97.974 307.997 98.268 308.777 98.856C309.569 99.444 310.091 100.26 310.343 101.304H308.579C308.411 100.704 308.081 100.23 307.589 99.882C307.109 99.534 306.509 99.36 305.789 99.36C304.853 99.36 304.097 99.684 303.521 100.332C302.945 100.968 302.657 101.874 302.657 103.05C302.657 104.238 302.945 105.156 303.521 105.804C304.097 106.452 304.853 106.776 305.789 106.776C306.509 106.776 307.109 106.608 307.589 106.272C308.069 105.936 308.399 105.456 308.579 104.832H310.343C310.079 105.84 309.551 106.65 308.759 107.262C307.967 107.862 306.977 108.162 305.789 108.162C304.853 108.162 304.019 107.952 303.287 107.532C302.567 107.112 302.003 106.518 301.595 105.75C301.187 104.982 300.983 104.082 300.983 103.05ZM317.425 97.956C318.169 97.956 318.841 98.118 319.441 98.442C320.041 98.754 320.509 99.228 320.845 99.864C321.193 100.5 321.367 101.274 321.367 102.186V108H319.747V102.42C319.747 101.436 319.501 100.686 319.009 100.17C318.517 99.642 317.845 99.378 316.993 99.378C316.129 99.378 315.439 99.648 314.923 100.188C314.419 100.728 314.167 101.514 314.167 102.546V108H312.529V94.68H314.167V99.54C314.491 99.036 314.935 98.646 315.499 98.37C316.075 98.094 316.717 97.956 317.425 97.956ZM323.43 103.032C323.43 102.024 323.634 101.142 324.042 100.386C324.45 99.618 325.008 99.024 325.716 98.604C326.436 98.184 327.234 97.974 328.11 97.974C328.974 97.974 329.724 98.16 330.36 98.532C330.996 98.904 331.47 99.372 331.782 99.936V98.136H333.438V108H331.782V106.164C331.458 106.74 330.972 107.22 330.324 107.604C329.688 107.976 328.944 108.162 328.092 108.162C327.216 108.162 326.424 107.946 325.716 107.514C325.008 107.082 324.45 106.476 324.042 105.696C323.634 104.916 323.43 104.028 323.43 103.032ZM331.782 103.05C331.782 102.306 331.632 101.658 331.332 101.106C331.032 100.554 330.624 100.134 330.108 99.846C329.604 99.546 329.046 99.396 328.434 99.396C327.822 99.396 327.264 99.54 326.76 99.828C326.256 100.116 325.854 100.536 325.554 101.088C325.254 101.64 325.104 102.288 325.104 103.032C325.104 103.788 325.254 104.448 325.554 105.012C325.854 105.564 326.256 105.99 326.76 106.29C327.264 106.578 327.822 106.722 328.434 106.722C329.046 106.722 329.604 106.578 330.108 106.29C330.624 105.99 331.032 105.564 331.332 105.012C331.632 104.448 331.782 103.794 331.782 103.05ZM338.204 99.486V105.3C338.204 105.78 338.306 106.122 338.51 106.326C338.714 106.518 339.068 106.614 339.572 106.614H340.778V108H339.302C338.39 108 337.706 107.79 337.25 107.37C336.794 106.95 336.566 106.26 336.566 105.3V99.486H335.288V98.136H336.566V95.652H338.204V98.136H340.778V99.486H338.204ZM344.887 95.454L344.689 104.454H343.321L343.123 95.454H344.887ZM344.077 108.108C343.765 108.108 343.501 108 343.285 107.784C343.069 107.568 342.961 107.304 342.961 106.992C342.961 106.68 343.069 106.416 343.285 106.2C343.501 105.984 343.765 105.876 344.077 105.876C344.377 105.876 344.629 105.984 344.833 106.2C345.049 106.416 345.157 106.68 345.157 106.992C345.157 107.304 345.049 107.568 344.833 107.784C344.629 108 344.377 108.108 344.077 108.108Z"/>
<circle fill="#7ACB59" r="15" cy="602" cx="54"/>
<path fill="white" d="M62 597.425C61.4484 597.66 60.8481 597.828 60.2298 597.894C60.8717 597.519 61.3525 596.925 61.5818 596.225C60.9794 596.578 60.3195 596.826 59.6313 596.957C59.3437 596.654 58.9958 596.413 58.6094 596.248C58.2229 596.084 57.8062 595.999 57.3852 596C55.6816 596 54.3116 597.36 54.3116 599.028C54.3116 599.263 54.3405 599.497 54.3873 599.722C51.8366 599.591 49.5616 598.391 48.0492 596.554C47.7736 597.017 47.6292 597.545 47.6309 598.082C47.6309 599.133 48.1735 600.06 49.001 600.605C48.5133 600.586 48.0372 600.454 47.6111 600.22V600.257C47.6111 601.728 48.6675 602.948 50.0754 603.228C49.811 603.296 49.5391 603.331 49.266 603.331C49.0659 603.331 48.8766 603.312 48.6855 603.285C49.0749 604.485 50.2087 605.357 51.5589 605.385C50.5026 606.2 49.1794 606.679 47.7427 606.679C47.4849 606.679 47.247 606.67 47 606.642C48.3628 607.503 49.9798 608 51.7212 608C57.3744 608 60.4677 603.388 60.4677 599.385C60.4677 599.254 60.4677 599.122 60.4587 598.991C61.0572 598.56 61.5818 598.025 62 597.425Z"/>
<circle fill="white" r="15" cy="602" cx="108"/>
<path fill="#011C2A" d="M105.408 594.045C106.208 594.008 106.463 594 108.5 594C110.537 594 110.792 594.009 111.591 594.045C112.39 594.081 112.936 594.209 113.413 594.393C113.913 594.582 114.366 594.877 114.741 595.259C115.123 595.634 115.418 596.086 115.606 596.587C115.791 597.064 115.918 597.61 115.955 598.407C115.992 599.208 116 599.463 116 601.5C116 603.537 115.991 603.792 115.955 604.592C115.919 605.39 115.791 605.935 115.606 606.413C115.418 606.913 115.123 607.366 114.741 607.741C114.366 608.123 113.913 608.418 113.413 608.606C112.936 608.791 112.39 608.918 111.593 608.955C110.792 608.992 110.537 609 108.5 609C106.463 609 106.208 608.991 105.408 608.955C104.61 608.919 104.065 608.791 103.588 608.606C103.087 608.418 102.634 608.123 102.259 607.741C101.877 607.367 101.582 606.914 101.393 606.413C101.209 605.936 101.082 605.39 101.045 604.593C101.008 603.792 101 603.537 101 601.5C101 599.463 101.009 599.208 101.045 598.409C101.081 597.61 101.209 597.064 101.393 596.587C101.582 596.086 101.878 595.633 102.259 595.259C102.634 594.877 103.087 594.582 103.587 594.393C104.064 594.209 104.61 594.082 105.407 594.045H105.408ZM111.531 595.395C110.74 595.359 110.503 595.351 108.5 595.351C106.497 595.351 106.26 595.359 105.469 595.395C104.738 595.428 104.341 595.55 104.076 595.653C103.727 595.79 103.476 595.951 103.214 596.214C102.965 596.456 102.774 596.751 102.653 597.076C102.55 597.341 102.428 597.738 102.395 598.469C102.359 599.26 102.351 599.497 102.351 601.5C102.351 603.503 102.359 603.74 102.395 604.531C102.428 605.262 102.55 605.659 102.653 605.924C102.773 606.249 102.965 606.544 103.214 606.786C103.456 607.035 103.751 607.227 104.076 607.347C104.341 607.45 104.738 607.572 105.469 607.605C106.26 607.641 106.497 607.649 108.5 607.649C110.503 607.649 110.74 607.641 111.531 607.605C112.262 607.572 112.659 607.45 112.924 607.347C113.273 607.21 113.524 607.049 113.786 606.786C114.035 606.544 114.227 606.249 114.347 605.924C114.45 605.659 114.572 605.262 114.605 604.531C114.641 603.74 114.649 603.503 114.649 601.5C114.649 599.497 114.641 599.26 114.605 598.469C114.572 597.738 114.45 597.341 114.347 597.076C114.21 596.727 114.049 596.476 113.786 596.214C113.544 595.965 113.249 595.774 112.924 595.653C112.659 595.55 112.262 595.428 111.531 595.395ZM107.542 603.812C108.077 604.035 108.673 604.065 109.227 603.897C109.782 603.729 110.261 603.374 110.583 602.892C110.905 602.411 111.05 601.832 110.993 601.255C110.935 600.679 110.68 600.14 110.269 599.731C110.008 599.469 109.691 599.269 109.343 599.144C108.995 599.02 108.623 598.974 108.255 599.01C107.887 599.047 107.531 599.164 107.214 599.354C106.897 599.545 106.626 599.803 106.42 600.11C106.214 600.418 106.08 600.767 106.025 601.133C105.971 601.499 105.999 601.872 106.106 602.226C106.213 602.581 106.398 602.906 106.646 603.18C106.894 603.455 107.2 603.67 107.542 603.812ZM105.774 598.774C106.132 598.416 106.557 598.132 107.025 597.938C107.492 597.745 107.994 597.645 108.5 597.645C109.006 597.645 109.508 597.745 109.975 597.938C110.443 598.132 110.868 598.416 111.226 598.774C111.584 599.132 111.868 599.557 112.062 600.025C112.255 600.492 112.355 600.994 112.355 601.5C112.355 602.006 112.255 602.508 112.062 602.975C111.868 603.443 111.584 603.868 111.226 604.226C110.503 604.949 109.522 605.355 108.5 605.355C107.478 605.355 106.497 604.949 105.774 604.226C105.051 603.503 104.645 602.522 104.645 601.5C104.645 600.478 105.051 599.497 105.774 598.774ZM113.21 598.219C113.299 598.135 113.37 598.035 113.419 597.923C113.468 597.812 113.494 597.691 113.496 597.569C113.498 597.447 113.475 597.326 113.429 597.213C113.383 597.1 113.315 596.998 113.229 596.911C113.143 596.825 113.04 596.757 112.927 596.711C112.814 596.665 112.693 596.643 112.571 596.644C112.449 596.646 112.329 596.672 112.217 596.722C112.106 596.771 112.005 596.842 111.921 596.93C111.759 597.103 111.67 597.332 111.673 597.569C111.676 597.806 111.772 598.033 111.94 598.201C112.108 598.368 112.334 598.464 112.571 598.467C112.808 598.471 113.037 598.382 113.21 598.219Z" clip-rule="evenodd" fill-rule="evenodd"/>
<circle fill="#7ACB59" r="15" cy="602" cx="162"/>
<path fill="white" d="M167.698 597.83C166.726 597.439 165.699 597.16 164.645 597.001C164.636 596.999 164.626 597 164.617 597.004C164.608 597.008 164.601 597.014 164.596 597.021C164.464 597.226 164.318 597.494 164.216 597.704C163.079 597.553 161.923 597.553 160.786 597.704C160.672 597.47 160.543 597.242 160.4 597.021C160.395 597.014 160.388 597.008 160.379 597.004C160.371 597.001 160.361 596.999 160.351 597.001C159.297 597.16 158.27 597.438 157.298 597.83C157.29 597.832 157.283 597.838 157.278 597.844C155.334 600.385 154.8 602.864 155.062 605.311C155.063 605.323 155.071 605.334 155.082 605.342C156.214 606.075 157.48 606.635 158.827 606.998C158.837 607.001 158.847 607.001 158.856 606.998C158.866 606.995 158.874 606.99 158.879 606.983C159.168 606.638 159.425 606.275 159.646 605.893C159.651 605.885 159.653 605.876 159.651 605.867C159.649 605.859 159.644 605.851 159.637 605.844C159.632 605.84 159.626 605.837 159.62 605.835C159.216 605.7 158.825 605.537 158.45 605.348C158.44 605.342 158.432 605.334 158.428 605.324C158.425 605.314 158.426 605.303 158.431 605.293C158.435 605.287 158.439 605.282 158.445 605.278C158.524 605.226 158.603 605.172 158.678 605.118C158.685 605.113 158.693 605.11 158.701 605.109C158.709 605.108 158.718 605.109 158.726 605.112C161.181 606.093 163.839 606.093 166.264 605.112C166.272 605.109 166.281 605.108 166.29 605.109C166.299 605.11 166.307 605.113 166.314 605.118C166.389 605.172 166.468 605.226 166.546 605.278C166.553 605.282 166.558 605.287 166.561 605.294C166.565 605.3 166.566 605.307 166.566 605.314C166.565 605.32 166.563 605.327 166.559 605.333C166.555 605.339 166.549 605.344 166.543 605.348C166.168 605.538 165.777 605.701 165.372 605.835C165.365 605.837 165.359 605.84 165.354 605.844C165.35 605.848 165.346 605.854 165.343 605.859C165.341 605.865 165.34 605.87 165.341 605.876C165.341 605.882 165.343 605.888 165.346 605.893C165.571 606.274 165.829 606.638 166.112 606.983C166.118 606.99 166.126 606.995 166.136 606.998C166.145 607.001 166.155 607.001 166.165 606.998C167.514 606.637 168.782 606.076 169.916 605.342C169.921 605.338 169.926 605.334 169.929 605.329C169.933 605.323 169.935 605.318 169.935 605.311C170.248 602.482 169.411 600.024 167.717 597.845C167.716 597.842 167.713 597.838 167.71 597.836C167.706 597.833 167.703 597.831 167.698 597.83ZM160.013 603.821C159.273 603.821 158.665 603.227 158.665 602.499C158.665 601.77 159.262 601.177 160.013 601.177C160.769 601.177 161.372 601.775 161.361 602.499C161.361 603.227 160.764 603.821 160.013 603.821ZM164.997 603.821C164.258 603.821 163.649 603.227 163.649 602.499C163.649 601.77 164.246 601.177 164.997 601.177C165.753 601.177 166.357 601.775 166.345 602.499C166.345 603.227 165.753 603.821 164.997 603.821Z"/>
<g clip-path="url(#clip0_372_574)">
<path fill="white" d="M126.267 624.733C125.067 623.467 123.467 622.6 121.8 622.267C121.067 622.067 120.333 621.933 119.6 621.867C121.467 619.667 121.133 616.333 118.933 614.467C116.733 612.6 113.4 612.933 111.533 615.133C109.667 617.333 110 620.667 112.2 622.533C112.6 622.867 113 623.133 113.4 623.267V624.733L112.333 623.733C111.4 622.8 109.867 622.8 108.867 623.733C107.933 624.667 107.867 626.133 108.8 627.067L111.867 630.667C112 631.6 112.333 632.467 112.8 633.267C113.133 633.867 113.6 634.467 114.067 634.933V636.2C114.067 636.6 114.333 636.867 114.733 636.867H123.8C124.133 636.867 124.467 636.533 124.467 636.2V634.467C125.733 632.933 126.4 631 126.4 629.067V625.2C126.467 624.933 126.4 624.8 126.267 624.733ZM111.6 618.467C111.6 616.267 113.4 614.533 115.6 614.6C117.8 614.6 119.533 616.4 119.467 618.6C119.467 619.8 118.933 620.867 118 621.6V618.267C117.966 617.689 117.712 617.146 117.291 616.749C116.869 616.353 116.312 616.132 115.733 616.133C114.533 616.067 113.467 617.067 113.467 618.267V621.733C112.333 621.067 111.667 619.8 111.6 618.467ZM125.133 629C125.2 630.733 124.6 632.4 123.467 633.733C123.333 633.867 123.2 634 123.2 634.2V635.6H115.467V634.667C115.467 634.467 115.333 634.267 115.2 634.133C114.733 633.733 114.333 633.267 114 632.667C113.6 632 113.333 631.2 113.2 630.4C113.2 630.267 113.133 630.133 113.067 630L109.867 626.2C109.667 626 109.533 625.733 109.533 625.4C109.533 625.133 109.667 624.8 109.867 624.6C110.333 624.2 111 624.2 111.467 624.6L113.4 626.533V628.533L114.667 627.867V618.267C114.733 617.8 115.133 617.4 115.667 617.467C116.133 617.467 116.6 617.8 116.6 618.267V625.933L117.933 626.2V623.133C118 623.067 118.067 623.067 118.133 623C118.6 623 119.067 623.067 119.533 623.133V626.533L120.6 626.733V623.267L121.4 623.467C121.733 623.533 122.067 623.667 122.4 623.8V627.133L123.467 627.333V624.267C124.067 624.533 124.6 624.933 125.067 625.4L125.133 629Z"/>
</g>
<defs>
<linearGradient gradientUnits="userSpaceOnUse" y2="692" x2="298" y1="0" x1="298" id="paint0_linear_372_574">
<stop stop-color="#011C2B"/>
<stop stop-color="#045E91" offset="1"/>
</linearGradient>
<linearGradient gradientUnits="userSpaceOnUse" y2="345.999" x2="596" y1="345.999" x1="-0.00106426" id="paint1_linear_372_574">
<stop stop-color="#0D4873" offset="0.00558659"/>
<stop stop-color="#0A304B" offset="0.2882"/>
<stop stop-color="#071F2D" offset="0.5279"/>
<stop stop-color="#0C364F" offset="1"/>
</linearGradient>
<clipPath id="clip0_372_574">
<rect transform="translate(106 613)" fill="white" height="24" width="24"/>
</clipPath>
</defs>
</svg>