<svg xmlns="http://www.w3.org/2000/svg" viewBox="0 0 8.09 7.43"><defs><style>.cls-1{fill:#0d4873;}.cls-2,.cls-3{fill:#fff;}.cls-2{opacity:0.8;}.cls-3{opacity:0.9;}</style></defs><g id="Layer_2" data-name="Layer 2"><g id="Layer_1-2" data-name="Layer 1"><path class="cls-1" d="M3.34,6.23H2.93l-.23,0a2.91,2.91,0,0,1-1.62-.76A3,3,0,0,1,0,3.58c0-.08,0-.18,0-.26V2.91c0-.08,0-.14,0-.22a3,3,0,0,1,1.16-2A3,3,0,0,1,3.54,0a2.93,2.93,0,0,1,2,1.15A3.1,3.1,0,0,1,6.2,3.54a2.92,2.92,0,0,1-.75,1.63,3.09,3.09,0,0,1-1.87,1A1.15,1.15,0,0,0,3.34,6.23Zm-1-3.13V4.21c0,.07,0,.13.06.17s.12,0,.16,0C3.17,4,3.74,3.6,4.33,3.24c.12-.08.12-.18,0-.27-.59-.36-1.16-.75-1.75-1.11-.06-.05-.1-.07-.16,0A.17.17,0,0,0,2.36,2Z"/><path class="cls-2" d="M4.41,3.73l1.33,3.7L6.16,5.5Z"/><path class="cls-3" d="M4.41,3.73,8.09,5.09,6.16,5.5Z"/></g></g></svg>