<svg xmlns="http://www.w3.org/2000/svg" width="32" height="32" viewBox="0 0 32 32" id="invitation"><g><path d="M2 21.5a.49971.49971 0 00.5-.5V9.95435l12.21533 8.45678a.50037.50037 0 00.56934 0l1-.69238a.50007.50007 0 00-.56934-.82227L15 17.3916 3.60077 9.5H14a.5.5 0 000-1H2a.49971.49971 0 00-.5.5V21A.49971.49971 0 002 21.5zM28 16.5a.49971.49971 0 00-.5.5v8.5H2.5V25a.5.5 0 00-1 0v1a.49971.49971 0 00.5.5H28a.49971.49971 0 00.5-.5V17A.49971.49971 0 0028 16.5z"></path><path d="M5 22.5a.5.5 0 000 1H8a.5.5 0 000-1zM30 5.5H16a.49971.49971 0 00-.5.5v9a.49971.49971 0 00.5.5h1.5V17a.50011.50011 0 00.72363.44727L22.11816 15.5H30a.49971.49971 0 00.5-.5V6A.49971.49971 0 0030 5.5zm-.5 9H22a.50687.50687 0 00-.22363.05273L18.5 16.19141V15a.49971.49971 0 00-.5-.5H16.5v-8h13z"></path><path d="M19 9.5h8a.5.5 0 000-1H19a.5.5 0 000 1zM19 12.5h8a.5.5 0 000-1H19a.5.5 0 000 1z"></path><circle cx="2" cy="23" r=".5"></circle></g></svg>