<svg width="20" height="20" viewBox="0 0 20 20" fill="none" xmlns="http://www.w3.org/2000/svg">
<circle cx="10" cy="10" r="10" fill="#6ABB47"/>
<path d="M15.8877 12.6529C15.4233 12.8758 14.9217 13.0244 14.4016 13.0987C14.0858 13.1545 13.7701 13.173 13.4357 13.2102C13.4357 13.1359 13.4357 13.0616 13.4357 13.0059C13.4357 12.6158 13.4357 12.2257 13.3057 11.8542C13.027 11.0183 12.4698 10.4425 11.6525 10.1453C11.6153 10.1267 11.5782 10.1267 11.541 10.1081C11.9497 9.69944 12.1726 9.19791 12.1912 8.62207C12.6927 8.62207 13.1942 8.62207 13.6772 8.62207C13.8444 8.62207 14.0301 8.64065 14.1973 8.69637C15.0703 8.91928 15.7205 9.64372 15.8691 10.5353C15.8691 10.5725 15.8877 10.5911 15.8877 10.6282C15.8877 11.2784 15.8877 11.9656 15.8877 12.6529Z" fill="white"/>
<path d="M13.0095 13.3776C13.0095 13.6933 13.0095 13.9905 13.0095 14.3063C13.0095 14.3992 12.9724 14.4549 12.8981 14.4921C12.4523 14.6964 11.9879 14.8079 11.5049 14.9007C10.0746 15.1236 8.68147 14.9565 7.30689 14.5478C7.08398 14.4735 7.08398 14.4735 7.08398 14.2506C7.08398 13.6933 7.08398 13.1361 7.08398 12.5974C7.10256 11.4271 8.01275 10.4984 9.183 10.4426C9.79599 10.4241 10.409 10.4241 11.022 10.4426C11.895 10.4798 12.7123 11.2042 12.9538 12.0401C13.0467 12.3931 13.0467 12.746 13.0467 13.1175C13.0095 13.1918 13.0095 13.2847 13.0095 13.3776Z" fill="white"/>
<path d="M6.65628 13.2102C6.15475 13.1359 5.67179 13.0802 5.2074 12.9873C4.83589 12.913 4.46438 12.8016 4.09288 12.7087C4.01858 12.6901 4 12.653 4 12.5787C4 12.0028 4 11.427 4 10.8326C4.01858 9.58801 4.9845 8.62209 6.22905 8.60352C6.73058 8.60352 7.21354 8.60352 7.71508 8.60352C7.77081 8.60352 7.80796 8.60352 7.88226 8.60352C7.91941 9.17935 8.12374 9.68089 8.5324 10.0895C7.10209 10.6282 6.54483 11.7056 6.65628 13.2102Z" fill="white"/>
<path d="M8.29102 8.52929C8.29102 7.56337 9.07118 6.7832 10.0371 6.7832C10.9844 6.7832 11.7832 7.56337 11.7832 8.52929C11.7832 9.49521 11.003 10.2754 10.0371 10.2754C9.05261 10.2754 8.29102 9.49521 8.29102 8.52929Z" fill="white"/>
<path d="M5.22461 6.74647C5.22461 5.85485 5.9119 5.09326 6.78494 5.01896C7.71371 4.94465 8.51245 5.53907 8.67963 6.41211C8.69821 6.46784 8.69821 6.52356 8.69821 6.57929C8.71678 6.74647 8.69821 6.85792 8.54961 6.98795C8.19667 7.28515 7.99234 7.67524 7.89947 8.12105C7.88089 8.19535 7.84374 8.2325 7.78801 8.26965C6.63634 8.90121 5.22461 8.06532 5.22461 6.74647Z" fill="white"/>
<path d="M12.9171 5C13.8458 5 14.6074 5.72444 14.6632 6.63463C14.7003 7.58198 14.0316 8.38072 13.0843 8.4736C12.8056 8.49217 12.527 8.45502 12.2669 8.36215C12.2112 8.34357 12.1741 8.30642 12.1741 8.23212C12.0812 7.60056 11.7654 7.1176 11.2453 6.76466C11.171 6.70894 11.1896 6.67179 11.1896 6.59748C11.2453 5.70587 12.0069 5 12.9171 5Z" fill="white"/>
</svg>
