<svg width="228" height="52" viewBox="0 0 228 52" fill="none" xmlns="http://www.w3.org/2000/svg">
<path opacity="0.9" d="M81.6083 26.8346C81.7896 27.1759 81.9549 27.5332 82.1043 27.9066C82.2643 28.2692 82.4189 28.6372 82.5683 29.0106C82.7176 28.6266 82.8723 28.2479 83.0323 27.8746C83.1923 27.5012 83.3629 27.1439 83.5443 26.8026L90.3923 13.9866C90.4776 13.8266 90.5629 13.6986 90.6483 13.6026C90.7443 13.5066 90.8456 13.4372 90.9523 13.3946C91.0696 13.3519 91.1976 13.3252 91.3363 13.3146C91.4749 13.3039 91.6403 13.2986 91.8323 13.2986H95.0803V36.4346H91.2883V21.4906C91.2883 21.2132 91.2936 20.9092 91.3043 20.5786C91.3256 20.2479 91.3523 19.9119 91.3843 19.5706L84.3923 32.6906C84.2323 32.9892 84.0243 33.2239 83.7683 33.3946C83.5123 33.5546 83.2136 33.6346 82.8723 33.6346H82.2803C81.9389 33.6346 81.6403 33.5546 81.3843 33.3946C81.1283 33.2239 80.9203 32.9892 80.7603 32.6906L73.6723 19.5226C73.7149 19.8746 73.7416 20.2212 73.7523 20.5626C73.7736 20.8932 73.7843 21.2026 73.7843 21.4906V36.4346H69.9923V13.2986H73.2403C73.4323 13.2986 73.5976 13.3039 73.7363 13.3146C73.8749 13.3252 73.9976 13.3519 74.1043 13.3946C74.2216 13.4372 74.3283 13.5066 74.4243 13.6026C74.5203 13.6986 74.6109 13.8266 74.6963 13.9866L81.6083 26.8346ZM103.726 20.0186V36.4346H99.7743V20.0186H103.726ZM104.318 15.2346C104.318 15.5759 104.249 15.8959 104.11 16.1946C103.972 16.4932 103.785 16.7546 103.55 16.9786C103.326 17.2026 103.06 17.3839 102.75 17.5226C102.441 17.6506 102.11 17.7146 101.758 17.7146C101.417 17.7146 101.092 17.6506 100.782 17.5226C100.484 17.3839 100.222 17.2026 99.9983 16.9786C99.7743 16.7546 99.5929 16.4932 99.4543 16.1946C99.3263 15.8959 99.2623 15.5759 99.2623 15.2346C99.2623 14.8826 99.3263 14.5519 99.4543 14.2426C99.5929 13.9332 99.7743 13.6666 99.9983 13.4426C100.222 13.2186 100.484 13.0426 100.782 12.9146C101.092 12.7759 101.417 12.7066 101.758 12.7066C102.11 12.7066 102.441 12.7759 102.75 12.9146C103.06 13.0426 103.326 13.2186 103.55 13.4426C103.785 13.6666 103.972 13.9332 104.11 14.2426C104.249 14.5519 104.318 14.8826 104.318 15.2346ZM119.742 23.4906C119.624 23.6399 119.507 23.7572 119.39 23.8426C119.283 23.9279 119.123 23.9706 118.91 23.9706C118.707 23.9706 118.51 23.9119 118.318 23.7946C118.126 23.6666 117.896 23.5279 117.63 23.3786C117.363 23.2186 117.043 23.0799 116.67 22.9626C116.307 22.8346 115.854 22.7706 115.31 22.7706C114.616 22.7706 114.008 22.8986 113.486 23.1546C112.963 23.3999 112.526 23.7572 112.174 24.2266C111.832 24.6959 111.576 25.2666 111.406 25.9386C111.235 26.5999 111.15 27.3519 111.15 28.1946C111.15 29.0692 111.24 29.8479 111.422 30.5306C111.614 31.2132 111.886 31.7892 112.238 32.2586C112.59 32.7172 113.016 33.0692 113.518 33.3146C114.019 33.5492 114.584 33.6666 115.214 33.6666C115.843 33.6666 116.35 33.5919 116.734 33.4426C117.128 33.2826 117.459 33.1119 117.726 32.9306C117.992 32.7386 118.222 32.5679 118.414 32.4186C118.616 32.2586 118.84 32.1786 119.086 32.1786C119.406 32.1786 119.646 32.3012 119.806 32.5466L120.942 33.9866C120.504 34.4986 120.03 34.9306 119.518 35.2826C119.006 35.6239 118.472 35.9012 117.918 36.1146C117.374 36.3172 116.808 36.4612 116.222 36.5466C115.635 36.6319 115.054 36.6746 114.478 36.6746C113.464 36.6746 112.51 36.4879 111.614 36.1146C110.718 35.7306 109.934 35.1759 109.262 34.4506C108.6 33.7252 108.072 32.8399 107.678 31.7946C107.294 30.7386 107.102 29.5386 107.102 28.1946C107.102 26.9892 107.272 25.8746 107.614 24.8506C107.966 23.8159 108.478 22.9252 109.15 22.1786C109.822 21.4212 110.654 20.8292 111.646 20.4026C112.638 19.9759 113.779 19.7626 115.07 19.7626C116.296 19.7626 117.368 19.9599 118.286 20.3546C119.214 20.7492 120.046 21.3146 120.782 22.0506L119.742 23.4906ZM123.456 36.4346V20.0186H125.776C126.181 20.0186 126.464 20.0932 126.624 20.2426C126.784 20.3919 126.89 20.6479 126.944 21.0106L127.184 22.9946C127.77 21.9812 128.458 21.1812 129.248 20.5946C130.037 20.0079 130.922 19.7146 131.904 19.7146C132.714 19.7146 133.386 19.9012 133.92 20.2746L133.408 23.2346C133.376 23.4266 133.306 23.5652 133.2 23.6506C133.093 23.7252 132.949 23.7626 132.768 23.7626C132.608 23.7626 132.389 23.7252 132.112 23.6506C131.834 23.5759 131.466 23.5386 131.008 23.5386C130.186 23.5386 129.482 23.7679 128.896 24.2266C128.309 24.6746 127.813 25.3359 127.408 26.2106V36.4346H123.456ZM143.526 19.7626C144.753 19.7626 145.862 19.9599 146.854 20.3546C147.857 20.7492 148.71 21.3092 149.414 22.0346C150.118 22.7599 150.662 23.6452 151.046 24.6906C151.43 25.7359 151.622 26.9039 151.622 28.1946C151.622 29.4959 151.43 30.6692 151.046 31.7146C150.662 32.7599 150.118 33.6506 149.414 34.3866C148.71 35.1226 147.857 35.6879 146.854 36.0826C145.862 36.4772 144.753 36.6746 143.526 36.6746C142.3 36.6746 141.185 36.4772 140.182 36.0826C139.18 35.6879 138.321 35.1226 137.606 34.3866C136.902 33.6506 136.353 32.7599 135.958 31.7146C135.574 30.6692 135.382 29.4959 135.382 28.1946C135.382 26.9039 135.574 25.7359 135.958 24.6906C136.353 23.6452 136.902 22.7599 137.606 22.0346C138.321 21.3092 139.18 20.7492 140.182 20.3546C141.185 19.9599 142.3 19.7626 143.526 19.7626ZM143.526 33.6346C144.892 33.6346 145.9 33.1759 146.55 32.2586C147.212 31.3412 147.542 29.9972 147.542 28.2266C147.542 26.4559 147.212 25.1066 146.55 24.1786C145.9 23.2506 144.892 22.7866 143.526 22.7866C142.14 22.7866 141.116 23.2559 140.454 24.1946C139.793 25.1226 139.462 26.4666 139.462 28.2266C139.462 29.9866 139.793 31.3306 140.454 32.2586C141.116 33.1759 142.14 33.6346 143.526 33.6346ZM164.45 23.2186C164.343 23.3892 164.231 23.5119 164.114 23.5866C163.996 23.6506 163.847 23.6826 163.666 23.6826C163.474 23.6826 163.266 23.6292 163.042 23.5226C162.828 23.4159 162.578 23.2986 162.29 23.1706C162.002 23.0319 161.671 22.9092 161.298 22.8026C160.935 22.6959 160.503 22.6426 160.002 22.6426C159.223 22.6426 158.61 22.8079 158.162 23.1386C157.714 23.4692 157.49 23.9012 157.49 24.4346C157.49 24.7866 157.602 25.0852 157.826 25.3306C158.06 25.5652 158.364 25.7732 158.738 25.9546C159.122 26.1359 159.554 26.3012 160.034 26.4506C160.514 26.5892 161.004 26.7439 161.506 26.9146C162.007 27.0852 162.498 27.2826 162.978 27.5066C163.458 27.7199 163.884 27.9972 164.258 28.3386C164.642 28.6692 164.946 29.0692 165.17 29.5386C165.404 30.0079 165.522 30.5732 165.522 31.2346C165.522 32.0239 165.378 32.7546 165.09 33.4266C164.802 34.0879 164.38 34.6639 163.826 35.1546C163.271 35.6346 162.583 36.0132 161.762 36.2906C160.951 36.5572 160.018 36.6906 158.962 36.6906C158.396 36.6906 157.842 36.6372 157.298 36.5306C156.764 36.4346 156.247 36.2959 155.746 36.1146C155.255 35.9332 154.796 35.7199 154.37 35.4746C153.954 35.2292 153.586 34.9626 153.266 34.6746L154.178 33.1706C154.295 32.9892 154.434 32.8506 154.594 32.7546C154.754 32.6586 154.956 32.6106 155.202 32.6106C155.447 32.6106 155.676 32.6799 155.89 32.8186C156.114 32.9572 156.37 33.1066 156.658 33.2666C156.946 33.4266 157.282 33.5759 157.666 33.7146C158.06 33.8532 158.556 33.9226 159.154 33.9226C159.623 33.9226 160.023 33.8692 160.354 33.7626C160.695 33.6452 160.972 33.4959 161.186 33.3146C161.41 33.1332 161.57 32.9252 161.666 32.6906C161.772 32.4452 161.826 32.1946 161.826 31.9386C161.826 31.5546 161.708 31.2399 161.474 30.9946C161.25 30.7492 160.946 30.5359 160.562 30.3546C160.188 30.1732 159.756 30.0132 159.266 29.8746C158.786 29.7252 158.29 29.5652 157.778 29.3946C157.276 29.2239 156.78 29.0266 156.29 28.8026C155.81 28.5679 155.378 28.2746 154.994 27.9226C154.62 27.5706 154.316 27.1386 154.082 26.6266C153.858 26.1146 153.746 25.4959 153.746 24.7706C153.746 24.0986 153.879 23.4586 154.146 22.8506C154.412 22.2426 154.802 21.7146 155.314 21.2666C155.836 20.8079 156.482 20.4452 157.25 20.1786C158.028 19.9012 158.924 19.7626 159.938 19.7626C161.068 19.7626 162.098 19.9492 163.026 20.3226C163.954 20.6959 164.727 21.1866 165.346 21.7946L164.45 23.2186ZM175.683 19.7626C176.909 19.7626 178.019 19.9599 179.011 20.3546C180.013 20.7492 180.867 21.3092 181.571 22.0346C182.275 22.7599 182.819 23.6452 183.203 24.6906C183.587 25.7359 183.779 26.9039 183.779 28.1946C183.779 29.4959 183.587 30.6692 183.203 31.7146C182.819 32.7599 182.275 33.6506 181.571 34.3866C180.867 35.1226 180.013 35.6879 179.011 36.0826C178.019 36.4772 176.909 36.6746 175.683 36.6746C174.456 36.6746 173.341 36.4772 172.339 36.0826C171.336 35.6879 170.477 35.1226 169.763 34.3866C169.059 33.6506 168.509 32.7599 168.115 31.7146C167.731 30.6692 167.539 29.4959 167.539 28.1946C167.539 26.9039 167.731 25.7359 168.115 24.6906C168.509 23.6452 169.059 22.7599 169.763 22.0346C170.477 21.3092 171.336 20.7492 172.339 20.3546C173.341 19.9599 174.456 19.7626 175.683 19.7626ZM175.683 33.6346C177.048 33.6346 178.056 33.1759 178.707 32.2586C179.368 31.3412 179.699 29.9972 179.699 28.2266C179.699 26.4559 179.368 25.1066 178.707 24.1786C178.056 23.2506 177.048 22.7866 175.683 22.7866C174.296 22.7866 173.272 23.2559 172.611 24.1946C171.949 25.1226 171.619 26.4666 171.619 28.2266C171.619 29.9866 171.949 31.3306 172.611 32.2586C173.272 33.1759 174.296 33.6346 175.683 33.6346ZM187.566 36.4346V22.9946L186.142 22.7706C185.833 22.7172 185.582 22.6106 185.39 22.4506C185.209 22.2906 185.118 22.0666 185.118 21.7786V20.1626H187.566V18.9466C187.566 18.0079 187.705 17.1652 187.982 16.4186C188.27 15.6719 188.675 15.0372 189.198 14.5146C189.731 13.9919 190.377 13.5919 191.134 13.3146C191.891 13.0372 192.745 12.8986 193.694 12.8986C194.451 12.8986 195.155 12.9999 195.806 13.2026L195.726 15.1866C195.705 15.4959 195.561 15.6879 195.294 15.7626C195.027 15.8372 194.718 15.8746 194.366 15.8746C193.897 15.8746 193.475 15.9279 193.102 16.0346C192.739 16.1306 192.43 16.3066 192.174 16.5626C191.918 16.8079 191.721 17.1386 191.582 17.5546C191.454 17.9599 191.39 18.4666 191.39 19.0746V20.1626H195.662V22.9786H191.518V36.4346H187.566ZM203.473 36.6906C202.054 36.6906 200.961 36.2906 200.193 35.4906C199.425 34.6799 199.041 33.5652 199.041 32.1466V22.9786H197.377C197.163 22.9786 196.977 22.9092 196.817 22.7706C196.667 22.6319 196.593 22.4239 196.593 22.1466V20.5786L199.233 20.1466L200.065 15.6666C200.107 15.4532 200.203 15.2879 200.353 15.1706C200.513 15.0532 200.71 14.9946 200.945 14.9946H202.993V20.1626H207.313V22.9786H202.993V31.8746C202.993 32.3866 203.121 32.7866 203.377 33.0746C203.633 33.3626 203.974 33.5066 204.401 33.5066C204.646 33.5066 204.849 33.4799 205.009 33.4266C205.179 33.3626 205.323 33.2986 205.441 33.2346C205.569 33.1706 205.681 33.1119 205.777 33.0586C205.873 32.9946 205.969 32.9626 206.065 32.9626C206.182 32.9626 206.278 32.9946 206.353 33.0586C206.427 33.1119 206.507 33.1972 206.593 33.3146L207.777 35.2346C207.201 35.7146 206.539 36.0772 205.793 36.3226C205.046 36.5679 204.273 36.6906 203.473 36.6906Z" fill="white"/>
<path d="M0 0.43457H25V24.4346H0V0.43457Z" fill="#F35325"/>
<path d="M27 0.43457H52V24.4346H27V0.43457Z" fill="#81BC06"/>
<path d="M0 27.4346H25V51.4346H0V27.4346Z" fill="#05A6F0"/>
<path d="M27 27.4346H52V51.4346H27V27.4346Z" fill="#FFBA08"/>
</svg>
