<svg xmlns="http://www.w3.org/2000/svg" viewBox="0 0 590.27 408.31"><defs><style>.cls-1{fill:#f5f5ff;}.cls-2{fill:#091623;opacity:0.1;}.cls-3{fill:#51873b;}.cls-11,.cls-13,.cls-15,.cls-4,.cls-7,.cls-8{fill:none;}.cls-4,.cls-7,.cls-8{stroke:#000;}.cls-13,.cls-15,.cls-4,.cls-8{stroke-linecap:round;}.cls-11,.cls-13,.cls-4{stroke-miterlimit:10;}.cls-5{fill:#122d45;}.cls-6{fill:#b5e2a3;}.cls-15,.cls-7,.cls-8{stroke-linejoin:round;}.cls-9{fill:#245a8b;}.cls-10{fill:#ca9b7f;}.cls-11,.cls-13{stroke:#444;}.cls-12{fill:#092f4c;}.cls-14{fill:#fff;}.cls-15{stroke:#202233;stroke-width:0.78px;}.cls-16{fill:#383c67;}.cls-17{fill:#e1f3da;}.cls-18{fill:#f0f9ed;}</style></defs><g id="Layer_2" data-name="Layer 2"><g id="BACKGROUND"><ellipse class="cls-1" cx="232.75" cy="165.91" rx="232.75" ry="165.91"/><ellipse class="cls-2" cx="484.02" cy="384.85" rx="106.25" ry="14.74"/><ellipse class="cls-2" cx="261.31" cy="391.96" rx="191.95" ry="16.35"/><path class="cls-3" d="M298,102.24s-3.55,20.61-29.43,47.15c0,0-2.86-3.54,2.09-18.21S296.54,97.24,298,102.24Z"/><path class="cls-4" d="M298,102.24s-23.29,16.66-29.43,47.15c0,0-1.19,10.46,2.39,19.52"/><path class="cls-3" d="M235.41,118.89s6.54-5-4.7-17.32c-10.68-11.74-22-22.27-44.08-26.13,0,0,6.66,29.93,21.06,37.06A61.28,61.28,0,0,0,235.41,118.89Z"/><path class="cls-3" d="M181.78,140.9s23.05,5,62.15-8c0,0-2.42-4-19.89-5.4S177.23,137.54,181.78,140.9Z"/><path class="cls-4" d="M181.78,140.9s27.66-14.64,62.15-8c0,0,3.55.89,7.16,5.71"/><path class="cls-3" d="M200.89,161.78S225.56,178,264.66,165a32.54,32.54,0,0,0-25.08-15.12C222.11,148.5,196.34,158.43,200.89,161.78Z"/><path class="cls-4" d="M200.89,161.78s26.59-12.4,63.77,3.2a22.64,22.64,0,0,1,8,6.77"/><path d="M284.39,82.71s7.28-.87-10.48,15.57c-16.78,15.52-14.65,15.64-14.65,15.64S265.63,90.7,284.39,82.71Z"/><path class="cls-3" d="M247.06,121.78s5.44,2.1,15.24-6.9,13.47-29.06,22.09-32.17C284.39,82.71,262.75,89.7,247.06,121.78Z"/><path class="cls-4" d="M282.72,190.7a345,345,0,0,0-47.31-71.81s-5.13-6.72-22.95-24.14-25.83-19.31-25.83-19.31"/><path class="cls-4" d="M281.84,83.78s-20.59,9-34.78,38c-3.44,7,.67,12.59,4,16.81"/><path class="cls-3" d="M469.59,324.29s-17.21,12.7-56.86,3.38c0,0,.11-6.36,14.34-12.48S471.84,318.4,469.59,324.29Z"/><path class="cls-4" d="M468.36,323.13s-27.15-9.07-55.45,3.85c0,0-9.17,5.18-14.4,13.4"/><path class="cls-3" d="M412.21,296.35s7.85,2.39,11.26-14c3.24-15.54,5.13-30.88-4.71-51,0,0-20.32,23-17.64,38.81A61.19,61.19,0,0,0,412.21,296.35Z"/><path d="M470.54,302.48s6,4.14-18.14,4.81c-22.85.62-21.32,2.12-21.32,2.12S451.17,296.13,470.54,302.48Z"/><path class="cls-3" d="M416.72,307.28s2.71,5.16,16,4.85,29.27-13,37.8-9.65C470.54,302.48,449.66,293.49,416.72,307.28Z"/><path class="cls-4" d="M381.84,376.8a344.84,344.84,0,0,0,30.37-80.45s2.43-8.1,6.07-32.75.48-32.25.48-32.25"/><path class="cls-4" d="M467.91,301.6s-21.41-6.8-51.19,5.68c-7.22,3-9.27,7.8-12.32,16.66"/><path class="cls-5" d="M195.35,177.47A23.82,23.82,0,0,1,180.11,172L168.24,162a22.66,22.66,0,0,0-14.54-5.47H94.82a9.68,9.68,0,0,0-9.68,9.68V379.44a16.7,16.7,0,0,0,16.7,16.69H395.39a13,13,0,0,0,13-13V190.46a13,13,0,0,0-13-13Z"/><path class="cls-6" d="M408.37,384.23s-20-37.47-22-41.77L331.8,231.23a8.37,8.37,0,0,0-7.6-4.85H121.31c-7.38,0-18-3.87-23.71-8.59L89.42,211a22.68,22.68,0,0,0-14.54-5.47h-56a8.38,8.38,0,0,0-7.74,11.58L78.86,381a24.57,24.57,0,0,0,22.71,15.18H404.71a3.85,3.85,0,0,0,3.8-3.67Z"/><line class="cls-7" x1="325.85" y1="236.96" x2="405.96" y2="392.7"/><path class="cls-7" d="M292.83,263.79h-69a5.5,5.5,0,0,1-4.64-2.51h0a5.42,5.42,0,0,1,4.64-8.33h69a5.53,5.53,0,0,1,4.65,2.51h0A5.42,5.42,0,0,1,292.83,263.79Z"/><line class="cls-8" x1="163.74" y1="317.32" x2="217.47" y2="349.33"/><line class="cls-8" x1="207.67" y1="315.78" x2="173.91" y2="349.53"/><ellipse class="cls-8" cx="189.94" cy="333.07" rx="30.52" ry="40.4" transform="translate(-181.72 427.32) rotate(-74.54)"/><path class="cls-9" d="M557.48,361.68l-3,10.87s-21.92,23.77-18.69,23.77S575,381.6,575,381.6L570.4,359Z"/><path class="cls-10" d="M468.11,177.57c1.29-5.57-4.64-12.51-10.25-11.42a39.83,39.83,0,0,0-7.57,2.23c-1.44.48-12.15-.22-13.37,1.56-.89,1.29,4.7,2.79,8.27,3.14a.77.77,0,0,1,.32,1.43c-3.51,2.17-10.5,6.6-11.09,7.69-.8,1.47-4.43,7.16-3.41,7.8s4.12-2.22,6.13-4.24S445,182,445,182s-10.22,10.26-11.57,13.1c-2,4.23,3.82,2.38,3.82,2.38-.91,2.39,3.86,1.86,5,1,2.23-1.78,9.12-10.09,9.14-9.24s-7.12,9.9-6.39,12,3.61-.54,5.28-2.77,6.57-8.46,6.57-8.46a47.34,47.34,0,0,0,10.22-11.09C467.12,178.85,468.1,177.64,468.11,177.57Z"/><line class="cls-4" x1="437.53" y1="197.27" x2="447.28" y2="185.65"/><path class="cls-6" d="M394.84,144.62l35.06-21.87a5.61,5.61,0,0,0,.62-.47l11.56-11.9a5.54,5.54,0,0,1,8.26,1.1L456,120a5.52,5.52,0,0,1,.11,6L448,139.15a5.47,5.47,0,0,1-2.52,2.19c-6.55,2.8-31.56,13.36-46.48,17.58a5.53,5.53,0,0,1-7-5.81l.37-4.32A5.53,5.53,0,0,1,394.84,144.62Z"/><path class="cls-9" d="M475.59,363.2l-1.86,12.59S439,389.14,442.21,389.33s53.15-2.71,53.15-2.71l-2.93-22.87Z"/><path class="cls-11" d="M485.27,159.36s2.76,26.65,4.84,28a18.09,18.09,0,0,0,4.85,2.07L490.46,159Z"/><path class="cls-12" d="M540.13,141.05s14.08,28.67,10,44.65L472.06,175l1.63-29.79Z"/><path class="cls-13" d="M542.27,146.86s-11,20.43-32.14,22.06"/><path class="cls-13" d="M524.61,164.56s4.28,13.25,16.69,13.52"/><path class="cls-12" d="M472.06,175s-20.91,74.46-21.45,98.43l15.28,92.34s14.57,7.25,29.76,1.39c.62-.24-7.7-47.89-8.29-97L531,178.84Z"/><path class="cls-12" d="M550.47,182.58l-3.08,89.85,34.38,93.93s-14.38,12.16-32.56,1.09L511.89,278l3.83-65.08-16.26-9.85L497,174.89Z"/><polygon class="cls-14" points="490.06 166.16 506.63 178.64 530.39 152.12 472.68 160.36 486.8 179.09 490.06 166.16"/><path class="cls-13" d="M537.32,153.76s9.48,23.3,2.65,121.05c0,0,23.95,52.7,36.36,94.38"/><polyline class="cls-13" points="502.48 205.41 478.59 271.97 488.84 369.19"/><path class="cls-10" d="M398.27,157.77s.46,2.33-4.7,4.11-8.19,1.21-8.19,1.21S373.8,149.44,373.28,149s.36-5.73,3.79-7.83c2.08-1.28,10.15.8,16.16,2.63a8.78,8.78,0,0,1,6.08,9.81A19.32,19.32,0,0,1,398.27,157.77Z"/><path class="cls-10" d="M388.77,154.14s-9.46-1.37-13.46-4.67c0,0-6-1.21-7.25-.45a11.73,11.73,0,0,1-5.06,2.29c-2.75.46-1.92-1.37,1-4,.82-.74,3-3.41,4.94-3.77a81.28,81.28,0,0,0,8.16-2.45l11.19,13.37"/><path class="cls-10" d="M385.38,163.09s-3.84,2.41-5.19,2.34-2.63-.87-3-3.08c0,0-7.15,1.31-4.88-4.1,0,0-4.32-.7-4.43-3.52,0,0-3.84-1.91-3-5S377.79,147,377.79,147l12.77,6.48Z"/><path class="cls-15" d="M382.66,163.6s3.65-3.23,3.45-4.53-.89-2-1.72-1.76c-1.11.34-5.34,3.56-7.16,5"/><path class="cls-15" d="M372.35,158.25s9.71-1.52,9.8-3-.59-3.33-2.62-2.93c-2.41.48-9.32,2.14-11.61,2.09"/><path class="cls-15" d="M384.39,157.31s1.79-1.11,1.08-2.34-1.67-1.68-3.74-1.14"/><path class="cls-15" d="M367.72,150.4A12.38,12.38,0,0,1,369,149"/><path class="cls-5" d="M372.6,117.71h5.63a0,0,0,0,1,0,0v51.51a2.72,2.72,0,0,1-2.72,2.72h-.19a2.72,2.72,0,0,1-2.72-2.72V117.71A0,0,0,0,1,372.6,117.71Z" transform="translate(-22.8 202.55) rotate(-29.34)"/><path class="cls-16" d="M372.15,129.78l2.12,3.77a2,2,0,0,1-.58,2.76l-4.58,2.58a2,2,0,0,1-2.66-.94L364.23,134"/><path class="cls-5" d="M362.35,92.91C353.59,76.66,342.62,65.48,335.64,65l.23-1.55-3.65,2.38c-6.26,4.27-2.93,23.33,7.44,42.57s23.86,31.39,30.13,27.12l3.43-2.28-1-1.32C374.64,124.42,370.88,108.73,362.35,92.91Z"/><ellipse class="cls-6" cx="354.65" cy="98.26" rx="13.64" ry="39.62" transform="translate(-5.27 175.01) rotate(-27.52)"/><ellipse class="cls-17" cx="354.65" cy="98.26" rx="9.48" ry="32.23" transform="translate(-4.95 176.51) rotate(-27.76)"/><path class="cls-10" d="M388.77,154.14s-9.46-1.37-13.46-4.67c0,0-6-1.21-7.25-.45a11.73,11.73,0,0,1-5.06,2.29c-2.75.46-1.92-1.37,1-4,.82-.74,3-3.41,4.94-3.77a81.28,81.28,0,0,0,8.16-2.45l11.19,13.37"/><path class="cls-15" d="M388.77,154.14s-9.46-1.37-13.46-4.67c0,0-6-1.21-7.25-.45a11.73,11.73,0,0,1-5.06,2.29"/><path class="cls-16" d="M362.54,92.89c-8.45-15.66-18.82-25.95-23.17-23a3.3,3.3,0,0,0-.89.93c5,.31,13.84,9.87,21.18,23.49,7.78,14.43,11.2,28.37,8.29,32.8a3.13,3.13,0,0,0,2-.5C374.29,123.66,371,108.56,362.54,92.89Z"/><ellipse class="cls-18" cx="352.46" cy="89.61" rx="5.04" ry="17.15" transform="translate(-1.17 174.49) rotate(-27.76)"/><path class="cls-6" d="M524.59,113.57l-7-24.85a70.47,70.47,0,0,0-13-25c-10.49-13.1-38-11.91-38-11.91L445.43,67.1l-.19.11c-12.48,6.88-14.78,17.51-14.45,33.88l.77,22.11,14.35-13.7,3.62,5c0-.15,0-.28,0-.41l1.72,2.7-1.68-2.29c.51,4.56,2.89,16.18,14,21.61l6.3,9.91-1.67,13.7C527.25,181.2,542,139,542,139Z"/><path class="cls-4" d="M442.88,107.22l7.74,9.47s-1.06,14.59,13.65,19.27"/><path class="cls-6" d="M501.64,126.49l-45,39.22s8.91,12.48,12.92,12.92l53.92-34.31"/><path class="cls-4" d="M470,153.68s24.51-27.63,33-31.64"/><path class="cls-4" d="M490,96.69s1.17,6.19,9,27.91"/><path class="cls-4" d="M475.8,175.07s50.35-32.09,50.8-41.45-12.7-52.8-12.7-52.8"/><path class="cls-4" d="M481.31,129.61s12.12,1.14,15.88-9.86"/><path class="cls-4" d="M432.23,121.42a4.41,4.41,0,0,1,6.69.45"/><path class="cls-14" d="M392.58,143.48l7.13-3.34s8.69,9.47,5.57,17.6l-8.69,2.57S400.6,151.39,392.58,143.48Z"/><path class="cls-14" d="M459.48,160.7s9.36,4,16,15.54l-7.19,5.51s-8.85-12.7-15-14.7Z"/><path class="cls-14" d="M451.62,50.4l29.53,2.18s1.11,16.24-16.71,30.56l-8-7.78-4.36,9.47s-6.78-3.81-7.69-14.75l1.44-13.28Z"/><path class="cls-10" d="M466.63,51.85A4,4,0,0,1,468,55.57c-1,5.29-3.82,18.08-9.56,19.69-7.27,2-11.8-12.32-11.8-12.32l3.62-25.07Z"/><path d="M443.61,57.79l-.09,3.65c-.07,0-1.31,10.81,2.31,11.23,15.13-2.74,16.09-17.09,17.38-31.33C463.21,41.34,442.14,55,443.61,57.79Z"/><path class="cls-10" d="M418.41,30.91s-3.69,35.15,18.15,41.2,27.07-29.56,26.31-41.87-6.24-16.9-21.54-17.45C418.69,12,418.41,30.91,418.41,30.91Z"/><path d="M438,47.9c.06,1.26-.54,2.32-1.34,2.36s-1.51-.95-1.57-2.21.54-2.33,1.34-2.37S438,46.63,438,47.9Z"/><path class="cls-4" d="M440.43,41.42s-7.22,3.14-7.92-2.31"/><path class="cls-4" d="M423.75,41.44s-2.38,4.13-5.12,2.3"/><path class="cls-4" d="M419.92,48.78a4.64,4.64,0,0,1,3.36.62"/><path class="cls-4" d="M441.3,61.9a10.7,10.7,0,0,1,3.59-2.31"/><path class="cls-4" d="M426.54,52.83a3.14,3.14,0,0,0,1.94,4.22"/><path d="M418.16,38.47s.37-10.29,4.93-16.11c0,0,6.27,14.25,33.29,17.16l7.86-1.65s3.22-16.5-8.06-23S427.62,12,422.06,17.8A18.45,18.45,0,0,0,418.16,38.47Z"/><polygon points="451.13 37.64 455.81 46.88 459.11 36.5 451.13 37.64"/><ellipse class="cls-10" cx="461.27" cy="44.27" rx="9.22" ry="6.41" transform="translate(293.21 476.12) rotate(-74.22)"/><path class="cls-8" d="M464,41.64s-3.85-3.31-6,2.74c0,0,2.24,2.39.83,4.26a3.1,3.1,0,0,0,3.3-1.45"/><path class="cls-8" d="M462.37,44a5.9,5.9,0,0,0-1.71-2.87"/><path class="cls-14" d="M464.24,53a3.34,3.34,0,1,1-3.33-3.33A3.34,3.34,0,0,1,464.24,53Z"/><path d="M454.89,19.17S459-2.26,468.57,1.84s13.91,24.63,4.79,26.22a25.22,25.22,0,0,1-16.19-2.73Z"/><path class="cls-4" d="M455,25.33s15.84,13.22,21,1"/><line class="cls-13" x1="514.89" y1="212.42" x2="496.55" y2="202.07"/><path class="cls-6" d="M98.52,76.47a38.49,38.49,0,0,1,25.93,65.92,4.82,4.82,0,0,0-1.38,4.23l2.85,16.87-17.54-10.22a4.74,4.74,0,0,0-3.31-.57,38.5,38.5,0,1,1-6.55-76.23Z"/><path d="M95.69,128.29l-.11-9.21a19.17,19.17,0,0,0,3.68-1.28,14,14,0,0,0,2.91-1.82,10.69,10.69,0,0,0,2.1-2.32,10.29,10.29,0,0,0,1.28-2.75,10.85,10.85,0,0,0,.43-3.1,9,9,0,0,0-1.14-4.42,8.9,8.9,0,0,0-3.27-3.35,9.65,9.65,0,0,0-5.06-1.28,10.61,10.61,0,0,0-5.86,1.75,10.84,10.84,0,0,0-4.11,5.93l-1-.65a11.5,11.5,0,0,1,4.19-6.1,11.12,11.12,0,0,1,6.7-2.12,11.32,11.32,0,0,1,5.64,1.36,10,10,0,0,1,3.78,3.67,10.08,10.08,0,0,1,1.37,5.21,11.24,11.24,0,0,1-.74,4.08,12.25,12.25,0,0,1-2.07,3.49,13.41,13.41,0,0,1-3.24,2.75,15.31,15.31,0,0,1-4.3,1.77l-.11,8.39ZM95,135.15a1.76,1.76,0,0,1,.39-1.17,1.26,1.26,0,0,1,1-.47,1.28,1.28,0,0,1,1.09.44,1.94,1.94,0,0,1,.33,1.2,1.87,1.87,0,0,1-.36,1.14,1.21,1.21,0,0,1-1.06.49,1.28,1.28,0,0,1-1.06-.43A1.83,1.83,0,0,1,95,135.15Z"/></g></g></svg>