<svg xmlns="http://www.w3.org/2000/svg" xmlns:xlink="http://www.w3.org/1999/xlink" viewBox="0 0 212.55 325.88"><defs><style>.cls-1{fill:#bfbeed;}.cls-2{fill:#f4f4fa;}.cls-3{fill:#0c4066;}.cls-4{fill:#ffb700;}.cls-5{fill:#ffde38;}.cls-6{isolation:isolate;}.cls-7{clip-path:url(#clip-path);}.cls-8{clip-path:url(#clip-path-2);}.cls-9{fill:#f9d5c3;}.cls-10{fill:#dadaf9;}.cls-11{clip-path:url(#clip-path-3);}.cls-12{fill:#7f89a6;}.cls-13{fill:#ffbfa2;}.cls-14{fill:#d3d3f5;}.cls-15{fill:#302534;}.cls-16{fill:#e3e2f2;}.cls-17{fill:#19121b;}.cls-18{fill:#3e3544;}.cls-19,.cls-21{fill:#7999b1;}.cls-19,.cls-20{opacity:0.2;}.cls-22{clip-path:url(#clip-path-4);}.cls-23{fill:#55833d;}.cls-24{clip-path:url(#clip-path-5);}.cls-25{clip-path:url(#clip-path-6);}.cls-26{fill:#f3f2fc;}.cls-27{fill:#7fc45b;}.cls-28{fill:#5e85a2;}.cls-29{fill:#fff;}.cls-30{fill:#285c83;}.cls-31{clip-path:url(#clip-path-7);}.cls-32{clip-path:url(#clip-path-8);}.cls-33{clip-path:url(#clip-path-9);}.cls-34{fill:#ffc400;}.cls-35{fill:#262028;}</style><clipPath id="clip-path"><path class="cls-1" d="M3.08,274.31l7.29,4.24c-1.53-.89-2.49-2.79-2.5-5.5L.58,268.82C.59,271.52,1.54,273.42,3.08,274.31Z"/></clipPath><clipPath id="clip-path-2"><path class="cls-2" d="M104.73,4.82,97.43.58c-1.55-.91-3.71-.78-6.09.59l7.29,4.24C101,4,103.17,3.91,104.73,4.82Z"/></clipPath><clipPath id="clip-path-3"><path class="cls-3" d="M156.72,194.29l3.54,2.06a.94.94,0,0,0-1,.09l-3.55-2.06A1,1,0,0,1,156.72,194.29Z"/></clipPath><clipPath id="clip-path-4"><path class="cls-2" d="M174.6,17l2.13,1.23c-1.52-.88-3.62-.75-5.94.59l-2.12-1.24C171,16.23,173.08,16.11,174.6,17Z"/></clipPath><clipPath id="clip-path-5"><path class="cls-1" d="M45.18,205.29l-2.13-1.24c-1.49-.87-2.42-2.72-2.43-5.34l2.13,1.23C42.76,202.57,43.69,204.42,45.18,205.29Z"/></clipPath><clipPath id="clip-path-6"><path class="cls-2" d="M42.47,102.49l-2.12-1.24c0-5.29,3.7-11.73,8.31-14.39l2.13,1.23C46.18,90.75,42.46,97.2,42.47,102.49Z"/></clipPath><clipPath id="clip-path-7"><path class="cls-4" d="M5,312.61l21.23,12.31c-2.56-1.49-4.15-4.65-4.16-9.12L.88,303.5C.89,308,2.48,311.12,5,312.61Z"/></clipPath><clipPath id="clip-path-8"><path class="cls-5" d="M94.71,206.61,73.48,194.3c-2.59-1.51-6.18-1.3-10.12,1l21.23,12.31C88.53,205.3,92.12,205.1,94.71,206.61Z"/></clipPath><clipPath id="clip-path-9"><path class="cls-5" d="M36.15,235.54l-21.22-12.3C7.09,227.76.69,238.84.72,247.84L22,260.15C21.92,251.14,28.32,240.07,36.15,235.54Z"/></clipPath></defs><g id="Layer_2" data-name="Layer 2"><g id="Layer_1-2" data-name="Layer 1"><path class="cls-2" d="M6.42,50.51l3.2,1.85-3.2-1.85A13.66,13.66,0,0,1,8.54,49L91.34,1.17l7.29,4.24L15.83,53.22a13.59,13.59,0,0,0-2.12,1.52A19.47,19.47,0,0,0,10,59.17L2.74,54.93A19.2,19.2,0,0,1,6.42,50.51Z"/><path class="cls-2" d="M15.83,53.22,8.54,49C3.81,51.71,0,58.33,0,63.77L7.29,68C7.28,62.57,11.1,56,15.83,53.22Z"/><g class="cls-6"><g class="cls-6"><g class="cls-6"><path class="cls-1" d="M100.93,227.84l-1.66,2.31c4.73-2.73,8.55-9.36,8.54-14.79L106.62,218A12.53,12.53,0,0,1,100.93,227.84Z"/></g></g><polygon class="cls-1" points="18.13 275.64 16.47 277.95 99.27 230.15 100.93 227.84 18.13 275.64"/><g class="cls-6"><g class="cls-6"><path class="cls-2" d="M12.49,273.47,8,274.69a5.37,5.37,0,0,0,2.13,3.71l3.77-2.46A3.62,3.62,0,0,1,12.49,273.47Z"/><path class="cls-1" d="M13.91,275.94l-3.77,2.46c1.57,1.06,3.82,1,6.33-.45l1.66-2.31C16.46,276.61,15,276.65,13.91,275.94Z"/></g></g><g class="cls-6"><path class="cls-1" d="M3.08,274.31l7.29,4.24c-1.53-.89-2.49-2.79-2.5-5.5L.58,268.82C.59,271.52,1.54,273.42,3.08,274.31Z"/><g class="cls-7"><g class="cls-6"><path class="cls-1" d="M7.87,273.05.58,268.82c0,2.7,1,4.6,2.5,5.49l7.29,4.24C8.84,277.66,7.88,275.76,7.87,273.05Z"/></g></g></g><polygon class="cls-1" points="106.62 217.98 107.81 215.36 107.23 10.31 106.04 12.93 106.62 217.98"/><g class="cls-6"><g class="cls-6"><path class="cls-1" d="M106,12.93l1.19-2.62A9.22,9.22,0,0,0,106.94,8l-1.08,3.4A6.17,6.17,0,0,1,106,12.93Z"/><path class="cls-2" d="M105.86,11.38,106.94,8a4.85,4.85,0,0,0-2.47-3.3l-.26,4.5A3.26,3.26,0,0,1,105.86,11.38Z"/><path class="cls-2" d="M104.21,9.18l.26-4.5a5.25,5.25,0,0,0-3.89-.14l1,4.55A3.48,3.48,0,0,1,104.21,9.18Z"/><path class="cls-2" d="M101.61,9.09l-1-4.55a10.28,10.28,0,0,0-2,.87l1.68,4.26A5.85,5.85,0,0,1,101.61,9.09Z"/></g></g><g class="cls-6"><path class="cls-2" d="M104.73,4.82,97.43.58c-1.55-.91-3.71-.78-6.09.59l7.29,4.24C101,4,103.17,3.91,104.73,4.82Z"/><g class="cls-8"><g class="cls-6"><path class="cls-2" d="M104.73,4.82,97.43.58A4.78,4.78,0,0,0,94,.12l7.3,4.24A4.79,4.79,0,0,1,104.73,4.82Z"/><path class="cls-2" d="M101.32,4.36,94,.12a9,9,0,0,0-2.68,1l7.29,4.24A8.68,8.68,0,0,1,101.32,4.36Z"/></g></g></g><path class="cls-2" d="M11.82,67.33l.58,205.05a6.24,6.24,0,0,0,.09,1.09L8,274.69a10.44,10.44,0,0,1-.14-1.64L7.29,68Z"/><polygon class="cls-1" points="7.29 68.01 0 63.77 0.58 268.82 7.87 273.05 7.29 68.01"/><polygon class="cls-2" points="100.31 9.67 98.63 5.41 15.83 53.22 17.51 57.47 100.31 9.67"/><path class="cls-2" d="M17.51,57.47a12.56,12.56,0,0,0-5.69,9.86l.58,205.05c0,3.62,2.58,5.08,5.73,3.26l82.8-47.8a12.53,12.53,0,0,0,5.69-9.86l-.58-205c0-3.62-2.58-5.09-5.73-3.26Z"/><g class="cls-6"><g class="cls-6"><path class="cls-2" d="M17.51,57.47l-1.68-4.25c-3.71,2.14-6.85,6.67-8,11.14l4.36.54A12.72,12.72,0,0,1,17.51,57.47Z"/><path class="cls-2" d="M12.15,64.9l-4.36-.54A14.7,14.7,0,0,0,7.29,68l4.53-.68A10,10,0,0,1,12.15,64.9Z"/></g></g><g class="cls-6"><g class="cls-6"><path class="cls-2" d="M10,59.17,2.74,54.93A19.26,19.26,0,0,0,.28,61.09l7.29,4.24A19.49,19.49,0,0,1,10,59.17Z"/><path class="cls-1" d="M7.57,65.33.28,61.09A13.13,13.13,0,0,0,0,63.77L7.29,68A13.87,13.87,0,0,1,7.57,65.33Z"/></g></g></g><path class="cls-3" d="M12.21,266a5.06,5.06,0,0,0,.65,2.65c1,1.56,2.88,1.89,5.08.61,0,0,83.65-48.34,84.05-48.68a12.67,12.67,0,0,0,4.44-9l-.58-198.72c0-3.62-2.58-5.08-5.73-3.26l-82.8,47.8A12.71,12.71,0,0,0,12,64.73a11,11,0,0,0-.32,1.55C11.65,66.63,12.21,266,12.21,266Z"/><path class="cls-2" d="M41.62,55.25l35.2-20.32a11.41,11.41,0,0,0,4.65-6l3.79-11.2L33.18,47.77,37,54.58C37.84,56.13,39.64,56.39,41.62,55.25Z"/><g class="cls-6"><path class="cls-2" d="M45.51,46.75a8.5,8.5,0,0,1-4,6.55,3.24,3.24,0,0,1-1.58.45,1.53,1.53,0,0,1-1.05-.41,2.69,2.69,0,0,1-.62-2,8.53,8.53,0,0,1,4-6.56,3.32,3.32,0,0,1,1.58-.45,1.54,1.54,0,0,1,.63.14C45.16,44.78,45.53,45.59,45.51,46.75Z"/><path class="cls-1" d="M45.09,46.47a8.46,8.46,0,0,1-4,6.55,3.27,3.27,0,0,1-1.59.45,1.61,1.61,0,0,1-.63-.13,2.69,2.69,0,0,1-.62-2,8.53,8.53,0,0,1,4-6.56,3.32,3.32,0,0,1,1.58-.45,1.54,1.54,0,0,1,.63.14A2.62,2.62,0,0,1,45.09,46.47Z"/><path class="cls-3" d="M39.51,53.13a1.23,1.23,0,0,1-.44-.09,2.39,2.39,0,0,1-.47-1.69,8.07,8.07,0,0,1,3.83-6.25,2.86,2.86,0,0,1,1.4-.41,1.23,1.23,0,0,1,.44.08,2.34,2.34,0,0,1,.48,1.69,8.09,8.09,0,0,1-3.83,6.26A2.89,2.89,0,0,1,39.51,53.13Z"/><path class="cls-3" d="M42.2,46.23a1,1,0,0,1-.48.78c-.26.14-.46,0-.45-.27a1,1,0,0,1,.48-.78C42,45.82,42.2,45.94,42.2,46.23Z"/><path class="cls-3" d="M41.07,46.91a.77.77,0,0,1-.19.81c-.22.27-.5.33-.63.15a.78.78,0,0,1,.19-.81C40.67,46.79,41,46.72,41.07,46.91Z"/><path class="cls-3" d="M40.11,48.12c.21,0,.28.3.15.62s-.42.57-.64.54-.29-.3-.15-.63S39.89,48.09,40.11,48.12Z"/><path class="cls-3" d="M39.56,49.54c.26-.14.46,0,.45.27a1,1,0,0,1-.48.78c-.25.14-.45,0-.45-.27A1,1,0,0,1,39.56,49.54Z"/><path class="cls-3" d="M39.58,50.79c.23-.27.51-.34.63-.15a.77.77,0,0,1-.19.81c-.22.27-.5.33-.63.15A.78.78,0,0,1,39.58,50.79Z"/><path class="cls-3" d="M40.16,51.54c.14-.33.42-.57.64-.54s.29.3.15.63-.42.56-.64.53S40,51.86,40.16,51.54Z"/><path class="cls-3" d="M41.15,51.58a1,1,0,0,1,.48-.78c.25-.14.45,0,.45.27a1,1,0,0,1-.48.78C41.34,52,41.14,51.87,41.15,51.58Z"/><path class="cls-3" d="M42.28,50.91a.77.77,0,0,1,.18-.82c.23-.26.51-.33.63-.15a.76.76,0,0,1-.19.81C42.68,51,42.4,51.09,42.28,50.91Z"/><path class="cls-3" d="M43.24,49.7c-.22,0-.29-.31-.15-.63s.42-.56.64-.54.28.31.15.63S43.46,49.72,43.24,49.7Z"/><path class="cls-3" d="M43.79,48.28c-.26.14-.46,0-.45-.28a1,1,0,0,1,.47-.78c.26-.14.46,0,.45.28A1,1,0,0,1,43.79,48.28Z"/><path class="cls-3" d="M43.76,47c-.22.27-.5.34-.62.16a.78.78,0,0,1,.19-.82c.22-.26.5-.33.62-.15A.76.76,0,0,1,43.76,47Z"/><path class="cls-3" d="M43.18,46.28c-.13.32-.42.56-.63.53s-.29-.3-.16-.62.42-.57.64-.54S43.32,46,43.18,46.28Z"/><path class="cls-3" d="M42.76,48.32a2.37,2.37,0,0,1-1.12,1.82c-.6.33-1.07,0-1-.64a2.39,2.39,0,0,1,1.11-1.83C42.3,47.35,42.77,47.63,42.76,48.32Z"/></g><g class="cls-6"><path class="cls-2" d="M57,40.07a8.46,8.46,0,0,1-4,6.55,3.24,3.24,0,0,1-1.58.45,1.47,1.47,0,0,1-1-.42,2.62,2.62,0,0,1-.62-2,8.47,8.47,0,0,1,4-6.55,3.21,3.21,0,0,1,1.58-.45,1.62,1.62,0,0,1,.63.14C56.64,38.1,57,38.9,57,40.07Z"/><path class="cls-1" d="M56.58,39.79a8.45,8.45,0,0,1-4,6.55,3.21,3.21,0,0,1-1.58.45,1.62,1.62,0,0,1-.63-.14,2.62,2.62,0,0,1-.62-2,8.47,8.47,0,0,1,4-6.55,3.21,3.21,0,0,1,1.58-.45,1.62,1.62,0,0,1,.63.14A2.62,2.62,0,0,1,56.58,39.79Z"/><path class="cls-3" d="M51,46.45a1.49,1.49,0,0,1-.44-.09,2.39,2.39,0,0,1-.47-1.69,8.11,8.11,0,0,1,3.82-6.26A3,3,0,0,1,55.32,38a1.49,1.49,0,0,1,.44.09,2.39,2.39,0,0,1,.48,1.69A8.09,8.09,0,0,1,52.41,46,3,3,0,0,1,51,46.45Z"/><path class="cls-3" d="M53.69,39.55a1,1,0,0,1-.48.78c-.26.14-.46,0-.45-.27a1,1,0,0,1,.48-.78C53.49,39.14,53.69,39.26,53.69,39.55Z"/><path class="cls-3" d="M52.56,40.23a.77.77,0,0,1-.19.81c-.22.26-.51.33-.63.15a.78.78,0,0,1,.19-.81C52.16,40.11,52.44,40,52.56,40.23Z"/><path class="cls-3" d="M51.59,41.43c.22,0,.29.31.15.63s-.41.57-.63.54-.29-.31-.15-.63S51.38,41.41,51.59,41.43Z"/><path class="cls-3" d="M51.05,42.86c.25-.14.46,0,.45.27a1,1,0,0,1-.48.78c-.25.14-.46,0-.45-.28A1,1,0,0,1,51.05,42.86Z"/><path class="cls-3" d="M51.07,44.11c.22-.27.51-.34.63-.15a.77.77,0,0,1-.19.81c-.23.26-.51.33-.63.15A.76.76,0,0,1,51.07,44.11Z"/><path class="cls-3" d="M51.65,44.85c.14-.32.42-.56.64-.53s.28.3.15.62-.42.57-.64.54S51.52,45.18,51.65,44.85Z"/><path class="cls-3" d="M52.64,44.9a1,1,0,0,1,.47-.78c.26-.14.46,0,.45.27a1,1,0,0,1-.47.78C52.83,45.31,52.63,45.19,52.64,44.9Z"/><path class="cls-3" d="M53.76,44.22a.79.79,0,0,1,.19-.81c.23-.26.51-.33.63-.15a.76.76,0,0,1-.19.81C54.17,44.34,53.89,44.41,53.76,44.22Z"/><path class="cls-3" d="M54.73,43c-.22,0-.29-.31-.15-.63s.42-.57.64-.54.28.31.15.63S55,43,54.73,43Z"/><path class="cls-3" d="M55.27,41.6c-.25.13-.45,0-.45-.28a1,1,0,0,1,.48-.78c.26-.14.46,0,.45.28A1,1,0,0,1,55.27,41.6Z"/><path class="cls-3" d="M55.25,40.34c-.22.27-.5.34-.62.16a.77.77,0,0,1,.18-.82c.23-.26.51-.33.63-.15A.76.76,0,0,1,55.25,40.34Z"/><path class="cls-3" d="M54.67,39.6c-.13.32-.42.56-.64.53s-.28-.3-.15-.62.42-.57.64-.54S54.81,39.27,54.67,39.6Z"/><path class="cls-3" d="M54.25,41.64a2.37,2.37,0,0,1-1.12,1.82c-.6.33-1.07,0-1.05-.64A2.34,2.34,0,0,1,53.19,41C53.79,40.66,54.26,41,54.25,41.64Z"/></g><path class="cls-3" d="M62.69,38.15l4.37-2.52a3.31,3.31,0,0,0,1.48-2.57c0-.94-.67-1.33-1.48-.86l-4.37,2.53A3.27,3.27,0,0,0,61.2,37.3C61.2,38.24,61.87,38.62,62.69,38.15Z"/><g id="man"><path class="cls-9" d="M119.2,196.17a.57.57,0,0,1,.54,0,1.57,1.57,0,0,1,.45.31,44.9,44.9,0,0,1,3.85,4l-.1-.06c.17.18.32.37.47.56l.08.12a2.83,2.83,0,0,1,1.39.7,2.2,2.2,0,0,1,.46.93,15.56,15.56,0,0,1,.29,2.8,1.07,1.07,0,0,1-.59.63s0,0-.06-.05l0,.05a3.94,3.94,0,0,0-1,1.1c-.2.34-.6.27-1,.39-1.52-1.86-3.44-2.85-4.57-4.93a1.26,1.26,0,0,1-.2-.83.55.55,0,0,1,.67-.43.67.67,0,0,1,.15-.81.85.85,0,0,1,.88-.13.57.57,0,0,1,.33-.66.8.8,0,0,1,.38-.1,22.86,22.86,0,0,1-2.06-2.25c-.23-.29-.6-.65-.52-1A.44.44,0,0,1,119.2,196.17Z"/><g id="man-2" data-name="man"><path class="cls-1" d="M164,301.41c-.1-.33-.31-.51-.91-.56l-2.12-.13-2.87-.18c0-.78.07-1.57.15-2.34a4,4,0,0,1-2.55-.44c-1.15-.42-2.31-.8-3.49-1.15a3.39,3.39,0,0,0-1.54-.18c-1.29.27-2,2.4-1.83,3.52a3.24,3.24,0,0,0,1.29,1.95,7.78,7.78,0,0,0,3.46,1.53,7.15,7.15,0,0,1,3.46,1.39c1.33,1,2.28,2.14,4,2.26a2.87,2.87,0,0,0,3.3-2.77,9.08,9.08,0,0,0-.21-1.94A7.9,7.9,0,0,0,164,301.41Z"/><path class="cls-1" d="M155,304.61c0-.14,0-.28,0-.42a9.17,9.17,0,0,0-1-4,3.08,3.08,0,0,0-.82-1.34c-.95-.75-2.45-.09-3,1-.28.49-.44,1-.69,1.54a3.53,3.53,0,0,1-2.58,2.14c-1.55.07-3.29-.46-4.86-.55a4.09,4.09,0,0,0-1.81.17c-1.33.54-1.72,2.7-1.24,3.9a3.24,3.24,0,0,0,1.69,1.63,7.9,7.9,0,0,0,3.71.72,7.06,7.06,0,0,1,3.68.59c2,.95,4.37,2.32,6.41.46a3,3,0,0,0,.88-2A38.24,38.24,0,0,0,155,304.61Z"/></g><path class="cls-3" d="M160.89,245c-.95,1-4.66-.71-4.72-1.19-4.45-3.28-3.61,10.22-2.22,15.56.74,2.88.64,5.9,1.11,8.83a66.43,66.43,0,0,0,2.31,9.65,4.53,4.53,0,0,0,1,1.89c1,1.05,2.75.91,4.2.63,1.25-.23,2.65-.63,3.25-1.76a4.72,4.72,0,0,0,.31-2.31,30.44,30.44,0,0,1,.23-6.26c.39-2.19.78-4.37,1.16-6.56.34-1.91.68-3.83.83-5.76a41.75,41.75,0,0,0-.74-10.46c-.33-1.81.19-5.22-2.4-5.52C162.84,241.49,161.52,244.36,160.89,245Z"/><path class="cls-3" d="M156.09,275.2l-.72-3A31.23,31.23,0,0,1,156.09,275.2Z"/><path class="cls-3" d="M157.86,276.72c.72-1.05,2.58-1,3.2-.78s4-1.92,5-2.73a5.08,5.08,0,0,0,.1,1.05l.09,1.07.15,2.14c.08,1.39.16,2.78.16,4.17a106,106,0,0,1-2,19.88A3.07,3.07,0,0,1,164,303c-.47.56-1.8,1.13-3.74.84a3.34,3.34,0,0,1-2.68-2.21,8.4,8.4,0,0,1-.22-3.28c.27-4.36.56-8.68.46-13a55.51,55.51,0,0,0-1.1-10.46Z"/><path class="cls-3" d="M145.78,254.81a95.62,95.62,0,0,0,.15,12.78q.31,3.86.93,7.65c.21,1.27.44,2.53.7,3.79a2.8,2.8,0,0,0,1.48,2.25c2.13,1.42,6,1.34,7.64-1.07,1.73-2.59,1.15-6.71,1.76-9.66.88-4.29,3.83-7.37,5.25-11.43a15.11,15.11,0,0,0,.82-4.31Z"/><path class="cls-10" d="M169,234.58c.1-.76.21-1.51.34-2.27.64-3.61,1.72-7.14,2.17-10.78.35-2.83.61-6.36-1.64-8.55a5.81,5.81,0,0,0-1.23-.9c-4.36-2.46-8.53.54-12.62,2a38.46,38.46,0,0,0-7.67,3.77,6.92,6.92,0,0,0-2.26,1.74,5.67,5.67,0,0,0-1,2.9,16.34,16.34,0,0,0,.35,3.62,74,74,0,0,1,.85,21.11c-.36,3-.72,11.28-.72,11.28,1,.43,1.65.85,6.53.93,10.06.18,15.63-2.36,16.21-2.88s.37-1.76.39-2.49c.07-2.19,0-4.38,0-6.57A87.1,87.1,0,0,1,169,234.58Z"/><path class="cls-3" d="M147.66,281c.13,2.21.25,4.43.35,6.64.07,1.75.14,3.5.19,5.25,0,1.35.06,2.69.07,4,.06,7.38-.76,9,2.7,10.07a4.7,4.7,0,0,0,2.38.14c2.28-.5,2.73-2.48,3.07-4.94.19-1.38.3-3.05.39-4.45.06-1.18.12-2.37.17-3.55.07-1.61.13-3.21.19-4.82l.21-6.34c.09-2.71.39-5.46.48-8.17a1.3,1.3,0,0,0-.53-1c-.4-.28-8.63,2.49-9.48,3.39A11,11,0,0,0,147.66,281Z"/><path class="cls-2" d="M147.14,216.12c-2.68-.39-9.08-1.61-10.48-2.46-3.67-2.23-7.56-6.73-9.18-8.91-.55-.74-5.08,2.18-5.1,2.83s3.52,6,4.08,6.85c2.82,4.13,5.53,6.38,6.47,6.89,2.49,1.37,12.38,5.45,13,5.59,1.77.4,4.91-1.34,5.62-2.6C156.11,216.29,148.22,216.28,147.14,216.12Z"/><path class="cls-9" d="M154.89,210.54c-.16-1.09-1-.83-.56-1.81a5.25,5.25,0,0,1,1.59-2.15,3.81,3.81,0,0,1,2.52-.83c.31,0,.52.19.83.19a18.09,18.09,0,0,1,2.55,0c.85.12,1.63.18,1.63,1.13a11.58,11.58,0,0,0,.35,3.75,9.66,9.66,0,0,1,.6,2,3.52,3.52,0,0,1-2.13,3.26,8.31,8.31,0,0,1-4.88.43c-.82-.11-2-.28-2.45-1.05a3.11,3.11,0,0,1-.12-2A11.27,11.27,0,0,0,154.89,210.54Z"/><g class="cls-6"><g class="cls-6"><path class="cls-3" d="M156.72,194.29l3.54,2.06a.94.94,0,0,0-1,.09l-3.55-2.06A1,1,0,0,1,156.72,194.29Z"/><g class="cls-11"><g class="cls-6"><path class="cls-12" d="M159.29,196.44l-3.55-2.06a1,1,0,0,1,1-.09l3.54,2.06A.94.94,0,0,0,159.29,196.44Z"/></g></g></g></g><path class="cls-9" d="M151.24,196.72a4.42,4.42,0,0,0-1,2.15c-.27,1.84.47,3.73.07,5.55s.37,5.78,3.85,6.81a12.34,12.34,0,0,0,6.36-.63,9,9,0,0,0,3.38-3.58C171.14,195.47,156.17,190.71,151.24,196.72Z"/><path class="cls-3" d="M167.18,201.84c-.05.34-.1.69-.16,1a6.49,6.49,0,0,1-.19.76,4.35,4.35,0,0,1-.25.63,12.79,12.79,0,0,1-1.32,2.18,7,7,0,0,1-2.46,2.47,6.18,6.18,0,0,1-1.46.45c-1.37.31-3.41.37-4.46-.77a3.42,3.42,0,0,1-.75-1.9,12.54,12.54,0,0,0-.29-1.89c0-.16-.08-.32-.13-.48a3.82,3.82,0,0,0-.31-.75,1.75,1.75,0,0,0-1-.85c-.72-.22-1.58.19-2.21-.23a1.9,1.9,0,0,1-.63-.95c-.15-.35-.28-.75-.42-1.14a5.46,5.46,0,0,0-.74-1.42,5.34,5.34,0,0,1-.5-.65,2.24,2.24,0,0,1-.41-1c-.07-1.69,1.32-3.36,2.49-4.44a7.74,7.74,0,0,1,2.11-1.44,9.06,9.06,0,0,1,2.18-.55,10.37,10.37,0,0,1,6.49.82,2.8,2.8,0,0,1,1.26,1.19,1.45,1.45,0,0,0,.18.35,1.37,1.37,0,0,0,.45.28,4.22,4.22,0,0,1,1.31.92C167.77,196.28,167.51,199.4,167.18,201.84Z"/><path class="cls-9" d="M155.22,201.92c1.39-.12,1.78,1.61.84,3a6.63,6.63,0,0,1-1.12,1.06c-2.47,2.18-3.13-.12-2.35-.86C154.41,203.38,153.46,202.07,155.22,201.92Z"/><path class="cls-13" d="M154.84,204.56c.16-.15,1.74-1.12.64-1.74a.48.48,0,0,0-.67.42c0,.16,0,.33,0,.5a.63.63,0,0,1-.1.27c-.14.24-.62.46-.52.8S154.75,204.65,154.84,204.56Z"/></g><path class="cls-9" d="M147.4,174.69a.57.57,0,0,1-.25-.46c0-.26.38-.38.6-.41a2.1,2.1,0,0,1,1.07.19c.43.18.84.44,1.29.58a.75.75,0,0,0,.39,0,.29.29,0,0,0,.24-.28c0-.24-.4-.44-.57-.57a6.91,6.91,0,0,0-.86-.54,4.93,4.93,0,0,0-1.54-.6c-.57-.08-1.19,0-1.78,0a.84.84,0,0,1-.34-.08.9.9,0,0,1-.37-.4q-.15-.27-.27-.54a.23.23,0,0,1,0-.11.21.21,0,0,1,.09-.1,10.8,10.8,0,0,1,2.21-.94c.52-.19,1.05-.37,1.59-.55a1,1,0,0,1,.39-.07,1.4,1.4,0,0,1,.38.16,9.3,9.3,0,0,0,1.17.49,12.72,12.72,0,0,1,3.6,2.5c.73.66,1.48,1.31,2.18,2s.22,1.62-.29,2.08a1.59,1.59,0,0,1-.37.27,2.22,2.22,0,0,1-1.66.13c-.28-.08-1.55-.55-2-.66a18.37,18.37,0,0,1-4.66-1.91A2.77,2.77,0,0,1,147.4,174.69Z"/><path class="cls-14" d="M178.18,178.11c4.19-2.73,5.81-7.13,4.29-8.58-2.61-2.49-4.89-.83-10.84,4.37l-.39.34c-1.46,1.25-2.92,2.51-4.26,3.89a23.57,23.57,0,0,0-2.12,2.45c-.14.21-.29.41-.42.62a2.92,2.92,0,0,0-.25.72,7.35,7.35,0,0,0-.38,1.92,2.8,2.8,0,0,0,.86,2.2,2.73,2.73,0,0,0,2.64.37c1-.33,4.56-1,7.19-3.57C176.21,181.18,172.78,181.63,178.18,178.11Z"/><path class="cls-14" d="M155.14,175c.26-.37.49-.62.94-.52a5.33,5.33,0,0,1,1.27.5,22.05,22.05,0,0,1,2.36,1.58c1,.71,2.06,1.29,3.13,1.93a25.39,25.39,0,0,1,2.24,1.47c1.35,1,4.32,3.22,2.91,5.19a3.2,3.2,0,0,1-2.63,1.27c-.71-.09-1.55-.93-2.1-1.33-1.27-.92-2.52-1.88-3.76-2.85-1.52-1.17-3-2.52-4.5-3.7-.62-.48-1.05-.53-.84-1.43a6.49,6.49,0,0,1,.92-2Z"/><path class="cls-15" d="M196.78,172.12c0-.84.07-1.68.09-2.52a26,26,0,0,0-.26-5.22,15.82,15.82,0,0,0-2.27-5.79,4.11,4.11,0,0,0-.58-.74c-.59.09-1.33-.1-1.85.17-.78.42-1.33,1.78-1.67,2.54a11,11,0,0,0-.73,6.61,14.9,14.9,0,0,0,.84,2.29,13.78,13.78,0,0,0,1.24,2.77,4.8,4.8,0,0,0,3,2.21,1.89,1.89,0,0,0,1.78-.42,2.55,2.55,0,0,0,.43-1.86Z"/><path class="cls-13" d="M196.37,171.72a60.52,60.52,0,0,1-7.25-3.85c-.27-.19-1.53.64-1.86.57A11.93,11.93,0,0,0,180,169l-.08,0V184H194.2Z"/><path class="cls-13" d="M191,170.58s-8.88,4.46-8.46-.47c.6-6.88,1-7.64,4.12-8.53.84-.24,1.18-1,2-.92,3.19.13,1.85,1.79,1.66,3C189.79,167.24,191.05,168.68,191,170.58Z"/><path class="cls-16" d="M183,167.91h-.12C183.2,167.81,183.4,167.9,183,167.91Z"/><path class="cls-2" d="M201,176.84a8.22,8.22,0,0,1,0,.86,13.35,13.35,0,0,1-.43,2.42,8.43,8.43,0,0,1-1.18,2.61c-.54.87-1,1.75-1.51,2.62a24.44,24.44,0,0,0-1.25,2.7,26.5,26.5,0,0,0-2.19,6.52,24.29,24.29,0,0,0-.2,5.52,23.5,23.5,0,0,1,.15,2.64,6.31,6.31,0,0,1,0,.87c-.06.32-.22.43-.52.66a12.09,12.09,0,0,1-5.42,2.29,19.88,19.88,0,0,1-6.4-.13c-.6-.11-1.17-.22-1.71-.34a19.34,19.34,0,0,1-4.52-1.53c-.44-.34-.25-.23.13-3.45,1.54-13.19-4.28-13.43-2-20.33.38-1.18,1.18-2.29,1.66-3.48,1.81-4.32.67-9.14,7.29-9.37-.41.12-4.24,6.58.38,8.47,3,1.22,8.86-2,10.23-6.08a29.65,29.65,0,0,1,5.37,2.71A4.83,4.83,0,0,1,201,176.84Z"/><path class="cls-17" d="M188.76,264.85a5.57,5.57,0,0,0-.52,1.17l-1.55,4.38a18.38,18.38,0,0,0-.77,4c-.13,1.07-.52,2.39.22,3.27a2.9,2.9,0,0,0,3.18.7,4.78,4.78,0,0,0,2.44-2.35,11.61,11.61,0,0,0,1-3.88c.23-1.49.45-3,.68-4.46a4.9,4.9,0,0,0,0-1.83c-.39-1.6-3.19-2.67-4.41-1.42A2.55,2.55,0,0,0,188.76,264.85Z"/><path class="cls-17" d="M176.77,267.82a3.6,3.6,0,0,1,.78-2.13c.71-1,1.65-1.81,2.42-2.76a10,10,0,0,0,.9-1.45,10.92,10.92,0,0,1,1.31-1.5,2.09,2.09,0,0,1,.2-.22,5.34,5.34,0,0,1,2.58-1.58c.83-.2,2.16-.26,2.74.45a3.42,3.42,0,0,1,.35,3.33c-.33,1.2-1.38,1.57-2.22,2.41-.42.42-.73.91-1.16,1.33s-1.08,1.16-1.63,1.73a8.16,8.16,0,0,1-2.58,1.94c-1.43.61-3.6.48-3.69-1.5Z"/><path class="cls-13" d="M173.42,237c.77,1.79,6.19,15.15,7.41,19.52.54,1.93,1.1,4.48-.27,6.2a5,5,0,0,0-.84,1.2,1.28,1.28,0,0,0,.18,1.37,1.22,1.22,0,0,0,1.24.18,3.54,3.54,0,0,0,1.09-.73,25.46,25.46,0,0,0,2.93-2.85,9.93,9.93,0,0,0,1.29-1.92c.36-.71.68-1.28.32-2a13.77,13.77,0,0,1-1.23-5.05,27,27,0,0,1,0-3.24c0-1,.18-2,.11-3a29.08,29.08,0,0,0-.74-6,9.94,9.94,0,0,0-1.79-3.61c-.87-1.07-2.08-1.73-3-2.71a2.62,2.62,0,0,0-2.19-1Z"/><path class="cls-9" d="M197.12,214.25a44,44,0,0,0-.46-6.49c-.22-1.62-1.51-6-1.51-6s-6.6,2.83-8.68,3a15.85,15.85,0,0,1-5.54-.07c-.91-.17-1-.12-1,.78a23.13,23.13,0,0,0,.74,3.92c1,4.8,2.39,9.6,3.14,14.43.61,3.93.43,8.12,1,12.11a15.81,15.81,0,0,0,1.91,4.87c.9,1.69,1.8,2.64,3.45,2.46a4.61,4.61,0,0,0,2.46-1.57,8.34,8.34,0,0,0,.47-1.7c.44-1.38.81-2.79,1.12-4.21l.18-.88s0-.07,0-.1c.74-3.78,1.17-7.66,1.73-11.46A55.18,55.18,0,0,0,197.12,214.25Z"/><path class="cls-9" d="M184.31,233.31c.35,4.69,2.25,8.08,3,12.71a96.06,96.06,0,0,1,1,15.44,40.83,40.83,0,0,1-.2,6.73c-.23,1.35-1.43,3.6-.35,4.82a2.36,2.36,0,0,0,1.55.71,2.2,2.2,0,0,0,1.44-.34c.72-.5.86-1.79,1.12-2.58.91-2.77,1.41-5.62,2.18-8.42.85-3.09,2.15-6.06,2.62-9.25a33.69,33.69,0,0,0-2.58-17.55c-.36-.8-.46.15-1.33,0Z"/><path class="cls-3" d="M171.93,233.29a5.58,5.58,0,0,0,.79,5,9.12,9.12,0,0,0,6.39,3.33,26.91,26.91,0,0,0,7.37-.5l8.32-1.34a2.7,2.7,0,0,0,1.75-.73,2.75,2.75,0,0,0,.37-2,78.8,78.8,0,0,1-.32-9.94c.19-3.8.82-7.65.82-11.44a26.3,26.3,0,0,0-1.29-10.68c-.29-.76-.7-3-1.49-3.34-1.24-.51-3.6,1.11-4.75,1.51a59,59,0,0,1-8.44,1.64c-2.51.13-3-2-6.14-1.94-.88,0-1.41,6.24-1.54,7.08-.33,2.13-.6,4.28-.75,6.44-.14,2,.15,3.84.12,5.8a59.25,59.25,0,0,1-.77,9C172.24,231.88,172.07,232.6,171.93,233.29Z"/><path class="cls-3" d="M175.31,202.79c.33-1.12.64-2.13.64-2.13a14.12,14.12,0,0,0,9.47,3.18c5.2-.39,8.92-3.38,8.77-3.66.34.5.65,1,1,1.54C189.53,206.6,181.24,206.46,175.31,202.79Z"/><path class="cls-9" d="M187.7,166.31a8.58,8.58,0,0,0,.71-.52l.31-.28a17,17,0,0,0,2.08-2.94,8.48,8.48,0,0,0,1.22-3.48,8,8,0,0,0-2-6.69,7.81,7.81,0,0,0-7.6-2.08,11.23,11.23,0,0,0-2.07.84,5.57,5.57,0,0,0-1.58,1.09,5.43,5.43,0,0,0-.72,1.05,10.11,10.11,0,0,0-.76,2,4.3,4.3,0,0,0-.08,1.24,10.37,10.37,0,0,0,.2,2.15,12,12,0,0,1,.21,1.79,5,5,0,0,1-.48,1.68,2.48,2.48,0,0,0-.22,1.24c.12.38.53.68.72,1a2.19,2.19,0,0,1,.28,1.07,1.68,1.68,0,0,0,.21.7,1.86,1.86,0,0,1,.07.57,3.51,3.51,0,0,0,.32.68,6.21,6.21,0,0,0,.31.75c.79,1.43,1.95,1.52,3.37,1a19.67,19.67,0,0,0,3.17-1.61C186.16,167.15,187,166.79,187.7,166.31Z"/><path class="cls-18" d="M194.6,156.64a8.16,8.16,0,0,0-.36-2,7.88,7.88,0,0,0-.81-1.74,5.27,5.27,0,0,0-.58-.82c-.2-.23-.62-.46-.73-.73,0,0-1.16-2.86-6.42-2.86a10.75,10.75,0,0,0-5.59,1.76,5.48,5.48,0,0,0-2.49,2.69,9.67,9.67,0,0,0-.8,4.11,1,1,0,0,0,.17.6c.22.23.6.17.91.09a12.23,12.23,0,0,0,3.16-1.27c.48-.27,1.74-.86,2.3-.6s.12,1.4.29,1.93a3.32,3.32,0,0,0,1.23,1.69,16.75,16.75,0,0,0,1.69.86,2.32,2.32,0,0,1,1.23,1.36c.16.66-.06,1.53.52,1.87s2.58-1.17,2.48-1c-.45.77-.39.63-.56,2a9.09,9.09,0,0,0,4.27-6.16A8.55,8.55,0,0,0,194.6,156.64Z"/><path class="cls-9" d="M190.11,160c1.38-.08,1.73,1.63.77,2.95a6.58,6.58,0,0,1-1.13,1c-2.48,2.1-3.1-.19-2.31-.9C189.28,161.45,188.37,160.13,190.11,160Z"/><path class="cls-13" d="M189.22,163.16c.16-.14,1.73-1.07.66-1.7-.29-.18-.62.08-.67.39s0,.33,0,.5a1,1,0,0,1-.11.27c-.14.22-.62.44-.52.77S189.12,163.25,189.22,163.16Z"/><path class="cls-9" d="M197.14,196.33a1.64,1.64,0,0,1-.49.36,1.31,1.31,0,0,1-.93.08,2.3,2.3,0,0,1-.94-.79,18.79,18.79,0,0,0-1.36-1.46.57.57,0,0,0-.44-.24.41.41,0,0,0-.33.3c0,.1.06.6,0,.61s-.44-.15-.56-.19-.45-.14-.67-.2a9.47,9.47,0,0,0-1.41-.26,10.58,10.58,0,0,0-2.81,0,.61.61,0,0,0-.24.07.21.21,0,0,0-.11.21.27.27,0,0,0,.17.19,8,8,0,0,0,2,.57c.29.07.54.22.83.3a6.82,6.82,0,0,1,1.09.42,17,17,0,0,0-3.49-.42c-.24,0-.8,0-.95.24s.32.52.53.59l1.91.69a5.08,5.08,0,0,0-2.22-.24c-.36,0-.62.05-.53.48a.76.76,0,0,0,.59.58c.44.07.88.13,1.32.23a9.61,9.61,0,0,1,1.8.56,6,6,0,0,0-1.47.23,1.92,1.92,0,0,0-1.06.72c-.15.24-.18.72.19.75a9.3,9.3,0,0,0,1.18,0,12.75,12.75,0,0,1,2.47,0c1.2.18,2.28.86,3.47,1a5.58,5.58,0,0,0,3.13-.63,29.55,29.55,0,0,0,2.4-1.76,6.91,6.91,0,0,0,1.49-.93c.47-.48.92-1,1.36-1.49a1.63,1.63,0,0,0,.44-.85,1.34,1.34,0,0,0-.69-1.09,4.29,4.29,0,0,0-1.64-.71,2.75,2.75,0,0,0-1.68,0,10,10,0,0,0-1.88,1.51A6,6,0,0,0,197.14,196.33Z"/><path class="cls-2" d="M199.11,173.1l-.4-.3a1.33,1.33,0,0,0-2.34.48,9.3,9.3,0,0,0-.67,3.26,13.8,13.8,0,0,0,.08,3.4,4.86,4.86,0,0,0,1.41,3c.82.62,1.6,1.3,2.39,2,1.6,1.32,3.23,2.62,4.88,3.88a12.39,12.39,0,0,0,2.53,1.8c2.56,1,5.06-.31,5.51-2.21a3.42,3.42,0,0,0-.44-2.16,11.37,11.37,0,0,0-1.92-2.41q-1.19-1.33-2.4-2.64a72,72,0,0,0-6.75-6.67C200.38,174,199.73,173.57,199.11,173.1Z"/><path class="cls-2" d="M199.58,199.73c1.15.33,1.95-.54,2.7-1.13,1.77-1.39,8.39-5.93,10.11-9.9.42-1-2-1.87-3.07-2.83-.76-.66-2.06-.32-2.9-.05-1,.34-9.22,9.82-9.37,10.34C196.73,197.29,198.69,199.48,199.58,199.73Z"/><path class="cls-19" d="M164.59,110.17c0,5.37-3.76,11.91-8.43,14.61L34.39,195.08c-4.68,2.7-8.48.54-8.49-4.83l-.26-90.1,0-8.79c0-5.37,3.76-11.91,8.43-14.6L155.82,6.45c4.68-2.7,8.48-.54,8.49,4.83l0,8.79Z"/><g class="cls-20"><path class="cls-21" d="M171.14,116.43c0,5.37-3.76,11.91-8.43,14.61L40.93,201.34c-4.67,2.7-8.48.54-8.49-4.83l-.26-90.1,0-8.79c0-5.37,3.76-11.91,8.43-14.6L162.37,12.71c4.67-2.7,8.48-.54,8.49,4.84l0,8.78Z"/></g><g class="cls-6"><g class="cls-6"><path class="cls-2" d="M174.6,17l2.13,1.23c-1.52-.88-3.62-.75-5.94.59l-2.12-1.24C171,16.23,173.08,16.11,174.6,17Z"/><g class="cls-22"><path class="cls-23" d="M170.79,18.81l-2.12-1.24c2.32-1.34,4.41-1.46,5.93-.58l2.13,1.23C175.21,17.34,173.11,17.47,170.79,18.81Z"/></g></g><path class="cls-1" d="M45.18,205.29l-2.13-1.24c-1.49-.87-2.42-2.72-2.43-5.34l2.13,1.23C42.76,202.57,43.69,204.42,45.18,205.29Z"/><g class="cls-24"><g class="cls-6"><path class="cls-1" d="M45.18,205.29l-2.13-1.24c-1.49-.87-2.42-2.72-2.43-5.34l2.13,1.23C42.76,202.57,43.69,204.42,45.18,205.29Z"/></g></g><polygon class="cls-23" points="42.47 102.49 40.35 101.25 40.37 109.92 42.5 111.14 42.47 102.49"/><polygon class="cls-1" points="40.37 109.92 40.62 198.71 42.75 199.94 42.5 111.14 40.37 109.92"/><polygon class="cls-23" points="50.79 88.09 48.66 86.86 168.67 17.57 170.79 18.8 50.79 88.09"/><g class="cls-6"><path class="cls-2" d="M42.47,102.49l-2.12-1.24c0-5.29,3.7-11.73,8.31-14.39l2.13,1.23C46.18,90.75,42.46,97.2,42.47,102.49Z"/><g class="cls-25"><path class="cls-23" d="M42.47,102.49l-2.12-1.24c0-5.29,3.7-11.73,8.31-14.39l2.13,1.23C46.18,90.75,42.46,97.2,42.47,102.49Z"/></g></g><path class="cls-26" d="M179.44,121c0,5.3-3.71,11.74-8.31,14.4l-120,69.28c-4.61,2.67-8.36.54-8.37-4.76l-.25-88.8,0-8.65c0-5.29,3.71-11.74,8.31-14.4l120-69.29c4.61-2.65,8.36-.52,8.37,4.77l0,8.66Z"/><path class="cls-27" d="M179.18,32.23,42.5,111.14l0-8.65c0-5.29,3.71-11.74,8.31-14.4l120-69.29c4.61-2.65,8.36-.52,8.37,4.77Z"/></g><path class="cls-28" d="M131.67,87.06c0-11.77-8.19-16.58-18.28-10.75S95.1,96.4,95.1,108.17s8.19,16.58,18.29,10.75S131.67,98.83,131.67,87.06Z"/><path class="cls-29" d="M119.05,82.58a12.57,12.57,0,0,1-5.66,9.87c-3.13,1.81-5.67.32-5.67-3.33a12.59,12.59,0,0,1,5.67-9.88C116.52,77.44,119.05,78.93,119.05,82.58Z"/><path class="cls-29" d="M122.26,108V97.05c0-4.77-3.35-6.73-7.44-4.37L112,94.34c-4.09,2.36-7.43,8.18-7.43,13v10.9Z"/><path class="cls-1" d="M114.59,92.81l-2.4,1.39Z"/><polygon class="cls-29" points="141.9 116.77 84.88 149.69 84.88 140.1 141.9 107.17 141.9 116.77"/><polygon class="cls-30" points="124.29 147.73 103.04 160 103.04 166.15 124.29 153.88 124.29 147.73"/><polygon class="cls-29" points="141.9 131.64 84.88 164.57 84.88 154.97 141.9 122.05 141.9 131.64"/><path class="cls-27" d="M89.16,157.49l-1,.24.16-.69,1-.15,0-1.35.52-.3,0,1.4,1-1,.15.51-1,1,.68.68-.43.62-.63-.78-.62,1.47-.43-.11Z"/><path class="cls-27" d="M92.19,155.74l-1,.24.16-.69,1-.15,0-1.35.53-.3,0,1.4,1-1,.16.51-1,1,.68.68-.43.62-.64-.77-.61,1.47-.43-.12Z"/><path class="cls-27" d="M95.21,154l-1,.24.16-.68,1-.16,0-1.34.53-.31,0,1.41,1-1,.16.51-1.05,1,.68.68-.43.62-.64-.77L95,155.6l-.43-.11Z"/><path class="cls-27" d="M98.24,152.24l-1,.25.15-.69,1-.16,0-1.34.53-.3,0,1.4,1-1,.16.51-1.06,1,.68.68-.42.62-.64-.77L98,153.85l-.43-.11Z"/><path class="cls-27" d="M101.27,150.5l-1,.24.16-.69,1-.16,0-1.34.52-.3,0,1.4,1-1,.16.52-1.06,1,.68.69-.42.61-.64-.77L101,152.1l-.43-.11Z"/><path class="cls-2" d="M166,31c0,1.13.8,1.59,1.78,1A3.94,3.94,0,0,0,169.58,29c0-1.13-.79-1.59-1.77-1A4,4,0,0,0,166,31Z"/><path class="cls-2" d="M160.43,34.24c0,1.14.8,1.6,1.78,1A4,4,0,0,0,164,32.19c0-1.13-.8-1.59-1.78-1A4,4,0,0,0,160.43,34.24Z"/><path class="cls-2" d="M154.83,37.48c0,1.13.8,1.59,1.78,1a3.92,3.92,0,0,0,1.78-3.08c0-1.13-.8-1.59-1.78-1A3.92,3.92,0,0,0,154.83,37.48Z"/><g class="cls-6"><g class="cls-6"><path class="cls-4" d="M5,312.61l21.23,12.31c-2.56-1.49-4.15-4.65-4.16-9.12L.88,303.5C.89,308,2.48,311.12,5,312.61Z"/><g class="cls-31"><g class="cls-6"><path class="cls-4" d="M22.11,315.8.88,303.5c0,4.47,1.6,7.62,4.16,9.11l21.23,12.31C23.71,323.43,22.12,320.27,22.11,315.8Z"/></g></g></g><g class="cls-6"><path class="cls-5" d="M94.71,206.61,73.48,194.3c-2.59-1.51-6.18-1.3-10.12,1l21.23,12.31C88.53,205.3,92.12,205.1,94.71,206.61Z"/><g class="cls-32"><g class="cls-6"><path class="cls-5" d="M94.71,206.61,73.48,194.3c-2.55-1.48-6.06-1.31-9.93.87l21.23,12.3C88.64,205.3,92.16,205.12,94.71,206.61Z"/><path class="cls-5" d="M84.78,207.47l-21.23-12.3-.19.1,21.23,12.31Z"/></g></g></g><polygon class="cls-4" points="21.95 260.15 0.72 247.84 0.88 303.5 22.11 315.8 21.95 260.15"/><polygon class="cls-5" points="84.59 207.58 63.36 195.27 14.93 223.24 36.15 235.54 84.59 207.58"/><g class="cls-6"><path class="cls-5" d="M36.15,235.54l-21.22-12.3C7.09,227.76.69,238.84.72,247.84L22,260.15C21.92,251.14,28.32,240.07,36.15,235.54Z"/><g class="cls-33"><g class="cls-6"><path class="cls-5" d="M36.15,235.54l-21.22-12.3A23.22,23.22,0,0,0,10.12,227l21.23,12.3A23.78,23.78,0,0,1,36.15,235.54Z"/><path class="cls-5" d="M31.35,239.28,10.12,227C4.64,232.43.7,240.77.72,247.84L22,260.15C21.93,253.08,25.86,244.73,31.35,239.28Z"/></g></g></g><path class="cls-34" d="M36.15,235.54c-7.83,4.53-14.23,15.6-14.2,24.61l.16,55.65c0,9,6.46,12.67,14.29,8.14l48.44-28c7.84-4.52,14.22-15.59,14.2-24.6l-.16-55.65c0-9-6.45-12.68-14.29-8.15Z"/></g><path class="cls-35" d="M69.81,282.46c0-3.73-2.6-5.25-5.83-3.4a12.91,12.91,0,0,0-5.89,10.11c0,2.46,1.13,3.95,2.83,4.16l0,10.61,6-3.45,0-10.61A12.76,12.76,0,0,0,69.81,282.46Z"/><path class="cls-10" d="M84.59,172.34l-.11,29.58a3.46,3.46,0,0,1-2,2.83,10.68,10.68,0,0,1-9.75,0,3.45,3.45,0,0,1-2-2.86l.11-29.56c0-5.16-1.43-9-4-10.45s-6.57-.86-11,1.7l-7.61,4.36c-11.92,6.82-22,24.19-22.09,37.93L26,235.41a3.45,3.45,0,0,1-2,2.83,10.52,10.52,0,0,1-6.37,1.06,9.11,9.11,0,0,1-3.37-1.1,5.06,5.06,0,0,1-.94-.68,2.94,2.94,0,0,1-1.07-2.18l.11-29.56c0-9,3-19.09,8.49-28.43s12.73-16.95,20.53-21.41l7.61-4.36a31.08,31.08,0,0,1,12.73-4.23A19.81,19.81,0,0,1,82,159.19,30.78,30.78,0,0,1,84.59,172.34Z"/><path class="cls-1" d="M70.63,163.46a6.17,6.17,0,0,0-2.71-.77c1.86,1.84,2.9,5.24,2.89,9.6l-.11,29.56a3.44,3.44,0,0,0,2,2.86,8,8,0,0,0,1.79.76l.12-31.56C74.63,168.76,73.18,165,70.63,163.46Z"/><path class="cls-2" d="M74.69,151.68a21.49,21.49,0,0,0-7.64-.7,30.89,30.89,0,0,0-12.73,4.23l-7.61,4.35C38.91,164,31.62,171.63,26.17,181s-8.45,19.44-8.48,28.43l-.12,29.89a9.11,9.11,0,0,1-3.37-1.1,5.06,5.06,0,0,1-.94-.68l.11-29.91c0-9,3.05-19.09,8.49-28.43s12.73-17,20.54-21.42L50,153.41a30.7,30.7,0,0,1,12.72-4.23A20.57,20.57,0,0,1,74.69,151.68Z"/></g></g></svg>