<?xml version="1.0" encoding="utf-8"?>
<!-- Generator: Adobe Illustrator 25.2.1, SVG Export Plug-In . SVG Version: 6.00 Build 0)  -->
<svg version="1.1" xmlns="http://www.w3.org/2000/svg" xmlns:xlink="http://www.w3.org/1999/xlink" x="0px" y="0px"
	 viewBox="0 0 329.9 367.7" style="enable-background:new 0 0 329.9 367.7;" xml:space="preserve">
<style type="text/css">
	.st0{fill:#7ACB59;}
	.st1{fill:#0E4772;}
	.st2{fill:#28659C;}
	.st3{fill:#E69724;}
	.st4{fill:#FFFFFF;}
	.st5{fill:#FC3A3A;}
	.st6{fill:#C1E8AF;}
	.st7{fill:#BAD4EF;}
	.st8{fill:none;stroke:#0E4772;stroke-linecap:round;stroke-miterlimit:10;}
	.st9{fill:#EAA527;}
	.st10{fill:#FCF439;}
	.st11{fill:#C2FF3C;}
	.st12{fill:#DB0000;}
	.st13{fill:#6EB92B;}
	.st14{opacity:0.3;fill:#353535;}
	.st15{fill:#AAAAAA;}
	.st16{fill:#FC2B2B;}
	.st17{opacity:0.15;}
	.st18{opacity:0.3;}
	.st19{opacity:7.000000e-02;}
	.st20{fill:#353535;}
	.st21{fill:#455A64;}
	.st22{fill:#E0E0E0;}
	.st23{fill:#E6E6E6;}
	.st24{fill:#F5F5F5;}
	.st25{fill:#F0F0F0;}
	.st26{fill:#FAFAFA;}
	.st27{opacity:0.1;}
	.st28{opacity:0.4;}
	.st29{fill:#FFA8A7;}
	.st30{opacity:0.4;fill:#FFFFFF;}
	.st31{fill:#F28F8F;}
</style>
<g id="BACKGROUND">
</g>
<g id="OBJECTS">
	<g id="Device">
		<g id="XMLID_2408_">
			<path id="XMLID_2415_" class="st1" d="M132.1,191.6l-39.6,22.9c-1.5,0.8-2.9,2.9-3.2,4.6l-9.8,56.8c-0.3,1.7,0.7,3.7,2.1,4.6
				l25.5,14.7c1.5,0.8,3.9,0.8,5.3,0l54.6-31.5c1.5-0.8,2.7-2.8,2.7-4.4c0-1.6-1.2-3.6-2.7-4.4l-19.6-11.3c-1.5-0.8-2.8-2.9-3-4.6
				l-4.4-42.9c-0.2-1.7-1.4-3.7-2.8-4.5C135.9,190.7,133.6,190.8,132.1,191.6z"/>
			<path id="XMLID_2411_" class="st21" d="M109.8,285.2l0,10.6c1,0,1.9-0.2,2.7-0.6l54.6-31.5c1.5-0.8,2.7-2.8,2.7-4.4
				c0-0.9-0.4-2-1-2.9h-8.9L109.8,285.2z"/>
			<path id="XMLID_2410_" class="st1" d="M137.1,194.5l-39.6,22.9c-1.5,0.8-2.9,2.9-3.2,4.6l-8.9,51.6c-0.3,1.7,0.7,3.7,2.1,4.6
				l19.6,11.3c1.5,0.8,3.9,0.8,5.3,0l54.6-31.5c1.5-0.8,1.5-2.2,0-3.1l-19.6-11.3c-1.5-0.8-2.8-2.9-3-4.6l-4.4-42.9
				C139.9,194.3,138.6,193.6,137.1,194.5z"/>
			<path id="XMLID_2409_" class="st2" d="M167.1,254.8l-19.6-11.3c-0.7-0.4-1.4-1.1-1.9-1.9L85.8,276c0.4,0.9,1,1.6,1.8,2.1
				l19.6,11.3c1.5,0.8,3.9,0.8,5.3,0l54.6-31.5C168.5,257,168.5,255.7,167.1,254.8z"/>
		</g>
		<g id="XMLID_2402_">
			<path id="XMLID_2407_" class="st1" d="M6.3,304.6l-2.5-1.5C1.7,302,0,299.1,0,296.7l0-170.1c0-2.4,1.7-5.3,3.7-6.4L211.5,0.9
				c2.1-1.2,5.4-1.2,7.5,0l1.9,1.1c2.1,1.2,3.7,4.1,3.7,6.5v170.1c0,2.4-1.7,5.3-3.7,6.5L13.7,304.6C11.7,305.8,8.3,305.8,6.3,304.6
				z"/>
			<path id="XMLID_2406_" class="st1" d="M15,131l-13.9-8c-0.7,1.2-1.1,2.5-1.1,3.7l0,170.1c0,2.4,1.7,5.3,3.7,6.5l2.5,1.5
				c2.1,1.2,5.4,1.2,7.4,0l1.3-0.7L15,131z"/>
			<path id="XMLID_2405_" class="st2" d="M10,302.5V132.4c0-2.4,1.7-5.3,3.7-6.5L220.9,6.3c2.1-1.2,3.7-0.2,3.7,2.2v170.1
				c0,2.4-1.7,5.3-3.7,6.5L13.7,304.6C11.7,305.8,10,304.9,10,302.5z"/>
			<path id="XMLID_2404_" class="st22" d="M107.3,239.1l19.6-11.3c1.5-0.8,2.7-0.2,2.7,1.3c0,1.6-1.2,3.6-2.7,4.4l-19.6,11.3
				c-1.5,0.8-2.7,0.2-2.7-1.3C104.6,241.9,105.8,239.9,107.3,239.1z"/>
			<path id="XMLID_2403_" class="st4" d="M19.5,131.1l195.1-113c1.2-0.7,2.1-0.1,2.1,1.2v148.2c0,1.4-1,3-2.1,3.7L19.5,284
				c-1.2,0.7-2.1,0.1-2.1-1.2V134.8C17.4,133.5,18.4,131.8,19.5,131.1z"/>
		</g>
		<g id="Tab_1_">
			<path id="XMLID_2334_" class="st23" d="M26.8,134l179-103.4c3.2-1.9,5.9-0.3,5.9,3.4v128.7c0,1.7-1.2,3.9-2.7,4.8L25.7,273.3
				c-1.5,0.9-2.7,0.2-2.7-1.6V140.6C23,138.2,24.7,135.2,26.8,134z"/>
			<polygon id="XMLID_2245_" class="st24" points="100.2,111.5 198.9,54.5 198.9,74.4 100.2,131.3 			"/>
			<polygon id="XMLID_2323_" class="st25" points="100.2,139.2 198.9,82.2 198.9,131.8 100.2,188.8 			"/>
			<path id="XMLID_2333_" class="st0" d="M211.8,37.1V34c0-3.8-2.7-5.3-5.9-3.4L26.8,134c-2.1,1.2-3.8,4.2-3.8,6.6v5.5L211.8,37.1z"
				/>
			<path id="XMLID_2332_" class="st4" d="M187,44.1c-1.1,0.6-2,2.2-2,3.5c0,1.3,0.9,1.8,2,1.2c1.1-0.6,2-2.2,2-3.5
				C189,44,188.1,43.5,187,44.1z"/>
			<path id="XMLID_2331_" class="st4" d="M195.1,39.5c-1.1,0.6-2,2.2-2,3.5c0,1.3,0.9,1.8,2,1.2c1.1-0.6,2-2.2,2-3.5
				C197.1,39.4,196.2,38.8,195.1,39.5z"/>
			<path id="XMLID_2330_" class="st4" d="M203.1,34.8c-1.1,0.6-2,2.2-2,3.5c0,1.3,0.9,1.8,2,1.2c1.1-0.6,2-2.2,2-3.5
				C205.2,34.7,204.3,34.2,203.1,34.8z"/>
			<g id="XMLID_2223_">
				<path class="st26" d="M31.6,216.6c-0.2,0-0.4,0-0.5-0.1c-0.3-0.2-0.5-0.5-0.5-0.9v-64.4c0-0.4,0.2-0.7,0.5-0.9L86.7,118
					c0.3-0.2,0.7-0.2,1.1,0c0.3,0.2,0.5,0.5,0.5,0.9v64.4c0,0.4-0.2,0.7-0.5,0.9l-55.7,32.2C31.9,216.5,31.8,216.6,31.6,216.6z
					 M32.6,151.7v62l53.6-31v-62L32.6,151.7z"/>
			</g>
			<g id="XMLID_2244_">
				<path class="st26" d="M50.8,193.3c-2,0-3.9-0.5-5.6-1.4c-4-2.3-6.2-7.1-6.2-13.5c0-12.7,8.9-28.2,19.9-34.5
					c5.5-3.2,10.7-3.7,14.7-1.4c4,2.3,6.2,7.1,6.2,13.5c0,12.7-8.9,28.2-19.9,34.5C56.7,192.4,53.6,193.3,50.8,193.3z M68.1,143.2
					c-2.5,0-5.2,0.8-8.1,2.5c-10.4,6-18.8,20.7-18.8,32.7c0,5.6,1.8,9.7,5.2,11.6c3.3,1.9,7.8,1.4,12.6-1.4
					c10.4-6,18.8-20.7,18.8-32.7c0-5.6-1.8-9.7-5.2-11.7C71.2,143.6,69.7,143.2,68.1,143.2z"/>
			</g>
		</g>
	</g>
	<g id="XMLID_113_">
		<g id="XMLID_158_">
			<path id="XMLID_177_" class="st0" d="M269.9,225.2L266,223l0,0c-0.2-0.1-0.4-0.1-0.6,0l-7,3.2c-0.5,0.2-1,0-1.2-0.5
				c-0.4-1.3-0.9-2.4-1.6-3.5c-0.3-0.5-0.3-1.2-0.1-1.7l4.7-9.4c0.2-0.5,0.1-1.1-0.4-1.4l-5.1-2.9c-0.5-0.3-1.1-0.1-1.4,0.3
				l-5.8,8.7c-0.3,0.5-1,0.8-1.5,0.8c-0.7,0-1.3,0-2,0.1v-6.4l-3.9-2.2v0c-0.2-0.1-0.4-0.1-0.6,0.1l-7.9,4.5
				c-0.5,0.3-0.9,0.9-0.9,1.5l-0.8,8.7c0,0.5-0.4,1.3-0.8,1.6c-1.5,1.4-3,3-4.4,4.6c-0.3,0.4-1,0.6-1.5,0.4l-5-1.8
				c-0.5-0.2-1.1,0.1-1.4,0.5l-5.8,10c-0.3,0.5-0.2,1.1,0.3,1.5l4,3.5c0.4,0.4,0.6,1,0.4,1.6c-0.8,2-1.4,4.1-1.8,6.1
				c-0.1,0.5-0.6,1.2-1,1.5l-7.2,5.1c-0.4,0.3-0.8,1-0.8,1.5v9.1c0,0.3,0.1,0.5,0.3,0.6l0,0l3.9,2.2l5.7-2.7
				c0.2,0.5,0.5,0.9,0.7,1.3c0.3,0.5,0.3,1.2,0.1,1.7l-4.7,9.4c-0.2,0.5-0.1,1.1,0.4,1.4l5.1,2.9c0.5,0.3,1.1,0.1,1.4-0.3l5.8-8.7
				c0.3-0.5,1-0.8,1.5-0.8c1.2,0,2.5-0.1,3.8-0.4c0.5-0.1,1,0.2,1,0.7l0.8,7.6c0,0.3,0.1,0.4,0.3,0.5l0,0l3.9,2.2l4.6-6.8
				c0.5-0.3,0.9-0.9,0.9-1.5l0.8-8.7c0-0.5,0.5-1.1,1-1.3c2.2-0.9,4.5-2.6,6.1-4.3c0.4-0.4,1.1-0.6,1.6-0.4l3.1,1.1
				c0.5,0.2,1.1-0.1,1.4-0.5l5.8-10c0.3-0.5,0.2-1.1-0.3-1.5l-2.7-2.3c-0.4-0.4-0.6-1-0.4-1.6c0.6-2.2,0.8-5.2,0.7-7.3
				c0-0.5,0.3-1.2,0.8-1.5l7.2-5.1c0.4-0.3,0.8-1,0.8-1.5l3.4-4.1L269.9,225.2z M235.6,261.2c-7.3,4.2-11.9,1.2-11.9-7.2
				c0-8.5,6.1-18.8,13.4-23.1c7.3-4.2,11.8-1.2,11.8,7.3C248.8,246.7,242.9,257,235.6,261.2z"/>
			<path id="XMLID_174_" class="st27" d="M269.9,225.2L266,223l0,0c-0.2-0.1-0.4-0.1-0.6,0l-7,3.2c-0.5,0.2-1,0-1.2-0.5
				c-0.4-1.3-0.9-2.4-1.6-3.5c-0.3-0.5-0.3-1.2-0.1-1.7l4.7-9.4c0.2-0.5,0.1-1.1-0.4-1.4l-5.1-2.9c-0.5-0.3-1.1-0.1-1.4,0.3
				l-5.8,8.7c-0.3,0.5-1,0.8-1.5,0.8c-0.7,0-1.3,0-2,0.1v-6.4l-3.9-2.2v0c-0.2-0.1-0.4-0.1-0.6,0.1l-7.9,4.5
				c-0.5,0.3-0.9,0.9-0.9,1.5l-0.8,8.7c0,0.5-0.4,1.3-0.8,1.6c-1.5,1.4-3,3-4.4,4.6c-0.3,0.4-1,0.6-1.5,0.4l-5-1.8
				c-0.5-0.2-1.1,0.1-1.4,0.5l-5.8,10c-0.3,0.5-0.2,1.1,0.3,1.5l4,3.5c0.4,0.4,0.6,1,0.4,1.6c-0.8,2-1.4,4.1-1.8,6.1
				c-0.1,0.5-0.6,1.2-1,1.5l-7.2,5.1c-0.4,0.3-0.8,1-0.8,1.5v9.1c0,0.3,0.1,0.5,0.3,0.6l0,0l3.9,2.2l5.7-2.7
				c0.2,0.5,0.5,0.9,0.7,1.3c0.3,0.5,0.3,1.2,0.1,1.7l-4.7,9.4c-0.2,0.5-0.1,1.1,0.4,1.4l5.1,2.9c0.5,0.3,1.1,0.1,1.4-0.3l5.8-8.7
				c0.3-0.5,1-0.8,1.5-0.8c1.2,0,2.5-0.1,3.8-0.4c0.5-0.1,1,0.2,1,0.7l0.8,7.6c0,0.3,0.1,0.4,0.3,0.5l0,0l3.9,2.2l4.6-6.8
				c0.5-0.3,0.9-0.9,0.9-1.5l0.8-8.7c0-0.5,0.5-1.1,1-1.3c2.2-0.9,4.5-2.6,6.1-4.3c0.4-0.4,1.1-0.6,1.6-0.4l3.1,1.1
				c0.5,0.2,1.1-0.1,1.4-0.5l5.8-10c0.3-0.5,0.2-1.1-0.3-1.5l-2.7-2.3c-0.4-0.4-0.6-1-0.4-1.6c0.6-2.2,0.8-5.2,0.7-7.3
				c0-0.5,0.3-1.2,0.8-1.5l7.2-5.1c0.4-0.3,0.8-1,0.8-1.5l3.4-4.1L269.9,225.2z M235.6,261.2c-7.3,4.2-11.9,1.2-11.9-7.2
				c0-8.5,6.1-18.8,13.4-23.1c7.3-4.2,11.8-1.2,11.8,7.3C248.8,246.7,242.9,257,235.6,261.2z"/>
			<g id="XMLID_168_">
				<path id="XMLID_173_" class="st0" d="M258.7,214.2l1.5-3.1c0.2-0.5,0.1-1.1-0.4-1.4l-5.1-2.9c-0.5-0.3-1.1-0.1-1.4,0.3l-5.8,8.7
					c-0.1,0.1-0.2,0.3-0.4,0.4l6.5,3.8L258.7,214.2z"/>
				<path id="XMLID_172_" class="st0" d="M213.4,251.9c-0.2,0.2-0.4,0.5-0.6,0.6l-7.2,5.1c-0.2,0.1-0.3,0.3-0.5,0.5l4.4,2.5l9.5-5.4
					L213.4,251.9z"/>
				<path id="XMLID_171_" class="st0" d="M217.7,227.7c-0.4,0-0.8,0.2-1,0.6l-5.8,10c-0.1,0.2-0.2,0.5-0.1,0.7l5,2.9l7.9-10.7
					L217.7,227.7z"/>
				<path id="XMLID_170_" class="st0" d="M230.9,213.6l6.2,3.6l7-4v-2.8l-3.9-2.2v0c-0.2-0.1-0.4-0.1-0.6,0.1l-7.9,4.5
					C231.3,212.8,231,213.2,230.9,213.6z"/>
				<path id="XMLID_169_" class="st0" d="M269.9,225.2L269.9,225.2c-0.2-0.1-0.4-0.1-0.6,0l-7,3.2c-0.5,0.2-1,0-1.2-0.5
					c-0.3-0.9-0.6-1.7-1-2.5l5.3-2.4c0.2-0.1,0.5-0.1,0.6,0v0L269.9,225.2z"/>
			</g>
			<g id="XMLID_162_" class="st28">
				<path id="XMLID_167_" class="st4" d="M258.7,214.2l1.5-3.1c0.2-0.5,0.1-1.1-0.4-1.4l-5.1-2.9c-0.5-0.3-1.1-0.1-1.4,0.3l-5.8,8.7
					c-0.1,0.1-0.2,0.3-0.4,0.4l6.5,3.8L258.7,214.2z"/>
				<path id="XMLID_166_" class="st4" d="M213.4,251.9c-0.2,0.2-0.4,0.5-0.6,0.6l-7.2,5.1c-0.2,0.1-0.3,0.3-0.5,0.5l4.4,2.5l9.5-5.4
					L213.4,251.9z"/>
				<path id="XMLID_165_" class="st4" d="M217.7,227.7c-0.4,0-0.8,0.2-1,0.6l-5.8,10c-0.1,0.2-0.2,0.5-0.1,0.7l5,2.9l7.9-10.7
					L217.7,227.7z"/>
				<path id="XMLID_164_" class="st4" d="M230.9,213.6l6.2,3.6l7-4v-2.8l-3.9-2.2v0c-0.2-0.1-0.4-0.1-0.6,0.1l-7.9,4.5
					C231.3,212.8,231,213.2,230.9,213.6z"/>
				<path id="XMLID_163_" class="st4" d="M269.9,225.2L269.9,225.2c-0.2-0.1-0.4-0.1-0.6,0l-7,3.2c-0.5,0.2-1,0-1.2-0.5
					c-0.3-0.9-0.6-1.7-1-2.5l5.3-2.4c0.2-0.1,0.5-0.1,0.6,0v0L269.9,225.2z"/>
			</g>
			<path id="XMLID_159_" class="st0" d="M270.2,234.9v-9.1c0-0.5-0.4-0.8-0.9-0.6l-7,3.2c-0.5,0.2-1,0-1.2-0.5
				c-0.4-1.3-0.9-2.4-1.6-3.5c-0.3-0.5-0.3-1.2-0.1-1.7l4.7-9.4c0.2-0.5,0.1-1.1-0.4-1.4l-5.1-2.9c-0.5-0.3-1.1-0.1-1.4,0.3
				l-5.8,8.7c-0.3,0.5-1,0.8-1.5,0.8c-1.2,0-2.5,0.1-3.8,0.4c-0.5,0.1-1-0.2-1-0.7l-0.8-7.6c-0.1-0.5-0.5-0.8-0.9-0.5l-7.9,4.5
				c-0.5,0.3-0.9,0.9-0.9,1.5l-0.8,8.7c0,0.5-0.4,1.3-0.8,1.6c-1.5,1.4-3,3-4.4,4.6c-0.3,0.4-1,0.6-1.5,0.4l-5-1.8
				c-0.5-0.2-1.1,0.1-1.4,0.5l-5.8,10c-0.3,0.5-0.2,1.1,0.3,1.5l4,3.5c0.4,0.4,0.6,1,0.4,1.6c-0.8,2-1.4,4.1-1.8,6.1
				c-0.1,0.5-0.6,1.2-1,1.5l-7.2,5.1c-0.4,0.3-0.8,1-0.8,1.5v9.1c0,0.5,0.4,0.8,0.9,0.6l7-3.2c0.5-0.2,1,0,1.2,0.5
				c0.4,1.3,0.9,2.4,1.6,3.5c0.3,0.5,0.3,1.2,0.1,1.7l-4.7,9.4c-0.2,0.5-0.1,1.1,0.4,1.4l5.1,2.9c0.5,0.3,1.1,0.1,1.4-0.3l5.8-8.7
				c0.3-0.5,1-0.8,1.5-0.8c1.2,0,2.5-0.1,3.8-0.4c0.5-0.1,1,0.2,1,0.7l0.8,7.6c0.1,0.5,0.5,0.8,0.9,0.5l7.9-4.5
				c0.5-0.3,0.9-0.9,0.9-1.5l0.8-8.7c0-0.5,0.4-1.3,0.8-1.6c1.5-1.4,3-3,4.4-4.6c0.3-0.4,1-0.6,1.5-0.4l5,1.8
				c0.5,0.2,1.1-0.1,1.4-0.5l5.8-10c0.3-0.5,0.2-1.1-0.3-1.5l-4-3.5c-0.4-0.4-0.6-1-0.4-1.6c0.8-2,1.4-4.1,1.8-6.1
				c0.1-0.5,0.6-1.2,1-1.5l7.2-5.1C269.8,236.1,270.2,235.4,270.2,234.9z M239.4,263.4c-7.3,4.2-13.3,0.8-13.3-7.7
				c0-8.5,5.9-18.8,13.3-23c7.3-4.2,13.3-0.8,13.3,7.7C252.7,248.9,246.8,259.2,239.4,263.4z"/>
		</g>
		<g id="XMLID_136_">
			<path id="XMLID_155_" class="st0" d="M231.2,296.3L231.2,296.3c-0.2-0.1-0.4-0.1-0.7,0.1l-3.3,2.2c-0.5,0.3-1,0.1-1.3-0.3
				c-0.2-0.3-0.4-0.5-0.6-0.8c-0.4-0.4-0.6-1.1-0.4-1.6l5.3-3.3l-3.9-2.3l0,0c-0.1,0-0.2-0.1-0.3-0.1l-2.5-0.6
				c-0.5-0.1-1.2,0.2-1.4,0.7l-2.3,4.5c-0.3,0.5-0.9,0.9-1.4,1.1c0,0-0.1,0-0.1,0c0.1-0.4,0.2-1,0.2-1l-3.9-2.3l0,0
				c-0.2-0.1-0.5-0.1-0.7,0.1l-3.7,2.9c-0.4,0.3-0.7,1-0.7,1.6l0.2,3.6c0,0.5-0.2,1.3-0.6,1.7c-0.6,0.7-1.2,1.5-1.7,2.3
				c-0.3,0.4-1,0.8-1.5,0.8l-2.4-0.1c-0.5,0-1.2,0.4-1.4,0.8l-2.3,5.1c-0.2,0.5,0,1,0.4,1.2l0,0l2.7,1.5c0.1,0.2,0.1,0.5,0.1,0.7
				c-0.2,0.8-0.3,1.6-0.4,2.4c-0.1,0.5-0.4,1.3-0.8,1.6l-3.3,3c-0.4,0.4-0.6,1.1-0.6,1.6l0.6,3.6c0,0.2,0.2,0.4,0.3,0.5l0,0l3.9,2.3
				l0.1-4.5c0.5-0.3,1-0.1,1.3,0.3c0.2,0.3,0.4,0.5,0.6,0.8c0.4,0.4,0.6,1.1,0.4,1.6l-1.7,4.6c-0.1,0.4,0,0.8,0.3,1l0,0l3.9,2.3
				l1.1-2.9l1.5-3.8c0.3-0.5,0.9-0.9,1.4-1.1c0.5-0.1,1-0.3,1.5-0.5c0.5-0.2,1,0,1.2,0.5l0.8,2.8c0.1,0.2,0.2,0.4,0.3,0.4l0,0l4,2.3
				l-0.7-4.4l1.2-1c0.4-0.3,0.7-1,0.7-1.6l-0.2-3.6c0-0.5,0.2-1.3,0.6-1.7c0.6-0.7,1.5-1.1,2.1-1.9c0.3-0.4,0.6-1.2,1.2-1.1l2.4,0.1
				c0.5,0,1.2-0.4,1.4-0.8l2.3-5.1c0.2-0.5,0-1.1-0.5-1.3l-1.9-0.8c-0.5-0.2-0.8-0.8-0.7-1.3c0.2-0.8,0.3-1.6,0.4-2.4
				c0.1-0.5,0.4-1.3,0.8-1.6l3.3-3c0.3-0.3,0.5-0.7,0.5-1.1l3-2.3L231.2,296.3z M216.2,319.7c-4,3.2-7.9,2.3-8.7-1.9
				c-0.7-4.3,2.6-9.7,6.6-12.8c4-3.2,7.3-2.9,8,1.3C222.9,310.5,220.2,316.5,216.2,319.7z"/>
			<path id="XMLID_152_" class="st27" d="M231.2,296.3L231.2,296.3c-0.2-0.1-0.4-0.1-0.7,0.1l-3.3,2.2c-0.5,0.3-1,0.1-1.3-0.3
				c-0.2-0.3-0.4-0.5-0.6-0.8c-0.4-0.4-0.6-1.1-0.4-1.6l5.3-3.3l-3.9-2.3l0,0c-0.1,0-0.2-0.1-0.3-0.1l-2.5-0.6
				c-0.5-0.1-1.2,0.2-1.4,0.7l-2.3,4.5c-0.3,0.5-0.9,0.9-1.4,1.1c0,0-0.1,0-0.1,0c0.1-0.4,0.2-1,0.2-1l-3.9-2.3l0,0
				c-0.2-0.1-0.5-0.1-0.7,0.1l-3.7,2.9c-0.4,0.3-0.7,1-0.7,1.6l0.2,3.6c0,0.5-0.2,1.3-0.6,1.7c-0.6,0.7-1.2,1.5-1.7,2.3
				c-0.3,0.4-1,0.8-1.5,0.8l-2.4-0.1c-0.5,0-1.2,0.4-1.4,0.8l-2.3,5.1c-0.2,0.5,0,1,0.4,1.2l0,0l2.7,1.5c0.1,0.2,0.1,0.5,0.1,0.7
				c-0.2,0.8-0.3,1.6-0.4,2.4c-0.1,0.5-0.4,1.3-0.8,1.6l-3.3,3c-0.4,0.4-0.6,1.1-0.6,1.6l0.6,3.6c0,0.2,0.2,0.4,0.3,0.5l0,0l3.9,2.3
				l0.1-4.5c0.5-0.3,1-0.1,1.3,0.3c0.2,0.3,0.4,0.5,0.6,0.8c0.4,0.4,0.6,1.1,0.4,1.6l-1.7,4.6c-0.1,0.4,0,0.8,0.3,1l0,0l3.9,2.3
				l1.1-2.9l1.5-3.8c0.3-0.5,0.9-0.9,1.4-1.1c0.5-0.1,1-0.3,1.5-0.5c0.5-0.2,1,0,1.2,0.5l0.8,2.8c0.1,0.2,0.2,0.4,0.3,0.4l0,0l4,2.3
				l-0.7-4.4l1.2-1c0.4-0.3,0.7-1,0.7-1.6l-0.2-3.6c0-0.5,0.2-1.3,0.6-1.7c0.6-0.7,1.5-1.1,2.1-1.9c0.3-0.4,0.6-1.2,1.2-1.1l2.4,0.1
				c0.5,0,1.2-0.4,1.4-0.8l2.3-5.1c0.2-0.5,0-1.1-0.5-1.3l-1.9-0.8c-0.5-0.2-0.8-0.8-0.7-1.3c0.2-0.8,0.3-1.6,0.4-2.4
				c0.1-0.5,0.4-1.3,0.8-1.6l3.3-3c0.3-0.3,0.5-0.7,0.5-1.1l3-2.3L231.2,296.3z M216.2,319.7c-4,3.2-7.9,2.3-8.7-1.9
				c-0.7-4.3,2.6-9.7,6.6-12.8c4-3.2,7.3-2.9,8,1.3C222.9,310.5,220.2,316.5,216.2,319.7z"/>
			<g id="XMLID_146_">
				<path id="XMLID_151_" class="st0" d="M201.4,318.9l-3.3,3c-0.2,0.2-0.4,0.6-0.5,0.9l4.9,2.8l0-0.3c0.5-0.3,1-0.1,1.3,0.3
					c0,0,0,0,0,0l4.7-2.7L201.4,318.9z"/>
				<path id="XMLID_150_" class="st0" d="M209.7,309.8c0.4-0.6,0.8-1.1,1.2-1.7l-4.7-2.7c-0.2,0.1-0.5,0.2-0.7,0.1l-2.4-0.1
					c-0.3,0-0.7,0.1-1,0.4l7.2,4.1L209.7,309.8z"/>
				<path id="XMLID_149_" class="st0" d="M235.1,298.6c-0.2-0.1-0.4-0.1-0.7,0.1l-3.3,2.2c-0.5,0.3-1,0.1-1.3-0.3
					c-0.2-0.3-0.4-0.5-0.6-0.8c-0.4-0.4-0.6-1.1-0.4-1.6l0.3-0.8l1.4-0.9c0.3-0.2,0.5-0.2,0.7-0.1v0L235.1,298.6z"/>
				<path id="XMLID_148_" class="st0" d="M225.3,297.6c0,0-0.1-0.1-0.1-0.1c-0.4-0.4-0.6-1.1-0.4-1.6l5.3-3.3l-3.9-2.3l0,0
					c-0.1,0-0.2-0.1-0.3-0.1l-2.5-0.6c-0.5-0.1-1.2,0.2-1.4,0.7l-2.3,4.5c-0.1,0.2-0.3,0.4-0.5,0.6l5.3,3.1L225.3,297.6z"/>
				<path id="XMLID_147_" class="st0" d="M209.3,296.6l4.9,2.8l4-3.7c0.1-0.4,0.2-0.9,0.2-0.9l-3.9-2.3l0,0
					c-0.2-0.1-0.5-0.1-0.7,0.1l-3.7,2.9C209.6,295.9,209.4,296.2,209.3,296.6z"/>
			</g>
			<g id="XMLID_140_" class="st28">
				<path id="XMLID_145_" class="st4" d="M201.4,318.9l-3.3,3c-0.2,0.2-0.4,0.6-0.5,0.9l4.9,2.8l0-0.3c0.5-0.3,1-0.1,1.3,0.3
					c0,0,0,0,0,0l4.7-2.7L201.4,318.9z"/>
				<path id="XMLID_144_" class="st4" d="M209.7,309.8c0.4-0.6,0.8-1.1,1.2-1.7l-4.7-2.7c-0.2,0.1-0.5,0.2-0.7,0.1l-2.4-0.1
					c-0.3,0-0.7,0.1-1,0.4l7.2,4.1L209.7,309.8z"/>
				<path id="XMLID_143_" class="st4" d="M235.1,298.6c-0.2-0.1-0.4-0.1-0.7,0.1l-3.3,2.2c-0.5,0.3-1,0.1-1.3-0.3
					c-0.2-0.3-0.4-0.5-0.6-0.8c-0.4-0.4-0.6-1.1-0.4-1.6l0.3-0.8l1.4-0.9c0.3-0.2,0.5-0.2,0.7-0.1v0L235.1,298.6z"/>
				<path id="XMLID_142_" class="st4" d="M225.3,297.6c0,0-0.1-0.1-0.1-0.1c-0.4-0.4-0.6-1.1-0.4-1.6l5.3-3.3l-3.9-2.3l0,0
					c-0.1,0-0.2-0.1-0.3-0.1l-2.5-0.6c-0.5-0.1-1.2,0.2-1.4,0.7l-2.3,4.5c-0.1,0.2-0.3,0.4-0.5,0.6l5.3,3.1L225.3,297.6z"/>
				<path id="XMLID_141_" class="st4" d="M209.3,296.6l4.9,2.8l4-3.7c0.1-0.4,0.2-0.9,0.2-0.9l-3.9-2.3l0,0
					c-0.2-0.1-0.5-0.1-0.7,0.1l-3.7,2.9C209.6,295.9,209.4,296.2,209.3,296.6z"/>
			</g>
			<path id="XMLID_137_" class="st0" d="M236,302.7l-0.6-3.6c-0.1-0.5-0.5-0.7-1-0.4l-3.3,2.2c-0.5,0.3-1,0.1-1.3-0.3
				c-0.2-0.3-0.4-0.5-0.6-0.8c-0.4-0.4-0.6-1.1-0.4-1.6l1.7-4.6c0.2-0.5-0.1-1-0.6-1.1l-2.5-0.6c-0.5-0.1-1.2,0.2-1.4,0.7l-2.3,4.5
				c-0.3,0.5-0.9,0.9-1.4,1.1c-0.5,0.1-1,0.3-1.5,0.5c-0.5,0.2-1,0-1.2-0.5l-0.8-2.8c-0.2-0.5-0.6-0.7-1.1-0.3l-3.7,2.9
				c-0.4,0.3-0.7,1-0.7,1.6l0.2,3.6c0,0.5-0.2,1.3-0.6,1.7c-0.6,0.7-1.2,1.5-1.7,2.3c-0.3,0.4-1,0.8-1.5,0.8l-2.4-0.1
				c-0.5,0-1.2,0.4-1.4,0.8l-2.3,5.1c-0.2,0.5,0,1.1,0.5,1.3l1.9,0.8c0.5,0.2,0.8,0.8,0.7,1.3c-0.2,0.8-0.3,1.6-0.4,2.4
				c-0.1,0.5-0.4,1.3-0.8,1.6l-3.3,3c-0.4,0.4-0.6,1.1-0.6,1.6l0.6,3.6c0.1,0.5,0.5,0.7,1,0.4l3.3-2.2c0.5-0.3,1-0.1,1.3,0.3
				c0.2,0.3,0.4,0.5,0.6,0.8c0.4,0.4,0.6,1.1,0.4,1.6l-1.7,4.6c-0.2,0.5,0.1,1,0.6,1.1l2.5,0.6c0.5,0.1,1.2-0.2,1.4-0.7l2.3-4.5
				c0.3-0.5,0.9-0.9,1.4-1.1c0.5-0.1,1-0.3,1.5-0.5c0.5-0.2,1,0,1.2,0.5l0.8,2.8c0.2,0.5,0.6,0.7,1.1,0.3l3.7-2.9
				c0.4-0.3,0.7-1,0.7-1.6l-0.2-3.6c0-0.5,0.2-1.3,0.6-1.7c0.6-0.7,1.2-1.5,1.7-2.3c0.3-0.4,1-0.8,1.5-0.8l2.4,0.1
				c0.5,0,1.2-0.4,1.4-0.8l2.3-5.1c0.2-0.5,0-1.1-0.5-1.3l-1.9-0.8c-0.5-0.2-0.8-0.8-0.7-1.3c0.2-0.8,0.3-1.6,0.4-2.4
				c0.1-0.5,0.4-1.3,0.8-1.6l3.3-3C235.9,304,236.1,303.3,236,302.7z M220.1,322c-4,3.2-7.9,2.3-8.7-1.9c-0.7-4.3,2-10.3,6-13.5
				c4-3.2,7.9-2.3,8.7,1.9C226.8,312.7,224.1,318.8,220.1,322z"/>
		</g>
		<g id="XMLID_114_">
			<path id="XMLID_133_" class="st0" d="M199,289.7l-3.9-2.2l0,0c-0.2-0.1-0.4-0.1-0.6,0l-7,3.2c-0.5,0.2-1,0-1.2-0.5
				c-0.4-1.3-0.9-2.4-1.6-3.5c-0.3-0.5-0.3-1.2-0.1-1.7l4.7-9.4c0.2-0.5,0.1-1.1-0.4-1.4l-5.1-2.9c-0.5-0.3-1.1-0.1-1.4,0.3
				l-5.8,8.7c-0.3,0.5-1,0.8-1.5,0.8c-0.7,0-1.3,0-2,0.1v-6.4l-3.9-2.2v0c-0.2-0.1-0.4-0.1-0.6,0.1l-7.9,4.5
				c-0.5,0.3-0.9,0.9-0.9,1.5l-0.8,8.7c0,0.5-0.4,1.3-0.8,1.6c-1.5,1.4-3,3-4.4,4.6c-0.3,0.4-1,0.6-1.5,0.4l-5-1.8
				c-0.5-0.2-1.1,0.1-1.4,0.5l-5.8,10c-0.3,0.5-0.2,1.1,0.3,1.5l4,3.5c0.4,0.4,0.6,1,0.4,1.6c-0.8,2-1.4,4.1-1.8,6.1
				c-0.1,0.5-0.6,1.2-1,1.5l-7.2,5.1c-0.4,0.3-0.8,1-0.8,1.5v9.1c0,0.3,0.1,0.5,0.3,0.6l0,0l3.9,2.2l5.7-2.7
				c0.2,0.5,0.5,0.9,0.7,1.3c0.3,0.5,0.3,1.2,0.1,1.7l-4.7,9.4c-0.2,0.5-0.1,1.1,0.4,1.4l5.1,2.9c0.5,0.3,1.1,0.1,1.4-0.3l5.8-8.7
				c0.3-0.5,1-0.8,1.5-0.8c1.2,0,2.5-0.1,3.8-0.4c0.5-0.1,1,0.2,1,0.7l0.8,7.6c0,0.3,0.1,0.4,0.3,0.5l0,0l3.9,2.2l4.6-6.8
				c0.5-0.3,0.9-0.9,0.9-1.5l0.8-8.7c0-0.5,0.5-1.1,1-1.3c2.2-0.9,4.5-2.6,6.1-4.3c0.4-0.4,1.1-0.6,1.6-0.4l3.1,1.1
				c0.5,0.2,1.1-0.1,1.4-0.5l5.8-10c0.3-0.5,0.2-1.1-0.3-1.5l-2.7-2.3c-0.4-0.4-0.6-1-0.4-1.6c0.6-2.2,0.8-5.2,0.7-7.3
				c0-0.5,0.3-1.2,0.8-1.5l7.2-5.1c0.4-0.3,0.8-1,0.8-1.5l3.4-4.1L199,289.7z M164.7,325.7c-7.3,4.2-11.9,1.2-11.9-7.2
				c0-8.5,6.1-18.8,13.4-23.1c7.3-4.2,11.8-1.2,11.8,7.3C178,311.2,172.1,321.5,164.7,325.7z"/>
			<path id="XMLID_130_" class="st27" d="M199,289.7l-3.9-2.2l0,0c-0.2-0.1-0.4-0.1-0.6,0l-7,3.2c-0.5,0.2-1,0-1.2-0.5
				c-0.4-1.3-0.9-2.4-1.6-3.5c-0.3-0.5-0.3-1.2-0.1-1.7l4.7-9.4c0.2-0.5,0.1-1.1-0.4-1.4l-5.1-2.9c-0.5-0.3-1.1-0.1-1.4,0.3
				l-5.8,8.7c-0.3,0.5-1,0.8-1.5,0.8c-0.7,0-1.3,0-2,0.1v-6.4l-3.9-2.2v0c-0.2-0.1-0.4-0.1-0.6,0.1l-7.9,4.5
				c-0.5,0.3-0.9,0.9-0.9,1.5l-0.8,8.7c0,0.5-0.4,1.3-0.8,1.6c-1.5,1.4-3,3-4.4,4.6c-0.3,0.4-1,0.6-1.5,0.4l-5-1.8
				c-0.5-0.2-1.1,0.1-1.4,0.5l-5.8,10c-0.3,0.5-0.2,1.1,0.3,1.5l4,3.5c0.4,0.4,0.6,1,0.4,1.6c-0.8,2-1.4,4.1-1.8,6.1
				c-0.1,0.5-0.6,1.2-1,1.5l-7.2,5.1c-0.4,0.3-0.8,1-0.8,1.5v9.1c0,0.3,0.1,0.5,0.3,0.6l0,0l3.9,2.2l5.7-2.7
				c0.2,0.5,0.5,0.9,0.7,1.3c0.3,0.5,0.3,1.2,0.1,1.7l-4.7,9.4c-0.2,0.5-0.1,1.1,0.4,1.4l5.1,2.9c0.5,0.3,1.1,0.1,1.4-0.3l5.8-8.7
				c0.3-0.5,1-0.8,1.5-0.8c1.2,0,2.5-0.1,3.8-0.4c0.5-0.1,1,0.2,1,0.7l0.8,7.6c0,0.3,0.1,0.4,0.3,0.5l0,0l3.9,2.2l4.6-6.8
				c0.5-0.3,0.9-0.9,0.9-1.5l0.8-8.7c0-0.5,0.5-1.1,1-1.3c2.2-0.9,4.5-2.6,6.1-4.3c0.4-0.4,1.1-0.6,1.6-0.4l3.1,1.1
				c0.5,0.2,1.1-0.1,1.4-0.5l5.8-10c0.3-0.5,0.2-1.1-0.3-1.5l-2.7-2.3c-0.4-0.4-0.6-1-0.4-1.6c0.6-2.2,0.8-5.2,0.7-7.3
				c0-0.5,0.3-1.2,0.8-1.5l7.2-5.1c0.4-0.3,0.8-1,0.8-1.5l3.4-4.1L199,289.7z M164.7,325.7c-7.3,4.2-11.9,1.2-11.9-7.2
				c0-8.5,6.1-18.8,13.4-23.1c7.3-4.2,11.8-1.2,11.8,7.3C178,311.2,172.1,321.5,164.7,325.7z"/>
			<g id="XMLID_124_">
				<path id="XMLID_129_" class="st0" d="M187.9,278.7l1.5-3.1c0.2-0.5,0.1-1.1-0.4-1.4l-5.1-2.9c-0.5-0.3-1.1-0.1-1.4,0.3l-5.8,8.7
					c-0.1,0.1-0.2,0.3-0.4,0.4l6.5,3.8L187.9,278.7z"/>
				<path id="XMLID_128_" class="st0" d="M142.5,316.4c-0.2,0.2-0.4,0.5-0.6,0.6l-7.2,5.1c-0.2,0.1-0.3,0.3-0.5,0.5l4.4,2.5l9.5-5.4
					L142.5,316.4z"/>
				<path id="XMLID_127_" class="st0" d="M146.9,292.2c-0.4,0-0.8,0.2-1,0.6l-5.8,10c-0.1,0.2-0.2,0.5-0.1,0.7l5,2.9l7.9-10.7
					L146.9,292.2z"/>
				<path id="XMLID_126_" class="st0" d="M160,278.1l6.2,3.6l7-4v-2.8l-3.9-2.2v0c-0.2-0.1-0.4-0.1-0.6,0.1l-7.9,4.5
					C160.5,277.3,160.2,277.7,160,278.1z"/>
				<path id="XMLID_125_" class="st0" d="M199,289.7L199,289.7c-0.2-0.1-0.4-0.1-0.6,0l-7,3.2c-0.5,0.2-1,0-1.2-0.5
					c-0.3-0.9-0.6-1.7-1-2.5l5.3-2.4c0.2-0.1,0.5-0.1,0.6,0v0L199,289.7z"/>
			</g>
			<g id="XMLID_118_" class="st28">
				<path id="XMLID_123_" class="st4" d="M187.9,278.7l1.5-3.1c0.2-0.5,0.1-1.1-0.4-1.4l-5.1-2.9c-0.5-0.3-1.1-0.1-1.4,0.3l-5.8,8.7
					c-0.1,0.1-0.2,0.3-0.4,0.4l6.5,3.8L187.9,278.7z"/>
				<path id="XMLID_122_" class="st4" d="M142.5,316.4c-0.2,0.2-0.4,0.5-0.6,0.6l-7.2,5.1c-0.2,0.1-0.3,0.3-0.5,0.5l4.4,2.5l9.5-5.4
					L142.5,316.4z"/>
				<path id="XMLID_121_" class="st4" d="M146.9,292.2c-0.4,0-0.8,0.2-1,0.6l-5.8,10c-0.1,0.2-0.2,0.5-0.1,0.7l5,2.9l7.9-10.7
					L146.9,292.2z"/>
				<path id="XMLID_120_" class="st4" d="M160,278.1l6.2,3.6l7-4v-2.8l-3.9-2.2v0c-0.2-0.1-0.4-0.1-0.6,0.1l-7.9,4.5
					C160.5,277.3,160.2,277.7,160,278.1z"/>
				<path id="XMLID_119_" class="st4" d="M199,289.7L199,289.7c-0.2-0.1-0.4-0.1-0.6,0l-7,3.2c-0.5,0.2-1,0-1.2-0.5
					c-0.3-0.9-0.6-1.7-1-2.5l5.3-2.4c0.2-0.1,0.5-0.1,0.6,0v0L199,289.7z"/>
			</g>
			<path id="XMLID_115_" class="st0" d="M199.3,299.4v-9.1c0-0.5-0.4-0.8-0.9-0.6l-7,3.2c-0.5,0.2-1,0-1.2-0.5
				c-0.4-1.3-0.9-2.4-1.6-3.5c-0.3-0.5-0.3-1.2-0.1-1.7l4.7-9.4c0.2-0.5,0.1-1.1-0.4-1.4l-5.1-2.9c-0.5-0.3-1.1-0.1-1.4,0.3
				l-5.8,8.7c-0.3,0.5-1,0.8-1.5,0.8c-1.2,0-2.5,0.1-3.8,0.4c-0.5,0.1-1-0.2-1-0.7l-0.8-7.6c-0.1-0.5-0.5-0.8-0.9-0.5l-7.9,4.5
				c-0.5,0.3-0.9,0.9-0.9,1.5l-0.8,8.7c0,0.5-0.4,1.3-0.8,1.6c-1.5,1.4-3,3-4.4,4.6c-0.3,0.4-1,0.6-1.5,0.4l-5-1.8
				c-0.5-0.2-1.1,0.1-1.4,0.5l-5.8,10c-0.3,0.5-0.2,1.1,0.3,1.5l4,3.5c0.4,0.4,0.6,1,0.4,1.6c-0.8,2-1.4,4.1-1.8,6.1
				c-0.1,0.5-0.6,1.2-1,1.5l-7.2,5.1c-0.4,0.3-0.8,1-0.8,1.5v9.1c0,0.5,0.4,0.8,0.9,0.6l7-3.2c0.5-0.2,1,0,1.2,0.5
				c0.4,1.3,0.9,2.4,1.6,3.5c0.3,0.5,0.3,1.2,0.1,1.7l-4.7,9.4c-0.2,0.5-0.1,1.1,0.4,1.4l5.1,2.9c0.5,0.3,1.1,0.1,1.4-0.3l5.8-8.7
				c0.3-0.5,1-0.8,1.5-0.8c1.2,0,2.5-0.1,3.8-0.4c0.5-0.1,1,0.2,1,0.7l0.8,7.6c0.1,0.5,0.5,0.8,0.9,0.5l7.9-4.5
				c0.5-0.3,0.9-0.9,0.9-1.5l0.8-8.7c0-0.5,0.4-1.3,0.8-1.6c1.5-1.4,3-3,4.4-4.6c0.3-0.4,1-0.6,1.5-0.4l5,1.8
				c0.5,0.2,1.1-0.1,1.4-0.5l5.8-10c0.3-0.5,0.2-1.1-0.3-1.5l-4-3.5c-0.4-0.4-0.6-1-0.4-1.6c0.8-2,1.4-4.1,1.8-6.1
				c0.1-0.5,0.6-1.2,1-1.5l7.2-5.1C199,300.6,199.3,299.9,199.3,299.4z M168.6,327.9c-7.3,4.2-13.3,0.8-13.3-7.7s5.9-18.8,13.3-23
				c7.3-4.2,13.3-0.8,13.3,7.7C181.9,313.4,175.9,323.7,168.6,327.9z"/>
		</g>
	</g>
	<g id="Character_girl_3_">
		<path id="XMLID_30790_" class="st1" d="M289.8,129.3h32.7v-29.3c0-9-7.3-16.3-16.3-16.3l0,0c-9,0-16.3,7.3-16.3,16.3L289.8,129.3z
			"/>
		<g id="XMLID_30761_">
			<g id="Girl_arm_1_">
				<path id="XMLID_30759_" class="st29" d="M300.1,121.4l-23.4,0.9c-0.8-0.7-5.4-6.2-5.4-6.2s-12.7-1.6-12.8-1.2
					c-0.1,0.5,12.5,13.9,13.7,15.3c0.7,0.8,1.3,1.4,3,1.4c3.3,0.2,21.4,1.3,21.4,1.3L300.1,121.4z"/>
			</g>
			<g id="Tab_2_">
				<g id="XMLID_30733_">
					<path id="XMLID_30736_" class="st0" d="M179.7,226.7l-0.7-0.4c-1.1-0.6-2-2.2-2-3.5l0-71.8c0-1.3,0.9-2.8,2-3.5l92.2-53.2
						c1.1-0.6,2.9-0.6,4,0l0.7,0.4c1.1,0.6,2,2.2,2,3.5l0,71.8c0,1.3-0.9,2.8-2,3.5l-92.2,53.2C182.6,227.4,180.8,227.4,179.7,226.7
						z"/>
					<path id="XMLID_30743_" class="st30" d="M278,97.9c-0.1-1-1-1.4-2-0.8l-92.2,53.2c-0.6,0.3-1.1,0.9-1.4,1.5l-4.7-2.7
						c0.4-0.6,0.9-1.2,1.4-1.5l92.2-53.2c1.1-0.6,2.9-0.6,4,0l0.7,0.4C277,95.3,277.8,96.7,278,97.9z"/>
					<path id="XMLID_30749_" class="st27" d="M183.4,226.9c-1.1,0.5-2.7,0.4-3.7-0.2l-0.7-0.4c-1.1-0.6-2-2.2-2-3.5v-71.8
						c0-0.6,0.2-1.4,0.6-2l4.7,2.7c-0.4,0.6-0.6,1.4-0.6,2v71.8C181.7,226.7,182.4,227.3,183.4,226.9z"/>
				</g>
				<g id="XMLID_2155_">
					<path id="XMLID_678_" class="st26" d="M191,154.2l6.9-4c0.5-0.3,0.9-0.1,0.9,0.5l0,7.8c0,0.6-0.4,1.3-0.9,1.6l-6.9,3.9
						c-0.5,0.3-0.9,0-0.9-0.5v-7.7C190.1,155.2,190.5,154.5,191,154.2z"/>
					<g id="XMLID_1665_">
						<path id="XMLID_2202_" class="st2" d="M197.1,159c-0.2,0.1-0.4,0.1-0.6,0l-2.1-1.6c-0.3-0.2-0.3-0.8,0.1-1.3
							c0.3-0.5,0.8-0.8,1.1-0.6l1.5,1.1l4.1-8.9c0.3-0.6,0.8-0.9,1.1-0.8c0.4,0.1,0.4,0.6,0.2,1.2l-4.7,10.2
							C197.6,158.6,197.3,158.9,197.1,159C197.1,159,197.1,159,197.1,159z"/>
					</g>
				</g>
				<g id="XMLID_2211_">
					<path id="XMLID_2214_" class="st26" d="M191,171.2l6.9-4c0.5-0.3,0.9-0.1,0.9,0.5l0,7.8c0,0.6-0.4,1.3-0.9,1.6L191,181
						c-0.5,0.3-0.9,0-0.9-0.5v-7.7C190.1,172.2,190.5,171.5,191,171.2z"/>
					<g id="XMLID_2212_">
						<path id="XMLID_2213_" class="st2" d="M197.1,176c-0.2,0.1-0.4,0.1-0.6,0l-2.1-1.6c-0.3-0.2-0.3-0.8,0.1-1.3
							c0.3-0.5,0.8-0.8,1.1-0.6l1.5,1.1l4.1-8.9c0.3-0.6,0.8-0.9,1.1-0.8c0.4,0.1,0.4,0.6,0.2,1.2l-4.7,10.2
							C197.6,175.6,197.3,175.9,197.1,176C197.1,176,197.1,176,197.1,176z"/>
					</g>
				</g>
				<g id="XMLID_2215_">
					<path id="XMLID_2218_" class="st26" d="M191,188.2l6.9-4c0.5-0.3,0.9-0.1,0.9,0.5l0,7.8c0,0.6-0.4,1.3-0.9,1.6L191,198
						c-0.5,0.3-0.9,0-0.9-0.5v-7.7C190.1,189.2,190.5,188.5,191,188.2z"/>
					<g id="XMLID_2216_">
						<path id="XMLID_2217_" class="st2" d="M197.1,193c-0.2,0.1-0.4,0.1-0.6,0l-2.1-1.6c-0.3-0.2-0.3-0.8,0.1-1.3
							c0.3-0.5,0.8-0.8,1.1-0.6l1.5,1.1l4.1-8.9c0.3-0.6,0.8-0.9,1.1-0.8c0.4,0.1,0.4,0.6,0.2,1.2l-4.7,10.2
							C197.6,192.6,197.3,192.8,197.1,193C197.1,193,197.1,193,197.1,193z"/>
					</g>
				</g>
				<g id="XMLID_2219_">
					<path id="XMLID_2222_" class="st26" d="M191,205.3l6.9-4c0.5-0.3,0.9-0.1,0.9,0.5l0,7.8c0,0.6-0.4,1.3-0.9,1.6l-6.9,3.9
						c-0.5,0.3-0.9,0-0.9-0.5v-7.7C190.1,206.3,190.5,205.6,191,205.3z"/>
					<g id="XMLID_2220_">
						<path id="XMLID_2221_" class="st2" d="M197.1,210.1c-0.2,0.1-0.4,0.1-0.6,0l-2.1-1.6c-0.3-0.2-0.3-0.8,0.1-1.3
							c0.3-0.5,0.8-0.8,1.1-0.6l1.5,1.1l4.1-8.9c0.3-0.6,0.8-0.9,1.1-0.8c0.4,0.1,0.4,0.6,0.2,1.2l-4.7,10.2
							C197.6,209.6,197.3,209.9,197.1,210.1C197.1,210,197.1,210.1,197.1,210.1z"/>
					</g>
				</g>
				<path id="XMLID_2210_" class="st21" d="M207.5,146.9c0,0.9,0.8,1.2,1.8,0.7l26.4-15.2c1-0.6,1.8-1.8,1.8-2.8s-0.8-1.2-1.8-0.7
					l-26.4,15.2C208.3,144.7,207.5,146,207.5,146.9z"/>
				<path id="XMLID_2225_" class="st25" d="M207.5,152.7c0,0.9,0.8,1.2,1.8,0.7l56.4-32.5c1-0.6,1.8-1.8,1.8-2.8
					c0-0.9-0.8-1.2-1.8-0.7l-56.4,32.5C208.3,150.5,207.5,151.7,207.5,152.7z"/>
				<path id="XMLID_2227_" class="st21" d="M207.5,163.6c0,0.9,0.8,1.2,1.8,0.7l26.4-15.2c1-0.6,1.8-1.8,1.8-2.8s-0.8-1.2-1.8-0.7
					l-26.4,15.2C208.3,161.4,207.5,162.6,207.5,163.6z"/>
				<path id="XMLID_2226_" class="st25" d="M207.5,169.3c0,0.9,0.8,1.2,1.8,0.7l56.4-32.5c1-0.6,1.8-1.8,1.8-2.8
					c0-0.9-0.8-1.2-1.8-0.7l-56.4,32.5C208.3,167.1,207.5,168.3,207.5,169.3z"/>
				<path id="XMLID_2231_" class="st21" d="M207.5,181.2c0,0.9,0.8,1.2,1.8,0.7l26.4-15.2c1-0.6,1.8-1.8,1.8-2.8
					c0-0.9-0.8-1.2-1.8-0.7l-26.4,15.2C208.3,179.1,207.5,180.3,207.5,181.2z"/>
				<path id="XMLID_2228_" class="st25" d="M207.5,187c0,0.9,0.8,1.2,1.8,0.7l56.4-32.5c1-0.6,1.8-1.8,1.8-2.8
					c0-0.9-0.8-1.2-1.8-0.7l-56.4,32.5C208.3,184.8,207.5,186,207.5,187z"/>
				<path id="XMLID_2243_" class="st21" d="M207.5,198.9c0,0.9,0.8,1.2,1.8,0.7l26.4-15.2c1-0.6,1.8-1.8,1.8-2.8
					c0-0.9-0.8-1.2-1.8-0.7l-26.4,15.2C208.3,196.7,207.5,198,207.5,198.9z"/>
				<path id="XMLID_2242_" class="st25" d="M207.5,204.6c0,0.9,0.8,1.2,1.8,0.7l56.4-32.5c1-0.6,1.8-1.8,1.8-2.8
					c0-0.9-0.8-1.2-1.8-0.7l-56.4,32.5C208.3,202.5,207.5,203.7,207.5,204.6z"/>
			</g>
		</g>
		<g id="XMLID_30720_">
			<g id="XMLID_30731_">
				<path id="XMLID_30732_" class="st1" d="M289.5,280.2c-1.9,2.1-4,3.7-6.2,5.4c-0.3,0.2-0.7,0.5-0.9,0.9c-0.3,0.6-0.7,2.1,2,3.1
					c2.7,0.9,6.1,0.7,8.5-0.8c2.3-1.4,2.4-4.4,4.5-6.1c1.6-1.3,3.6-1.6,4.9-3.2c0.9-1.1,0.7-2.7,0.2-4.5c-0.5-2-0.7-3.6-1.4-3.4
					l0.1,0.9c-0.8,1.3-5.2,1.7-7.2,0.8C294.1,273.2,290.7,278.8,289.5,280.2z"/>
			</g>
			<g id="XMLID_30729_">
				<path id="XMLID_30730_" class="st29" d="M287.6,282.1C287.6,282.1,287.6,282.1,287.6,282.1c0.7-0.6,1.3-1.2,1.9-1.9
					c0.8-0.9,2.5-3.5,3.6-5.3c0.7-1.1,1.2-2.4,1-3.8c-0.2-1.4-0.5-5-0.5-5l6.9-0.5l0.8,6.8l0,0c0.2,1.5-1.1,2.9-3.4,4.9
					c-2.3,1.9-5.1,6.5-7.2,7.6c-2,1.1-3.5,1.1-4.4,0.5C285.5,284.8,285.4,284.3,287.6,282.1z"/>
			</g>
			<g id="XMLID_30727_">
				<path id="XMLID_30728_" class="st1" d="M320.7,280.8v-1c-0.4,1.2-2.3,6.5-5.2,9.1c-2.3,2.1-5.4,4.5-6.2,6.9
					c-0.8,2.4,4.4,3.3,6.5,2.9c2.5-0.4,5.7-1.9,7.5-4c1.2-1.5,2-3.3,2.9-4.5c0.9-1.2,2.9-2.5,3.4-3.9c0.3-0.8,0-2.4-0.4-3.8
					c-0.3-1.3-0.7-2.7-1.1-2.6c0,0.2,0,0.8,0,0.8c-0.5,0.6-2,1.2-3.6,1.2C323.3,281.8,320.7,281.6,320.7,280.8z"/>
			</g>
			<g id="XMLID_30725_">
				<path id="XMLID_30726_" class="st29" d="M313.4,290.7c0.7-0.6,1.4-1.3,2.1-1.9c2-1.8,3.6-5,4.5-7.1c0.5-1.2,0.8-2.5,0.8-3.8
					v-4.2h7.3v6.8v0v0v0.2l0,0c-0.4,1.5-3.7,5.6-5.6,8.2c-1.3,1.8-3.7,4-6.6,4.4C313,293.7,311.6,292.8,313.4,290.7z"/>
			</g>
			<g id="XMLID_30723_">
				<path id="XMLID_30724_" class="st0" d="M326.5,167.4c5.7,12.4-0.2,55.9-0.2,55.9c0.2,2,2.5,6,3.3,14.8c1,10.4-1.6,36.6-1.6,36.6
					s-3.4,2.2-7.4,0.3c0,0-7-39.4-8.3-49.8c-1.1-9-3.3-30.3-3.3-30.3l-6.6,30.3c0,0,1.3,5,1.3,9c-0.1,6.1-3,33-3,33
					s-2.5,1.5-7.3,0.8c0,0-4.6-35.3-4.5-43.5c0.1-4.4,2-51.2,2-51.2L326.5,167.4z"/>
			</g>
			<g id="XMLID_30721_">
				<path id="XMLID_30722_" class="st1" d="M309.1,194.8l-1.8-10.1c0,0-7.8-1.6-11.3-4.9c0,0,3.7,4.6,9.2,6.1l2.1,8.8l-3.7,26
					L309.1,194.8z"/>
			</g>
		</g>
		<g id="XMLID_30694_">
			<g id="XMLID_30695_">
				<path id="XMLID_30789_" class="st1" d="M309.8,84.8l0.4-4.3c-1.2-0.1-2.3,0.7-2.4,1.9C307.7,83.5,308.6,84.6,309.8,84.8z"/>
				<path id="XMLID_30788_" class="st1" d="M310,85.2l3.5-2.5c-0.7-1-2-1.2-3-0.5C309.6,82.8,309.3,84.2,310,85.2z"/>
				<g id="XMLID_30713_">
					<path id="XMLID_30714_" class="st2" d="M313.6,121.7c0,0,8.3,0.7,9.5,1.2c-6,6.5,3.1,9.3,3.1,9.3l-6.2,22.3
						c3.7,5.7,6.1,10.1,7.5,15.7c-4.2,7.4-27.8,8.4-36.5,2.9c0.8-10.3,2.4-17.7,1.9-20.8c-2.9-12.7-2.8-15.4-2.5-18.3
						c0.8-5.7,6.4-10.6,9.6-12.7c0,0,2.4,0,3,0L313.6,121.7z"/>
				</g>
				<g id="XMLID_30711_">
					<path id="XMLID_30712_" class="st29" d="M296.7,91.7c-1.8,1-3.9,5.5-3.7,14.7c0.2,7.9,2.7,9.8,4,10.4c1.3,0.6,3.7,0.2,6.1-0.2
						v4.7c0,0-3.3,3.9-3.1,6c0.2,2.2,4.8,2.7,7.9,0.6c3.1-2.1,5.7-6.2,5.7-6.2l-0.1-10.8c0,0,1.4,1.4,3.8-0.7c2-1.7,2.6-4.6,1.1-6.2
						c-1.5-1.6-4.4-1.1-5.5,1.1c-0.7,1.4-2.2,1.5-2.2-0.2c-0.1-8.4-1.1-8.8-1.9-12.2C303.9,91,300.3,91.6,296.7,91.7z"/>
				</g>
				<g id="XMLID_30708_">
					<path id="XMLID_30709_" class="st1" d="M301.7,104.5c0,0.6,0.4,1,0.9,1.1c0.5,0,1-0.4,1-1c0-0.6-0.4-1-0.9-1.1
						C302.2,103.5,301.8,103.9,301.7,104.5z"/>
				</g>
				<g id="XMLID_30706_">
					<path id="XMLID_30707_" class="st31" d="M301.5,111.2l-2.3,0.7c0.2,0.7,0.9,1,1.5,0.8C301.3,112.5,301.7,111.8,301.5,111.2z"/>
				</g>
				<g id="XMLID_30704_">
					<path id="XMLID_30705_" class="st1" d="M293.8,101.9l2-1.4c-0.4-0.6-1.1-0.7-1.7-0.3C293.6,100.5,293.4,101.3,293.8,101.9z"/>
				</g>
				<g id="XMLID_30702_">
					<path id="XMLID_30703_" class="st1" d="M304.6,102.2l-2-1.4c0.4-0.6,1.1-0.7,1.7-0.3C304.8,100.8,305,101.6,304.6,102.2z"/>
				</g>
				<g id="XMLID_30700_">
					<path id="XMLID_30701_" class="st1" d="M294.1,103.8c0,0.6,0.4,1,0.9,1.1c0.5,0,1-0.4,1-1c0-0.6-0.4-1-0.9-1.1
						C294.6,102.8,294.1,103.2,294.1,103.8z"/>
				</g>
				<g id="XMLID_30698_">
					<polygon id="XMLID_30699_" class="st31" points="298.8,103.2 298.6,109.2 295.5,108.2 					"/>
				</g>
				<g id="XMLID_30696_">
					<path id="XMLID_30697_" class="st31" d="M303.1,116.7c2.5-0.3,7.7-1.8,8.5-3.9c0,0-0.3,1.3-1.8,2.6c-1.6,1.3-6.7,2.8-6.7,2.8
						V116.7z"/>
				</g>
				<path id="XMLID_30787_" class="st1" d="M301.9,84.8L301.9,84.8c-7.6,0-13.7,6.1-13.7,13.7v1.8h6.7c3.1,0,5.8-2.3,6.2-5.4h0
					l0.2,5.4l0,0c2.6,0,4.7-2,4.9-4.5l0.1-0.9l0,0c0.2,3.1,2.8,5.4,5.9,5.4h0.6l0.7-9.7L301.9,84.8z"/>
			</g>
		</g>
		<g id="XMLID_30692_">
			<path id="XMLID_30693_" class="st29" d="M317.7,126.6c-1.9,2.8-12.5,26-12.5,26s-16-1.1-22.8-1.8c-2.1-0.2-1.7-2.5-2.5-4.8
				c-0.9-2.3-1.9-1.8-1.9-1.8v3c0.1,2-3.3,3.1-4.7,3.7c-2.4,0.9-5,1.5-7.4,2.3c-0.8,0.3-1.7,0.6-2.2,1.3c-0.4,0.7-0.3,1.6,0.1,2.2
				c1.1,2,3.3,3.1,5.5,3.4c2.7,0.3,5.4-0.5,8-0.9c3.1-0.6,5.5-1,8.6-0.6c3,0.4,6.9,1.2,9.8,1.8c3.4,0.6,8.5,1.2,11.4,1.3
				c2.1,0.1,3.7-0.3,5.5-2.9c1.8-2.6,12-23.5,12-23.5c4.2-6,1.8-11.1-1.3-12.2C321.3,122.4,319.5,123.9,317.7,126.6z"/>
		</g>
		<path id="XMLID_30691_" class="st29" d="M253.1,104.2c0.8,0.1,1.6,0.3,2.4,0.6c1.9,0.7,3.7,2,4.8,3.7c0.5,0.8,0.7,2,0.6,2.9
			c0,0.3-0.1,0.5-0.2,0.7c-0.2,0.4-0.7,0.7-1.1,0.9c-1.8,1-3,1-4.8,0.1c-2-1.1-4-2.1-6.2-2.8c-1.1-0.3-2.2-0.5-3.3-0.6
			c-0.7,0-1.2,0.3-1.8,0.7c-0.4-1-0.2-1.8,0.5-2.7c1.1-1.5,2.7-2.6,4.4-3.1C249.8,104.1,251.5,104,253.1,104.2z"/>
	</g>
	<g id="XMLID_1_">
		<g id="XMLID_17_">
			<circle id="XMLID_42_" class="st1" cx="76.2" cy="162.6" r="10.5"/>
			
				<rect id="XMLID_41_" x="51.1" y="340" transform="matrix(-1 -1.224647e-16 1.224647e-16 -1 109.5301 692.7216)" class="st29" width="7.4" height="12.6"/>
			<polygon id="XMLID_40_" class="st29" points="76.7,339.4 84.1,339.6 84.4,326.2 76.7,326 			"/>
			<path id="XMLID_39_" class="st2" d="M51.6,231.7c0,7.1-0.9,57.9-0.9,57.9c-0.2,2-2.1,5.8-1.7,13.6c0.6,10.6,1.8,43.2,1.8,43.2
				s3.6,2.1,8.2,0.2c0,0,6.5-43.3,7.8-53.8c1.2-9.2,3.1-34,3.1-34l4,29.9c0,0-1.4,5.5-0.9,11.7c0.3,4.9,3.2,34.9,3.2,34.9
				s3.5,2.4,8.5,0.7c0,0,3.7-42.8,3.8-47.3c0.1-5.1-2.5-56.9-2.5-56.9H51.6z"/>
			<path id="XMLID_38_" class="st0" d="M85.1,188.7c4.3,3.6,12.2,10.8,12.2,10.8L85,206.2l-7.8-20.8
				C77.3,185.4,80.3,184.8,85.1,188.7z"/>
			<path id="XMLID_37_" class="st27" d="M85.1,188.7c4.3,3.6,12.2,10.8,12.2,10.8L85,206.2l-7.8-20.8
				C77.3,185.4,80.3,184.8,85.1,188.7z"/>
			<path id="XMLID_36_" class="st0" d="M54.1,190.5c0,0-2.8,2.8-2.8,9.5v14.5l-0.2,27.3c10.6,5.6,24,5.9,35.3-2.3
				c0,0-0.5-35.1-0.5-40.9c0-5.8-3.2-13.2-12-13.7l-11.4,2.6L54.1,190.5z"/>
			<g id="XMLID_21_">
				<g id="XMLID_29_">
					<path id="XMLID_35_" class="st1" d="M58.1,170.1c0,0,1.7,8,2.4,9.3c0.7,1.3,2.1,1.7,2.1,1.7l-0.1-5.6L58.1,170.1z"/>
					<path id="XMLID_34_" class="st1" d="M60.2,158.6c0,0-1.8-0.3-3.3,1.1c-1.4,1.4-0.6,5.9,1.1,10.3l3.2,0.4L60.2,158.6z"/>
					<path id="XMLID_33_" class="st29" d="M62.2,170.4c-0.6,0.4-1.6-0.8-2.3-1.7c-0.8-0.8-3.4-2-4.7,0.8c-1.3,2.8,1.1,6.4,3.2,7.1
						c3.5,1.1,4-1.1,4-1.1l0.3,12.6c0,0,3,5,10.8,6.2c4,0.6,4.9-3.2,0.6-6.5l0-3.8c0,0,3.2,0.5,4.7,0.2c2.6-0.4,4.2-2.4,5-5.2
						c1.3-4.5,1.7-8.1,0.7-16.9c-1.2-9.7-12.4-9.8-18.5-5.9C59.9,159.9,62.2,170.4,62.2,170.4z"/>
					<path id="XMLID_32_" class="st1" d="M62.2,171.5c-0.3,0-1.6-2-2.3-2.8c-1.1-1,0.3-10.1,0.3-10.1s-1.1-2.3,1.1-4.6
						c1.5-1.7,4.1-1.9,8.4-2.5c2.3-0.4,5.7-1,8-1.4c2.7-0.5,4.9-1,6.9,0.6c1.5,1.3,2.1,3.6,1.3,5.4c-0.2,0.4-0.5,0.8-0.8,1.1
						c-0.5,0.6-1.2,1.1-1.9,1.3c0,0-1.2,1-5.3,1.5c-4.1,0.5-10.5-0.1-11.4-0.2c-1.2-0.2-1.4,1-2.1,4.1
						C63.8,166.8,63.3,171.5,62.2,171.5z"/>
					<path id="XMLID_31_" class="st1" d="M60.2,159.3l-3.9-2.1c0.6-1.1,1.9-1.5,2.9-1C60.3,156.9,60.7,158.2,60.2,159.3z"/>
					<path id="XMLID_30_" class="st31" d="M74.1,183.9c0,0-5.8-1.2-7.8-2.2c-1.3-0.7-2.5-2-2.8-2.8c0,0,0.4,1.7,1.6,3.2
						c1.5,1.9,9,3.3,9,3.3L74.1,183.9z"/>
				</g>
				<g id="XMLID_22_">
					<path id="XMLID_28_" class="st1" d="M72.7,169c0,0.7-0.5,1.2-1.2,1.2c-0.6,0-1.2-0.5-1.2-1.2c0-0.7,0.5-1.2,1.2-1.2
						C72.2,167.8,72.7,168.3,72.7,169z"/>
					<path id="XMLID_27_" class="st1" d="M71.5,164.7L69,166c-0.4-0.7-0.1-1.6,0.6-2C70.3,163.7,71.1,163.9,71.5,164.7z"/>
					<path id="XMLID_26_" class="st31" d="M73.5,177l2.6,1c-0.3,0.8-1.1,1.1-1.8,0.9C73.7,178.6,73.3,177.7,73.5,177z"/>
					<path id="XMLID_25_" class="st1" d="M83,165.6l-2.2-1.7c0.5-0.6,1.3-0.8,2-0.3C83.3,164.1,83.4,165,83,165.6z"/>
					<path id="XMLID_24_" class="st1" d="M82.3,168.7c0,0.7-0.5,1.2-1.2,1.2c-0.6,0-1.2-0.5-1.2-1.2c0-0.7,0.5-1.2,1.2-1.2
						C81.8,167.5,82.3,168,82.3,168.7z"/>
					<polygon id="XMLID_23_" class="st31" points="76.4,167.6 76.8,174.5 80.4,173.3 					"/>
				</g>
			</g>
			<path id="XMLID_20_" class="st1" d="M58.5,349V348c0.7,0.3,2.3,6.6,5.3,9.2c2.3,2.1,5.5,4.6,6.3,6.9c0.8,2.5-4.4,3.8-6.6,3.4
				c-2.5-0.4-6.9-2.2-8-3.9c-1.1-1.7-1.6-4.1-2.5-5.3c-0.9-1.2-3-2.6-3.4-4c-0.3-0.8,0-2.5,0.4-3.9c0.3-1.3,0.7-2.7,1.2-2.6
				c0,0.2,0,0.8,0,0.8c0.5,0.6,2,1.2,3.7,1.2C55.8,350.1,58.5,349.9,58.5,349z"/>
			<path id="XMLID_19_" class="st1" d="M84.1,337.3c0.4,0,0.7,0.6,1.5,1.5c1,1.1,2.7,2.3,4.3,3.1c2.8,1.4,8.1,3.5,10.6,4.6
				c1.5,0.7,1.4,2.5-0.1,3.6c-1.6,1-5.4,1.8-9.9,0.8c-2.5-0.6-5.7-2.8-7.8-2.7c-2,0.1-5.9,0.1-7.4-0.9c-1.5-1-0.9-3.3-0.5-5.2
				c0.5-2.1,1-5.3,1.7-5.2v0.7c0.9,1.3,5.5,1.9,7.4,0.9L84.1,337.3z"/>
			<path id="XMLID_18_" class="st1" d="M69.9,258.7c0,0,5.9-1.7,10.3-5.9c0,0-2,3.7-7.9,7.2l1.3,26.1L69.9,258.7z"/>
		</g>
		<g id="XMLID_8_">
			<path id="XMLID_16_" class="st24" d="M79.1,286.7l-0.7-0.4c-1.1-0.6-2-2.2-2-3.5l0-71.8c0-1.3,0.9-2.8,2-3.5l62.2-35.9
				c1.1-0.6,2.9-0.6,4,0l0.7,0.4c1.1,0.6,2,2.2,2,3.5l0,71.8c0,1.3-0.9,2.8-2,3.5l-62.2,35.9C82.1,287.3,80.3,287.3,79.1,286.7z"/>
			<g id="XMLID_12_">
				<path id="XMLID_15_" class="st21" d="M113.1,200.9c10.8-6.2,19.5-1.2,19.5,11.3c0,12.4-8.7,27.6-19.5,33.8
					c-10.8,6.2-19.5,1.2-19.5-11.3C93.6,222.2,102.3,207.1,113.1,200.9z"/>
				<path id="XMLID_14_" class="st0" d="M113,210.6c3.5-2,6.3-0.4,6.3,3.7c0,4-2.8,8.9-6.3,11c-3.5,2-6.3,0.4-6.3-3.7
					C106.6,217.6,109.5,212.7,113,210.6z"/>
				<path id="XMLID_13_" class="st0" d="M125.4,232.2c0-6.6-4.7-9.3-10.4-6l-3.6,2.1c-5.7,3.3-10.4,11.4-10.4,18v1.8
					c3.3,1.1,7.5,0.5,12.1-2.1c4.7-2.7,9-7.1,12.3-12.2V232.2z"/>
			</g>
			<path id="XMLID_11_" class="st26" d="M147.4,175.1c-0.1-1-1-1.4-2-0.8l-62.2,35.9c-0.6,0.3-1.1,0.9-1.4,1.5L77,209
				c0.4-0.6,0.9-1.2,1.4-1.5l62.2-35.9c1.1-0.6,2.9-0.6,4,0l0.7,0.4C146.4,172.6,147.2,173.9,147.4,175.1z"/>
			<path id="XMLID_10_" class="st22" d="M82.8,286.8c-1.1,0.5-2.7,0.4-3.7-0.2l-0.7-0.4c-1.1-0.6-2-2.2-2-3.5V211
				c0-0.6,0.2-1.4,0.6-2l4.7,2.7c-0.4,0.6-0.6,1.4-0.6,2v71.8C81.2,286.7,81.9,287.2,82.8,286.8z"/>
			<path id="XMLID_9_" class="st0" d="M91.6,268.8L91.6,268.8c0,2.1,1.4,2.9,3.2,1.9l36.5-21.1c1.8-1,3.2-3.5,3.2-5.5v0
				c0-2-1.4-2.9-3.2-1.8l-36.5,21.1C93.1,264.2,91.6,266.7,91.6,268.8z"/>
		</g>
		<g id="XMLID_3_">
			<g id="XMLID_6_">
				<path id="XMLID_7_" class="st29" d="M42.2,233.7c-3.8-2.6-3.7-6.6-2.5-11c8.2-30.5,10.8-30.7,14.4-32.2l2.9,12l-7.7,25
					c5.8,4.1,11.7,6.9,17.2,8.1c1,0.2,3,0.1,3.8-0.4c2.3-1.3,3.7-1.3,6.1-2l0,3.9c0,0,2.8,0.5,6.5-0.2c5-0.9,7.2,0.1,4.1,5.8
					c-1.9,3.6-5.6,4.8-14.9,3.1c-2.7-0.5-6.8-1.5-10-2.6C53.6,240.4,46.3,236.6,42.2,233.7z"/>
			</g>
			<path id="XMLID_5_" class="st0" d="M54.1,190.5c0,0,3.5,2.2,4.3,7.8c0.8,5.6-4.6,20.8-4.6,20.8s-8.7-0.8-12.3-5.1
				c0,0,5-13.9,6-17C48.9,192,52.7,191,54.1,190.5z"/>
			<path id="XMLID_4_" class="st27" d="M54.1,190.5c0,0,3.5,2.2,4.3,7.8c0.8,5.6-4.6,20.8-4.6,20.8s-8.7-0.8-12.3-5.1
				c0,0,5-13.9,6-17C48.9,192,52.7,191,54.1,190.5z"/>
		</g>
		<path id="XMLID_2_" class="st29" d="M147.4,192.5l0,4.4c0,0-2.4,3.7-5,5c-2.6,1.3-2.6,6.7,0.7,7.5c3.2,0.8,7.6-3.2,8-5.4
			C151.4,201.8,150.6,192.2,147.4,192.5z"/>
	</g>
</g>
</svg>
