<svg width="175" height="46" viewBox="0 0 175 46" fill="none" xmlns="http://www.w3.org/2000/svg">
<rect width="175" height="46" rx="6" fill="black"/>
<path d="M19 10.3828H30.4286V21.8113H19V10.3828Z" fill="#F35325"/>
<path d="M31.5713 10.3828H42.9999V21.8113H31.5713V10.3828Z" fill="#81BC06"/>
<path d="M19 22.9541H30.4286V34.3827H19V22.9541Z" fill="#05A6F0"/>
<path d="M31.5713 22.9541H42.9999V34.3827H31.5713V22.9541Z" fill="#FFBA08"/>
<path d="M53.033 14C53.369 14 53.687 14.048 53.987 14.144C54.287 14.234 54.554 14.366 54.788 14.54C55.022 14.708 55.22 14.918 55.382 15.17C55.55 15.422 55.667 15.704 55.733 16.016H54.842C54.734 15.65 54.527 15.353 54.221 15.125C53.921 14.891 53.51 14.774 52.988 14.774C52.7 14.774 52.43 14.831 52.178 14.945C51.932 15.053 51.716 15.218 51.53 15.44C51.344 15.656 51.197 15.926 51.089 16.25C50.987 16.574 50.936 16.946 50.936 17.366C50.936 17.78 50.987 18.149 51.089 18.473C51.191 18.797 51.332 19.073 51.512 19.301C51.692 19.523 51.908 19.694 52.16 19.814C52.412 19.928 52.688 19.985 52.988 19.985C53.204 19.985 53.426 19.961 53.654 19.913C53.882 19.859 54.089 19.769 54.275 19.643C54.461 19.511 54.614 19.334 54.734 19.112C54.854 18.89 54.914 18.611 54.914 18.275V18.104H53.186V17.312H55.778V20.642H55.058L55.013 19.823C54.803 20.159 54.515 20.399 54.149 20.543C53.789 20.687 53.39 20.759 52.952 20.759C52.484 20.759 52.067 20.675 51.701 20.507C51.335 20.339 51.026 20.105 50.774 19.805C50.522 19.505 50.33 19.148 50.198 18.734C50.066 18.32 50 17.864 50 17.366C50 16.862 50.072 16.403 50.216 15.989C50.36 15.575 50.564 15.221 50.828 14.927C51.092 14.633 51.41 14.405 51.782 14.243C52.154 14.081 52.571 14 53.033 14ZM59.1308 20.759C58.7408 20.759 58.3988 20.696 58.1048 20.57C57.8168 20.438 57.5738 20.258 57.3758 20.03C57.1778 19.802 57.0278 19.535 56.9258 19.229C56.8298 18.923 56.7818 18.59 56.7818 18.23C56.7818 17.846 56.8388 17.501 56.9528 17.195C57.0728 16.883 57.2348 16.619 57.4388 16.403C57.6488 16.181 57.8948 16.013 58.1768 15.899C58.4588 15.779 58.7678 15.719 59.1038 15.719C59.4758 15.719 59.8058 15.791 60.0938 15.935C60.3878 16.079 60.6308 16.277 60.8228 16.529C61.0148 16.781 61.1528 17.075 61.2368 17.411C61.3268 17.747 61.3598 18.107 61.3358 18.491H57.6728C57.6728 18.731 57.7088 18.947 57.7808 19.139C57.8588 19.331 57.9638 19.493 58.0958 19.625C58.2278 19.757 58.3808 19.859 58.5548 19.931C58.7288 20.003 58.9148 20.039 59.1128 20.039C59.4908 20.039 59.7788 19.967 59.9768 19.823C60.1748 19.673 60.3248 19.478 60.4268 19.238H61.2728C61.2188 19.448 61.1318 19.646 61.0118 19.832C60.8918 20.012 60.7418 20.171 60.5618 20.309C60.3878 20.447 60.1808 20.558 59.9408 20.642C59.7008 20.72 59.4308 20.759 59.1308 20.759ZM59.1038 16.421C58.6898 16.421 58.3538 16.541 58.0958 16.781C57.8378 17.015 57.6998 17.351 57.6818 17.789H60.4718C60.4658 17.621 60.4328 17.456 60.3728 17.294C60.3128 17.126 60.2258 16.979 60.1118 16.853C59.9978 16.721 59.8568 16.616 59.6888 16.538C59.5208 16.46 59.3258 16.421 59.1038 16.421ZM62.5344 14.585H63.3534V15.8H64.2714V16.457H63.3534V19.328C63.3534 19.454 63.3564 19.559 63.3624 19.643C63.3744 19.721 63.3954 19.784 63.4254 19.832C63.4614 19.88 63.5124 19.913 63.5784 19.931C63.6444 19.949 63.7374 19.958 63.8574 19.958H64.2714V20.642H63.6774C63.4434 20.642 63.2514 20.627 63.1014 20.597C62.9574 20.561 62.8434 20.501 62.7594 20.417C62.6754 20.327 62.6154 20.204 62.5794 20.048C62.5494 19.886 62.5344 19.679 62.5344 19.427V16.457H61.7694V15.8H62.5344V14.585ZM68.1819 15.8V20.642H67.3629V15.8H68.1819ZM68.1819 14.117V15.107H67.3629V14.117H68.1819ZM69.715 14.585H70.534V15.8H71.452V16.457H70.534V19.328C70.534 19.454 70.537 19.559 70.543 19.643C70.555 19.721 70.576 19.784 70.606 19.832C70.642 19.88 70.693 19.913 70.759 19.931C70.825 19.949 70.918 19.958 71.038 19.958H71.452V20.642H70.858C70.624 20.642 70.432 20.627 70.282 20.597C70.138 20.561 70.024 20.501 69.94 20.417C69.856 20.327 69.796 20.204 69.76 20.048C69.73 19.886 69.715 19.679 69.715 19.427V16.457H68.95V15.8H69.715V14.585ZM74.7505 15.449C74.7505 15.197 74.7655 14.987 74.7955 14.819C74.8315 14.645 74.8945 14.507 74.9845 14.405C75.0805 14.303 75.2125 14.231 75.3805 14.189C75.5545 14.141 75.7795 14.117 76.0555 14.117H76.4785V14.801H76.0735C75.9655 14.801 75.8785 14.81 75.8125 14.828C75.7465 14.84 75.6955 14.87 75.6595 14.918C75.6235 14.96 75.5995 15.02 75.5875 15.098C75.5755 15.176 75.5695 15.278 75.5695 15.404V15.8H76.4785V16.457H75.5695V20.642H74.7505V16.457H74.0755V15.8H74.7505V15.449ZM79.7768 16.655C79.6928 16.643 79.6118 16.634 79.5338 16.628C79.4558 16.622 79.3838 16.619 79.3178 16.619C78.9398 16.619 78.6548 16.733 78.4628 16.961C78.2768 17.189 78.1838 17.57 78.1838 18.104V20.642H77.3648V15.8H78.1658V16.646C78.2858 16.37 78.4628 16.16 78.6968 16.016C78.9368 15.866 79.2158 15.785 79.5338 15.773C79.5758 15.773 79.6148 15.773 79.6508 15.773C79.6868 15.773 79.7288 15.776 79.7768 15.782V16.655ZM81.0342 18.239C81.0342 18.563 81.0702 18.839 81.1422 19.067C81.2202 19.295 81.3222 19.481 81.4482 19.625C81.5802 19.769 81.7332 19.874 81.9072 19.94C82.0812 20.006 82.2642 20.039 82.4562 20.039C82.6482 20.039 82.8312 20.003 83.0052 19.931C83.1792 19.859 83.3292 19.751 83.4552 19.607C83.5872 19.457 83.6892 19.271 83.7612 19.049C83.8392 18.821 83.8782 18.551 83.8782 18.239C83.8782 17.915 83.8392 17.639 83.7612 17.411C83.6892 17.183 83.5872 16.997 83.4552 16.853C83.3292 16.709 83.1792 16.604 83.0052 16.538C82.8312 16.472 82.6482 16.439 82.4562 16.439C82.2642 16.439 82.0812 16.472 81.9072 16.538C81.7332 16.598 81.5802 16.7 81.4482 16.844C81.3222 16.988 81.2202 17.174 81.1422 17.402C81.0702 17.63 81.0342 17.909 81.0342 18.239ZM80.1612 18.239C80.1612 17.801 80.2242 17.423 80.3502 17.105C80.4822 16.787 80.6562 16.526 80.8722 16.322C81.0882 16.118 81.3342 15.968 81.6102 15.872C81.8862 15.77 82.1682 15.719 82.4562 15.719C82.7442 15.719 83.0262 15.77 83.3022 15.872C83.5782 15.968 83.8242 16.118 84.0402 16.322C84.2562 16.526 84.4272 16.787 84.5532 17.105C84.6852 17.423 84.7512 17.801 84.7512 18.239C84.7512 18.677 84.6852 19.055 84.5532 19.373C84.4272 19.691 84.2562 19.952 84.0402 20.156C83.8242 20.36 83.5782 20.513 83.3022 20.615C83.0262 20.711 82.7442 20.759 82.4562 20.759C82.1682 20.759 81.8862 20.711 81.6102 20.615C81.3342 20.513 81.0882 20.36 80.8722 20.156C80.6562 19.952 80.4822 19.691 80.3502 19.373C80.2242 19.055 80.1612 18.677 80.1612 18.239ZM86.551 20.642H85.732V15.8H86.551V16.529C86.689 16.301 86.875 16.109 87.109 15.953C87.343 15.797 87.643 15.719 88.009 15.719C88.381 15.719 88.678 15.794 88.9 15.944C89.128 16.094 89.296 16.304 89.404 16.574C89.596 16.274 89.83 16.058 90.106 15.926C90.382 15.788 90.691 15.719 91.033 15.719C91.315 15.719 91.555 15.764 91.753 15.854C91.951 15.944 92.113 16.073 92.239 16.241C92.365 16.403 92.455 16.598 92.509 16.826C92.569 17.054 92.599 17.306 92.599 17.582V20.642H91.78V17.825C91.78 17.639 91.768 17.462 91.744 17.294C91.72 17.126 91.669 16.979 91.591 16.853C91.519 16.721 91.414 16.619 91.276 16.547C91.144 16.469 90.967 16.43 90.745 16.43C90.391 16.43 90.106 16.565 89.89 16.835C89.68 17.099 89.575 17.492 89.575 18.014V20.642H88.756V17.825C88.756 17.639 88.744 17.462 88.72 17.294C88.696 17.126 88.645 16.979 88.567 16.853C88.495 16.721 88.39 16.619 88.252 16.547C88.12 16.469 87.943 16.43 87.721 16.43C87.367 16.43 87.082 16.565 86.866 16.835C86.656 17.099 86.551 17.492 86.551 18.014V20.642Z" fill="white"/>
<path d="M53.033 14C53.369 14 53.687 14.048 53.987 14.144C54.287 14.234 54.554 14.366 54.788 14.54C55.022 14.708 55.22 14.918 55.382 15.17C55.55 15.422 55.667 15.704 55.733 16.016H54.842C54.734 15.65 54.527 15.353 54.221 15.125C53.921 14.891 53.51 14.774 52.988 14.774C52.7 14.774 52.43 14.831 52.178 14.945C51.932 15.053 51.716 15.218 51.53 15.44C51.344 15.656 51.197 15.926 51.089 16.25C50.987 16.574 50.936 16.946 50.936 17.366C50.936 17.78 50.987 18.149 51.089 18.473C51.191 18.797 51.332 19.073 51.512 19.301C51.692 19.523 51.908 19.694 52.16 19.814C52.412 19.928 52.688 19.985 52.988 19.985C53.204 19.985 53.426 19.961 53.654 19.913C53.882 19.859 54.089 19.769 54.275 19.643C54.461 19.511 54.614 19.334 54.734 19.112C54.854 18.89 54.914 18.611 54.914 18.275V18.104H53.186V17.312H55.778V20.642H55.058L55.013 19.823C54.803 20.159 54.515 20.399 54.149 20.543C53.789 20.687 53.39 20.759 52.952 20.759C52.484 20.759 52.067 20.675 51.701 20.507C51.335 20.339 51.026 20.105 50.774 19.805C50.522 19.505 50.33 19.148 50.198 18.734C50.066 18.32 50 17.864 50 17.366C50 16.862 50.072 16.403 50.216 15.989C50.36 15.575 50.564 15.221 50.828 14.927C51.092 14.633 51.41 14.405 51.782 14.243C52.154 14.081 52.571 14 53.033 14ZM59.1308 20.759C58.7408 20.759 58.3988 20.696 58.1048 20.57C57.8168 20.438 57.5738 20.258 57.3758 20.03C57.1778 19.802 57.0278 19.535 56.9258 19.229C56.8298 18.923 56.7818 18.59 56.7818 18.23C56.7818 17.846 56.8388 17.501 56.9528 17.195C57.0728 16.883 57.2348 16.619 57.4388 16.403C57.6488 16.181 57.8948 16.013 58.1768 15.899C58.4588 15.779 58.7678 15.719 59.1038 15.719C59.4758 15.719 59.8058 15.791 60.0938 15.935C60.3878 16.079 60.6308 16.277 60.8228 16.529C61.0148 16.781 61.1528 17.075 61.2368 17.411C61.3268 17.747 61.3598 18.107 61.3358 18.491H57.6728C57.6728 18.731 57.7088 18.947 57.7808 19.139C57.8588 19.331 57.9638 19.493 58.0958 19.625C58.2278 19.757 58.3808 19.859 58.5548 19.931C58.7288 20.003 58.9148 20.039 59.1128 20.039C59.4908 20.039 59.7788 19.967 59.9768 19.823C60.1748 19.673 60.3248 19.478 60.4268 19.238H61.2728C61.2188 19.448 61.1318 19.646 61.0118 19.832C60.8918 20.012 60.7418 20.171 60.5618 20.309C60.3878 20.447 60.1808 20.558 59.9408 20.642C59.7008 20.72 59.4308 20.759 59.1308 20.759ZM59.1038 16.421C58.6898 16.421 58.3538 16.541 58.0958 16.781C57.8378 17.015 57.6998 17.351 57.6818 17.789H60.4718C60.4658 17.621 60.4328 17.456 60.3728 17.294C60.3128 17.126 60.2258 16.979 60.1118 16.853C59.9978 16.721 59.8568 16.616 59.6888 16.538C59.5208 16.46 59.3258 16.421 59.1038 16.421ZM62.5344 14.585H63.3534V15.8H64.2714V16.457H63.3534V19.328C63.3534 19.454 63.3564 19.559 63.3624 19.643C63.3744 19.721 63.3954 19.784 63.4254 19.832C63.4614 19.88 63.5124 19.913 63.5784 19.931C63.6444 19.949 63.7374 19.958 63.8574 19.958H64.2714V20.642H63.6774C63.4434 20.642 63.2514 20.627 63.1014 20.597C62.9574 20.561 62.8434 20.501 62.7594 20.417C62.6754 20.327 62.6154 20.204 62.5794 20.048C62.5494 19.886 62.5344 19.679 62.5344 19.427V16.457H61.7694V15.8H62.5344V14.585ZM68.1819 15.8V20.642H67.3629V15.8H68.1819ZM68.1819 14.117V15.107H67.3629V14.117H68.1819ZM69.715 14.585H70.534V15.8H71.452V16.457H70.534V19.328C70.534 19.454 70.537 19.559 70.543 19.643C70.555 19.721 70.576 19.784 70.606 19.832C70.642 19.88 70.693 19.913 70.759 19.931C70.825 19.949 70.918 19.958 71.038 19.958H71.452V20.642H70.858C70.624 20.642 70.432 20.627 70.282 20.597C70.138 20.561 70.024 20.501 69.94 20.417C69.856 20.327 69.796 20.204 69.76 20.048C69.73 19.886 69.715 19.679 69.715 19.427V16.457H68.95V15.8H69.715V14.585ZM74.7505 15.449C74.7505 15.197 74.7655 14.987 74.7955 14.819C74.8315 14.645 74.8945 14.507 74.9845 14.405C75.0805 14.303 75.2125 14.231 75.3805 14.189C75.5545 14.141 75.7795 14.117 76.0555 14.117H76.4785V14.801H76.0735C75.9655 14.801 75.8785 14.81 75.8125 14.828C75.7465 14.84 75.6955 14.87 75.6595 14.918C75.6235 14.96 75.5995 15.02 75.5875 15.098C75.5755 15.176 75.5695 15.278 75.5695 15.404V15.8H76.4785V16.457H75.5695V20.642H74.7505V16.457H74.0755V15.8H74.7505V15.449ZM79.7768 16.655C79.6928 16.643 79.6118 16.634 79.5338 16.628C79.4558 16.622 79.3838 16.619 79.3178 16.619C78.9398 16.619 78.6548 16.733 78.4628 16.961C78.2768 17.189 78.1838 17.57 78.1838 18.104V20.642H77.3648V15.8H78.1658V16.646C78.2858 16.37 78.4628 16.16 78.6968 16.016C78.9368 15.866 79.2158 15.785 79.5338 15.773C79.5758 15.773 79.6148 15.773 79.6508 15.773C79.6868 15.773 79.7288 15.776 79.7768 15.782V16.655ZM81.0342 18.239C81.0342 18.563 81.0702 18.839 81.1422 19.067C81.2202 19.295 81.3222 19.481 81.4482 19.625C81.5802 19.769 81.7332 19.874 81.9072 19.94C82.0812 20.006 82.2642 20.039 82.4562 20.039C82.6482 20.039 82.8312 20.003 83.0052 19.931C83.1792 19.859 83.3292 19.751 83.4552 19.607C83.5872 19.457 83.6892 19.271 83.7612 19.049C83.8392 18.821 83.8782 18.551 83.8782 18.239C83.8782 17.915 83.8392 17.639 83.7612 17.411C83.6892 17.183 83.5872 16.997 83.4552 16.853C83.3292 16.709 83.1792 16.604 83.0052 16.538C82.8312 16.472 82.6482 16.439 82.4562 16.439C82.2642 16.439 82.0812 16.472 81.9072 16.538C81.7332 16.598 81.5802 16.7 81.4482 16.844C81.3222 16.988 81.2202 17.174 81.1422 17.402C81.0702 17.63 81.0342 17.909 81.0342 18.239ZM80.1612 18.239C80.1612 17.801 80.2242 17.423 80.3502 17.105C80.4822 16.787 80.6562 16.526 80.8722 16.322C81.0882 16.118 81.3342 15.968 81.6102 15.872C81.8862 15.77 82.1682 15.719 82.4562 15.719C82.7442 15.719 83.0262 15.77 83.3022 15.872C83.5782 15.968 83.8242 16.118 84.0402 16.322C84.2562 16.526 84.4272 16.787 84.5532 17.105C84.6852 17.423 84.7512 17.801 84.7512 18.239C84.7512 18.677 84.6852 19.055 84.5532 19.373C84.4272 19.691 84.2562 19.952 84.0402 20.156C83.8242 20.36 83.5782 20.513 83.3022 20.615C83.0262 20.711 82.7442 20.759 82.4562 20.759C82.1682 20.759 81.8862 20.711 81.6102 20.615C81.3342 20.513 81.0882 20.36 80.8722 20.156C80.6562 19.952 80.4822 19.691 80.3502 19.373C80.2242 19.055 80.1612 18.677 80.1612 18.239ZM86.551 20.642H85.732V15.8H86.551V16.529C86.689 16.301 86.875 16.109 87.109 15.953C87.343 15.797 87.643 15.719 88.009 15.719C88.381 15.719 88.678 15.794 88.9 15.944C89.128 16.094 89.296 16.304 89.404 16.574C89.596 16.274 89.83 16.058 90.106 15.926C90.382 15.788 90.691 15.719 91.033 15.719C91.315 15.719 91.555 15.764 91.753 15.854C91.951 15.944 92.113 16.073 92.239 16.241C92.365 16.403 92.455 16.598 92.509 16.826C92.569 17.054 92.599 17.306 92.599 17.582V20.642H91.78V17.825C91.78 17.639 91.768 17.462 91.744 17.294C91.72 17.126 91.669 16.979 91.591 16.853C91.519 16.721 91.414 16.619 91.276 16.547C91.144 16.469 90.967 16.43 90.745 16.43C90.391 16.43 90.106 16.565 89.89 16.835C89.68 17.099 89.575 17.492 89.575 18.014V20.642H88.756V17.825C88.756 17.639 88.744 17.462 88.72 17.294C88.696 17.126 88.645 16.979 88.567 16.853C88.495 16.721 88.39 16.619 88.252 16.547C88.12 16.469 87.943 16.43 87.721 16.43C87.367 16.43 87.082 16.565 86.866 16.835C86.656 17.099 86.551 17.492 86.551 18.014V20.642Z" fill="white"/>
<path d="M53.796 29.7C53.8583 29.8173 53.9152 29.9402 53.9665 30.0685C54.0215 30.1932 54.0747 30.3197 54.126 30.448C54.1773 30.316 54.2305 30.1858 54.2855 30.0575C54.3405 29.9292 54.3992 29.8063 54.4615 29.689L56.8155 25.2835C56.8448 25.2285 56.8742 25.1845 56.9035 25.1515C56.9365 25.1185 56.9713 25.0947 57.008 25.08C57.0483 25.0653 57.0923 25.0562 57.14 25.0525C57.1877 25.0488 57.2445 25.047 57.3105 25.047H58.427V33H57.1235V27.863C57.1235 27.7677 57.1253 27.6632 57.129 27.5495C57.1363 27.4358 57.1455 27.3203 57.1565 27.203L54.753 31.713C54.698 31.8157 54.6265 31.8963 54.5385 31.955C54.4505 32.01 54.3478 32.0375 54.2305 32.0375H54.027C53.9097 32.0375 53.807 32.01 53.719 31.955C53.631 31.8963 53.5595 31.8157 53.5045 31.713L51.068 27.1865C51.0827 27.3075 51.0918 27.4267 51.0955 27.544C51.1028 27.6577 51.1065 27.764 51.1065 27.863V33H49.803V25.047H50.9195C50.9855 25.047 51.0423 25.0488 51.09 25.0525C51.1377 25.0562 51.1798 25.0653 51.2165 25.08C51.2568 25.0947 51.2935 25.1185 51.3265 25.1515C51.3595 25.1845 51.3907 25.2285 51.42 25.2835L53.796 29.7ZM61.3991 27.357V33H60.0406V27.357H61.3991ZM61.6026 25.7125C61.6026 25.8298 61.5787 25.9398 61.5311 26.0425C61.4834 26.1452 61.4192 26.235 61.3386 26.312C61.2616 26.389 61.1699 26.4513 61.0636 26.499C60.9572 26.543 60.8436 26.565 60.7226 26.565C60.6052 26.565 60.4934 26.543 60.3871 26.499C60.2844 26.4513 60.1946 26.389 60.1176 26.312C60.0406 26.235 59.9782 26.1452 59.9306 26.0425C59.8866 25.9398 59.8646 25.8298 59.8646 25.7125C59.8646 25.5915 59.8866 25.4778 59.9306 25.3715C59.9782 25.2652 60.0406 25.1735 60.1176 25.0965C60.1946 25.0195 60.2844 24.959 60.3871 24.915C60.4934 24.8673 60.6052 24.8435 60.7226 24.8435C60.8436 24.8435 60.9572 24.8673 61.0636 24.915C61.1699 24.959 61.2616 25.0195 61.3386 25.0965C61.4192 25.1735 61.4834 25.2652 61.5311 25.3715C61.5787 25.4778 61.6026 25.5915 61.6026 25.7125ZM66.9044 28.5505C66.8641 28.6018 66.8237 28.6422 66.7834 28.6715C66.7467 28.7008 66.6917 28.7155 66.6184 28.7155C66.5487 28.7155 66.4809 28.6953 66.4149 28.655C66.3489 28.611 66.2701 28.5633 66.1784 28.512C66.0867 28.457 65.9767 28.4093 65.8484 28.369C65.7237 28.325 65.5679 28.303 65.3809 28.303C65.1426 28.303 64.9336 28.347 64.7539 28.435C64.5742 28.5193 64.4239 28.6422 64.3029 28.8035C64.1856 28.9648 64.0976 29.161 64.0389 29.392C63.9802 29.6193 63.9509 29.8778 63.9509 30.1675C63.9509 30.4682 63.9821 30.7358 64.0444 30.9705C64.1104 31.2052 64.2039 31.4032 64.3249 31.5645C64.4459 31.7222 64.5926 31.8432 64.7649 31.9275C64.9372 32.0082 65.1316 32.0485 65.3479 32.0485C65.5642 32.0485 65.7384 32.0228 65.8704 31.9715C66.0061 31.9165 66.1197 31.8578 66.2114 31.7955C66.3031 31.7295 66.3819 31.6708 66.4479 31.6195C66.5176 31.5645 66.5946 31.537 66.6789 31.537C66.7889 31.537 66.8714 31.5792 66.9264 31.6635L67.3169 32.1585C67.1666 32.3345 67.0034 32.483 66.8274 32.604C66.6514 32.7213 66.4681 32.8167 66.2774 32.89C66.0904 32.9597 65.8961 33.0092 65.6944 33.0385C65.4927 33.0678 65.2929 33.0825 65.0949 33.0825C64.7466 33.0825 64.4184 33.0183 64.1104 32.89C63.8024 32.758 63.5329 32.5673 63.3019 32.318C63.0746 32.0687 62.8931 31.7643 62.7574 31.405C62.6254 31.042 62.5594 30.6295 62.5594 30.1675C62.5594 29.7532 62.6181 29.37 62.7354 29.018C62.8564 28.6623 63.0324 28.3562 63.2634 28.0995C63.4944 27.8392 63.7804 27.6357 64.1214 27.489C64.4624 27.3423 64.8547 27.269 65.2984 27.269C65.7201 27.269 66.0886 27.3368 66.4039 27.4725C66.7229 27.6082 67.0089 27.8025 67.2619 28.0555L66.9044 28.5505ZM68.1811 33V27.357H68.9786C69.1179 27.357 69.2151 27.3827 69.2701 27.434C69.3251 27.4853 69.3617 27.5733 69.3801 27.698L69.4626 28.38C69.6642 28.0317 69.9007 27.7567 70.1721 27.555C70.4434 27.3533 70.7477 27.2525 71.0851 27.2525C71.3637 27.2525 71.5947 27.3167 71.7781 27.445L71.6021 28.4625C71.5911 28.5285 71.5672 28.5762 71.5306 28.6055C71.4939 28.6312 71.4444 28.644 71.3821 28.644C71.3271 28.644 71.2519 28.6312 71.1566 28.6055C71.0612 28.5798 70.9347 28.567 70.7771 28.567C70.4947 28.567 70.2527 28.6458 70.0511 28.8035C69.8494 28.9575 69.6789 29.1848 69.5396 29.4855V33H68.1811ZM75.0803 27.269C75.502 27.269 75.8833 27.3368 76.2243 27.4725C76.569 27.6082 76.8623 27.8007 77.1043 28.05C77.3463 28.2993 77.5333 28.6037 77.6653 28.963C77.7973 29.3223 77.8633 29.7238 77.8633 30.1675C77.8633 30.6148 77.7973 31.0182 77.6653 31.3775C77.5333 31.7368 77.3463 32.043 77.1043 32.296C76.8623 32.549 76.569 32.7433 76.2243 32.879C75.8833 33.0147 75.502 33.0825 75.0803 33.0825C74.6586 33.0825 74.2755 33.0147 73.9308 32.879C73.5861 32.7433 73.291 32.549 73.0453 32.296C72.8033 32.043 72.6145 31.7368 72.4788 31.3775C72.3468 31.0182 72.2808 30.6148 72.2808 30.1675C72.2808 29.7238 72.3468 29.3223 72.4788 28.963C72.6145 28.6037 72.8033 28.2993 73.0453 28.05C73.291 27.8007 73.5861 27.6082 73.9308 27.4725C74.2755 27.3368 74.6586 27.269 75.0803 27.269ZM75.0803 32.0375C75.5496 32.0375 75.8961 31.8798 76.1198 31.5645C76.3471 31.2492 76.4608 30.7872 76.4608 30.1785C76.4608 29.5698 76.3471 29.106 76.1198 28.787C75.8961 28.468 75.5496 28.3085 75.0803 28.3085C74.6036 28.3085 74.2516 28.4698 74.0243 28.7925C73.797 29.1115 73.6833 29.5735 73.6833 30.1785C73.6833 30.7835 73.797 31.2455 74.0243 31.5645C74.2516 31.8798 74.6036 32.0375 75.0803 32.0375ZM82.2728 28.457C82.2361 28.5157 82.1976 28.5578 82.1573 28.5835C82.1169 28.6055 82.0656 28.6165 82.0033 28.6165C81.9373 28.6165 81.8658 28.5982 81.7888 28.5615C81.7154 28.5248 81.6293 28.4845 81.5303 28.4405C81.4313 28.3928 81.3176 28.3507 81.1893 28.314C81.0646 28.2773 80.9161 28.259 80.7438 28.259C80.4761 28.259 80.2653 28.3158 80.1113 28.4295C79.9573 28.5432 79.8803 28.6917 79.8803 28.875C79.8803 28.996 79.9188 29.0987 79.9958 29.183C80.0764 29.2637 80.1809 29.3352 80.3093 29.3975C80.4413 29.4598 80.5898 29.5167 80.7548 29.568C80.9198 29.6157 81.0884 29.6688 81.2608 29.7275C81.4331 29.7862 81.6018 29.854 81.7668 29.931C81.9318 30.0043 82.0784 30.0997 82.2068 30.217C82.3388 30.3307 82.4433 30.4682 82.5203 30.6295C82.6009 30.7908 82.6413 30.9852 82.6413 31.2125C82.6413 31.4838 82.5918 31.735 82.4928 31.966C82.3938 32.1933 82.2489 32.3913 82.0583 32.56C81.8676 32.725 81.6311 32.8552 81.3488 32.9505C81.0701 33.0422 80.7493 33.088 80.3863 33.088C80.1919 33.088 80.0013 33.0697 79.8143 33.033C79.6309 33 79.4531 32.9523 79.2808 32.89C79.1121 32.8277 78.9544 32.7543 78.8078 32.67C78.6648 32.5857 78.5383 32.494 78.4283 32.395L78.7418 31.878C78.7821 31.8157 78.8298 31.768 78.8848 31.735C78.9398 31.702 79.0094 31.6855 79.0938 31.6855C79.1781 31.6855 79.2569 31.7093 79.3303 31.757C79.4073 31.8047 79.4953 31.856 79.5943 31.911C79.6933 31.966 79.8088 32.0173 79.9408 32.065C80.0764 32.1127 80.2469 32.1365 80.4523 32.1365C80.6136 32.1365 80.7511 32.1182 80.8648 32.0815C80.9821 32.0412 81.0774 31.9898 81.1508 31.9275C81.2278 31.8652 81.2828 31.7937 81.3158 31.713C81.3524 31.6287 81.3708 31.5425 81.3708 31.4545C81.3708 31.3225 81.3304 31.2143 81.2498 31.13C81.1728 31.0457 81.0683 30.9723 80.9363 30.91C80.8079 30.8477 80.6594 30.7927 80.4908 30.745C80.3258 30.6937 80.1553 30.6387 79.9793 30.58C79.8069 30.5213 79.6364 30.4535 79.4678 30.3765C79.3028 30.2958 79.1543 30.195 79.0223 30.074C78.8939 29.953 78.7894 29.8045 78.7088 29.6285C78.6318 29.4525 78.5933 29.2398 78.5933 28.9905C78.5933 28.7595 78.6391 28.5395 78.7308 28.3305C78.8224 28.1215 78.9563 27.94 79.1323 27.786C79.3119 27.6283 79.5338 27.5037 79.7978 27.412C80.0654 27.3167 80.3734 27.269 80.7218 27.269C81.1104 27.269 81.4643 27.3332 81.7833 27.4615C82.1023 27.5898 82.3681 27.7585 82.5808 27.9675L82.2728 28.457ZM86.134 27.269C86.5557 27.269 86.937 27.3368 87.278 27.4725C87.6227 27.6082 87.916 27.8007 88.158 28.05C88.4 28.2993 88.587 28.6037 88.719 28.963C88.851 29.3223 88.917 29.7238 88.917 30.1675C88.917 30.6148 88.851 31.0182 88.719 31.3775C88.587 31.7368 88.4 32.043 88.158 32.296C87.916 32.549 87.6227 32.7433 87.278 32.879C86.937 33.0147 86.5557 33.0825 86.134 33.0825C85.7124 33.0825 85.3292 33.0147 84.9845 32.879C84.6399 32.7433 84.3447 32.549 84.099 32.296C83.857 32.043 83.6682 31.7368 83.5325 31.3775C83.4005 31.0182 83.3345 30.6148 83.3345 30.1675C83.3345 29.7238 83.4005 29.3223 83.5325 28.963C83.6682 28.6037 83.857 28.2993 84.099 28.05C84.3447 27.8007 84.6399 27.6082 84.9845 27.4725C85.3292 27.3368 85.7124 27.269 86.134 27.269ZM86.134 32.0375C86.6034 32.0375 86.9499 31.8798 87.1735 31.5645C87.4009 31.2492 87.5145 30.7872 87.5145 30.1785C87.5145 29.5698 87.4009 29.106 87.1735 28.787C86.9499 28.468 86.6034 28.3085 86.134 28.3085C85.6574 28.3085 85.3054 28.4698 85.078 28.7925C84.8507 29.1115 84.737 29.5735 84.737 30.1785C84.737 30.7835 84.8507 31.2455 85.078 31.5645C85.3054 31.8798 85.6574 32.0375 86.134 32.0375ZM90.219 33V28.38L89.7295 28.303C89.6231 28.2847 89.537 28.248 89.471 28.193C89.4086 28.138 89.3775 28.061 89.3775 27.962V27.4065H90.219V26.9885C90.219 26.6658 90.2666 26.3762 90.362 26.1195C90.461 25.8628 90.6003 25.6447 90.78 25.465C90.9633 25.2853 91.1851 25.1478 91.4455 25.0525C91.7058 24.9572 91.9991 24.9095 92.3255 24.9095C92.5858 24.9095 92.8278 24.9443 93.0515 25.014L93.024 25.696C93.0166 25.8023 92.9671 25.8683 92.8755 25.894C92.7838 25.9197 92.6775 25.9325 92.5565 25.9325C92.3951 25.9325 92.2503 25.9508 92.122 25.9875C91.9973 26.0205 91.891 26.081 91.803 26.169C91.715 26.2533 91.6471 26.367 91.5995 26.51C91.5555 26.6493 91.5335 26.8235 91.5335 27.0325V27.4065H93.002V28.3745H91.5775V33H90.219ZM95.6869 33.088C95.1993 33.088 94.8234 32.9505 94.5594 32.6755C94.2954 32.3968 94.1634 32.0137 94.1634 31.526V28.3745H93.5914C93.5181 28.3745 93.4539 28.3507 93.3989 28.303C93.3476 28.2553 93.3219 28.1838 93.3219 28.0885V27.5495L94.2294 27.401L94.5154 25.861C94.5301 25.7877 94.5631 25.7308 94.6144 25.6905C94.6694 25.6502 94.7373 25.63 94.8179 25.63H95.5219V27.4065H97.0069V28.3745H95.5219V31.4325C95.5219 31.6085 95.5659 31.746 95.6539 31.845C95.7419 31.944 95.8593 31.9935 96.0059 31.9935C96.0903 31.9935 96.1599 31.9843 96.2149 31.966C96.2736 31.944 96.3231 31.922 96.3634 31.9C96.4074 31.878 96.4459 31.8578 96.4789 31.8395C96.5119 31.8175 96.5449 31.8065 96.5779 31.8065C96.6183 31.8065 96.6513 31.8175 96.6769 31.8395C96.7026 31.8578 96.7301 31.8872 96.7594 31.9275L97.1664 32.5875C96.9684 32.7525 96.7411 32.8772 96.4844 32.9615C96.2278 33.0458 95.9619 33.088 95.6869 33.088ZM107.282 33H106.138C106.009 33 105.903 32.9688 105.819 32.9065C105.738 32.8405 105.679 32.7598 105.643 32.6645L105.049 31.042H101.754L101.16 32.6645C101.131 32.7488 101.072 32.8258 100.984 32.8955C100.9 32.9652 100.795 33 100.671 33H99.5213L102.645 25.047H104.158L107.282 33ZM102.134 29.997H104.669L103.701 27.3515C103.657 27.2342 103.608 27.0967 103.553 26.939C103.501 26.7777 103.45 26.6035 103.399 26.4165C103.347 26.6035 103.296 26.7777 103.245 26.939C103.197 27.1003 103.149 27.2415 103.102 27.3625L102.134 29.997ZM108.024 34.8425V27.357H108.854C108.942 27.357 109.018 27.3772 109.08 27.4175C109.142 27.4578 109.183 27.5202 109.201 27.6045L109.311 28.127C109.538 27.8667 109.799 27.6558 110.092 27.4945C110.389 27.3332 110.735 27.2525 111.131 27.2525C111.439 27.2525 111.72 27.3167 111.973 27.445C112.23 27.5733 112.45 27.7603 112.633 28.006C112.82 28.248 112.963 28.5487 113.062 28.908C113.165 29.2637 113.216 29.6725 113.216 30.1345C113.216 30.5562 113.159 30.9467 113.045 31.306C112.932 31.6653 112.769 31.977 112.556 32.241C112.347 32.505 112.092 32.7122 111.791 32.8625C111.494 33.0092 111.161 33.0825 110.79 33.0825C110.471 33.0825 110.2 33.0348 109.976 32.9395C109.756 32.8405 109.558 32.7048 109.382 32.5325V34.8425H108.024ZM110.664 28.325C110.382 28.325 110.14 28.3855 109.938 28.5065C109.74 28.6238 109.555 28.7907 109.382 29.007V31.537C109.536 31.7277 109.703 31.8615 109.883 31.9385C110.066 32.0118 110.262 32.0485 110.471 32.0485C110.677 32.0485 110.862 32.01 111.027 31.933C111.196 31.856 111.337 31.7387 111.45 31.581C111.568 31.4233 111.658 31.2253 111.72 30.987C111.782 30.745 111.813 30.4608 111.813 30.1345C111.813 29.8045 111.786 29.5258 111.731 29.2985C111.68 29.0675 111.604 28.8805 111.505 28.7375C111.406 28.5945 111.285 28.49 111.142 28.424C111.003 28.358 110.844 28.325 110.664 28.325ZM114.244 34.8425V27.357H115.074C115.162 27.357 115.237 27.3772 115.3 27.4175C115.362 27.4578 115.402 27.5202 115.421 27.6045L115.531 28.127C115.758 27.8667 116.018 27.6558 116.312 27.4945C116.609 27.3332 116.955 27.2525 117.351 27.2525C117.659 27.2525 117.94 27.3167 118.193 27.445C118.449 27.5733 118.669 27.7603 118.853 28.006C119.04 28.248 119.183 28.5487 119.282 28.908C119.384 29.2637 119.436 29.6725 119.436 30.1345C119.436 30.5562 119.379 30.9467 119.265 31.306C119.151 31.6653 118.988 31.977 118.776 32.241C118.567 32.505 118.312 32.7122 118.011 32.8625C117.714 33.0092 117.38 33.0825 117.01 33.0825C116.691 33.0825 116.42 33.0348 116.196 32.9395C115.976 32.8405 115.778 32.7048 115.602 32.5325V34.8425H114.244ZM116.884 28.325C116.601 28.325 116.359 28.3855 116.158 28.5065C115.96 28.6238 115.774 28.7907 115.602 29.007V31.537C115.756 31.7277 115.923 31.8615 116.103 31.9385C116.286 32.0118 116.482 32.0485 116.691 32.0485C116.896 32.0485 117.082 32.01 117.247 31.933C117.415 31.856 117.556 31.7387 117.67 31.581C117.787 31.4233 117.877 31.2253 117.94 30.987C118.002 30.745 118.033 30.4608 118.033 30.1345C118.033 29.8045 118.006 29.5258 117.951 29.2985C117.899 29.0675 117.824 28.8805 117.725 28.7375C117.626 28.5945 117.505 28.49 117.362 28.424C117.223 28.358 117.063 28.325 116.884 28.325ZM126.93 26.4935C126.889 26.5742 126.842 26.631 126.787 26.664C126.735 26.697 126.673 26.7135 126.6 26.7135C126.526 26.7135 126.444 26.686 126.352 26.631C126.261 26.5723 126.152 26.5082 126.028 26.4385C125.903 26.3688 125.756 26.3065 125.588 26.2515C125.423 26.1928 125.227 26.1635 124.999 26.1635C124.794 26.1635 124.614 26.1892 124.46 26.2405C124.31 26.2882 124.182 26.356 124.075 26.444C123.973 26.532 123.896 26.6383 123.844 26.763C123.793 26.884 123.767 27.0178 123.767 27.1645C123.767 27.3515 123.819 27.5073 123.921 27.632C124.028 27.7567 124.167 27.863 124.339 27.951C124.512 28.039 124.708 28.1178 124.928 28.1875C125.148 28.2572 125.371 28.3323 125.599 28.413C125.83 28.49 126.055 28.5817 126.275 28.688C126.495 28.7907 126.691 28.9227 126.864 29.084C127.036 29.2417 127.174 29.436 127.276 29.667C127.383 29.898 127.436 30.1785 127.436 30.5085C127.436 30.8678 127.373 31.2052 127.249 31.5205C127.128 31.8322 126.948 32.1053 126.71 32.34C126.475 32.571 126.187 32.7543 125.846 32.89C125.505 33.022 125.115 33.088 124.675 33.088C124.422 33.088 124.172 33.0623 123.927 33.011C123.681 32.9633 123.445 32.8937 123.217 32.802C122.994 32.7103 122.783 32.6003 122.585 32.472C122.39 32.3437 122.216 32.2007 122.062 32.043L122.491 31.3335C122.532 31.2822 122.579 31.24 122.634 31.207C122.693 31.1703 122.757 31.152 122.827 31.152C122.918 31.152 123.017 31.1905 123.124 31.2675C123.23 31.3408 123.355 31.4233 123.498 31.515C123.644 31.6067 123.815 31.691 124.009 31.768C124.207 31.8413 124.444 31.878 124.719 31.878C125.14 31.878 125.467 31.779 125.698 31.581C125.929 31.3793 126.044 31.0915 126.044 30.7175C126.044 30.5085 125.991 30.338 125.885 30.206C125.782 30.074 125.645 29.964 125.472 29.876C125.3 29.7843 125.104 29.7073 124.884 29.645C124.664 29.5827 124.44 29.5148 124.213 29.4415C123.985 29.3682 123.762 29.2802 123.542 29.1775C123.322 29.0748 123.126 28.941 122.953 28.776C122.781 28.611 122.642 28.4057 122.535 28.16C122.433 27.9107 122.381 27.6045 122.381 27.2415C122.381 26.9518 122.438 26.6695 122.552 26.3945C122.669 26.1195 122.838 25.8757 123.058 25.663C123.281 25.4503 123.555 25.2798 123.877 25.1515C124.2 25.0232 124.568 24.959 124.983 24.959C125.452 24.959 125.885 25.0323 126.281 25.179C126.677 25.3257 127.014 25.531 127.293 25.795L126.93 26.4935ZM130.341 33.088C129.854 33.088 129.478 32.9505 129.214 32.6755C128.95 32.3968 128.818 32.0137 128.818 31.526V28.3745H128.246C128.172 28.3745 128.108 28.3507 128.053 28.303C128.002 28.2553 127.976 28.1838 127.976 28.0885V27.5495L128.884 27.401L129.17 25.861C129.184 25.7877 129.217 25.7308 129.269 25.6905C129.324 25.6502 129.392 25.63 129.472 25.63H130.176V27.4065H131.661V28.3745H130.176V31.4325C130.176 31.6085 130.22 31.746 130.308 31.845C130.396 31.944 130.514 31.9935 130.66 31.9935C130.745 31.9935 130.814 31.9843 130.869 31.966C130.928 31.944 130.977 31.922 131.018 31.9C131.062 31.878 131.1 31.8578 131.133 31.8395C131.166 31.8175 131.199 31.8065 131.232 31.8065C131.273 31.8065 131.306 31.8175 131.331 31.8395C131.357 31.8578 131.384 31.8872 131.414 31.9275L131.821 32.5875C131.623 32.7525 131.395 32.8772 131.139 32.9615C130.882 33.0458 130.616 33.088 130.341 33.088ZM135.151 27.269C135.572 27.269 135.954 27.3368 136.295 27.4725C136.639 27.6082 136.933 27.8007 137.175 28.05C137.417 28.2993 137.604 28.6037 137.736 28.963C137.868 29.3223 137.934 29.7238 137.934 30.1675C137.934 30.6148 137.868 31.0182 137.736 31.3775C137.604 31.7368 137.417 32.043 137.175 32.296C136.933 32.549 136.639 32.7433 136.295 32.879C135.954 33.0147 135.572 33.0825 135.151 33.0825C134.729 33.0825 134.346 33.0147 134.001 32.879C133.656 32.7433 133.361 32.549 133.116 32.296C132.874 32.043 132.685 31.7368 132.549 31.3775C132.417 31.0182 132.351 30.6148 132.351 30.1675C132.351 29.7238 132.417 29.3223 132.549 28.963C132.685 28.6037 132.874 28.2993 133.116 28.05C133.361 27.8007 133.656 27.6082 134.001 27.4725C134.346 27.3368 134.729 27.269 135.151 27.269ZM135.151 32.0375C135.62 32.0375 135.966 31.8798 136.19 31.5645C136.417 31.2492 136.531 30.7872 136.531 30.1785C136.531 29.5698 136.417 29.106 136.19 28.787C135.966 28.468 135.62 28.3085 135.151 28.3085C134.674 28.3085 134.322 28.4698 134.095 28.7925C133.867 29.1115 133.754 29.5735 133.754 30.1785C133.754 30.7835 133.867 31.2455 134.095 31.5645C134.322 31.8798 134.674 32.0375 135.151 32.0375ZM138.994 33V27.357H139.791C139.93 27.357 140.028 27.3827 140.083 27.434C140.138 27.4853 140.174 27.5733 140.193 27.698L140.275 28.38C140.477 28.0317 140.713 27.7567 140.985 27.555C141.256 27.3533 141.56 27.2525 141.898 27.2525C142.176 27.2525 142.407 27.3167 142.591 27.445L142.415 28.4625C142.404 28.5285 142.38 28.5762 142.343 28.6055C142.306 28.6312 142.257 28.644 142.195 28.644C142.14 28.644 142.064 28.6312 141.969 28.6055C141.874 28.5798 141.747 28.567 141.59 28.567C141.307 28.567 141.065 28.6458 140.864 28.8035C140.662 28.9575 140.491 29.1848 140.352 29.4855V33H138.994ZM145.816 27.269C146.171 27.269 146.498 27.3258 146.795 27.4395C147.095 27.5532 147.354 27.72 147.57 27.94C147.787 28.1563 147.955 28.424 148.076 28.743C148.197 29.0583 148.258 29.4195 148.258 29.8265C148.258 29.9292 148.252 30.0153 148.241 30.085C148.234 30.151 148.217 30.2042 148.192 30.2445C148.17 30.2812 148.139 30.3087 148.098 30.327C148.058 30.3417 148.007 30.349 147.944 30.349H144.457C144.498 30.9283 144.653 31.3537 144.925 31.625C145.196 31.8963 145.555 32.032 146.003 32.032C146.223 32.032 146.412 32.0063 146.569 31.955C146.731 31.9037 146.87 31.8468 146.987 31.7845C147.108 31.7222 147.213 31.6653 147.301 31.614C147.392 31.5627 147.48 31.537 147.565 31.537C147.62 31.537 147.667 31.548 147.708 31.57C147.748 31.592 147.783 31.6232 147.812 31.6635L148.208 32.1585C148.058 32.3345 147.889 32.483 147.702 32.604C147.515 32.7213 147.319 32.8167 147.114 32.89C146.912 32.9597 146.705 33.0092 146.492 33.0385C146.283 33.0678 146.08 33.0825 145.882 33.0825C145.489 33.0825 145.125 33.0183 144.787 32.89C144.45 32.758 144.157 32.5655 143.907 32.3125C143.658 32.0558 143.462 31.7405 143.319 31.3665C143.176 30.9888 143.104 30.5525 143.104 30.0575C143.104 29.6725 143.167 29.3113 143.291 28.974C143.416 28.633 143.594 28.3378 143.825 28.0885C144.059 27.8355 144.344 27.6357 144.677 27.489C145.015 27.3423 145.394 27.269 145.816 27.269ZM145.843 28.2425C145.447 28.2425 145.137 28.3543 144.914 28.578C144.69 28.8017 144.547 29.1188 144.485 29.5295H147.037C147.037 29.3535 147.013 29.1885 146.965 29.0345C146.918 28.8768 146.844 28.7393 146.745 28.622C146.646 28.5047 146.522 28.413 146.371 28.347C146.221 28.2773 146.045 28.2425 145.843 28.2425Z" fill="white"/>
</svg>
