<svg width="809" height="216" viewBox="0 0 809 216" fill="none" xmlns="http://www.w3.org/2000/svg">
<rect x="0.759766" width="807.783" height="215.798" rx="20" fill="#F2FAEE"/>
<path d="M19.034 49L29.438 24.86H33.824L44.262 49H39.094L36.748 43.492H26.446L24.134 49H19.034ZM31.614 31.354L28.282 39.174H34.912L31.614 31.354ZM53.8675 49.374C51.3062 49.374 49.1755 48.524 47.4755 46.824C45.7755 45.1013 44.9255 42.9933 44.9255 40.5C44.9255 38.0067 45.7755 35.91 47.4755 34.21C49.1755 32.4873 51.3062 31.626 53.8675 31.626C56.1342 31.626 58.0269 32.2607 59.5455 33.53C61.0869 34.7993 62.0955 36.454 62.5715 38.494H57.7435C56.9955 36.726 55.7035 35.842 53.8675 35.842C52.6209 35.842 51.6009 36.2727 50.8075 37.134C50.0142 37.9727 49.6175 39.0947 49.6175 40.5C49.6175 41.9053 50.0142 43.0387 50.8075 43.9C51.6009 44.7387 52.6209 45.158 53.8675 45.158C55.7035 45.158 56.9955 44.274 57.7435 42.506H62.5715C62.0955 44.546 61.0869 46.2007 59.5455 47.47C58.0269 48.7393 56.1342 49.374 53.8675 49.374ZM73.7318 49.204C71.8278 49.204 70.2638 48.6827 69.0398 47.64C67.8384 46.5747 67.2378 45.0447 67.2378 43.05V36.08H63.8038V32H67.2378V27.274H71.8958V32H76.6898V36.08H71.8958V42.132C71.8958 43.1747 72.1224 43.9227 72.5758 44.376C73.0291 44.8067 73.7658 45.022 74.7858 45.022C75.5111 45.022 76.1458 44.92 76.6898 44.716V48.83C75.8738 49.0793 74.8878 49.204 73.7318 49.204ZM82.3255 29.212C81.5322 29.212 80.8409 28.9287 80.2515 28.362C79.6622 27.7727 79.3675 27.07 79.3675 26.254C79.3675 25.438 79.6622 24.7467 80.2515 24.18C80.8409 23.5907 81.5322 23.296 82.3255 23.296C83.1642 23.296 83.8669 23.5907 84.4335 24.18C85.0229 24.7467 85.3175 25.438 85.3175 26.254C85.3175 27.07 85.0229 27.7727 84.4335 28.362C83.8669 28.9287 83.1642 29.212 82.3255 29.212ZM80.0135 49V32H84.6715V49H80.0135ZM94.4484 49L86.9344 32H92.0684L96.5564 42.88L101.044 32H106.246L98.6984 49H94.4484ZM110.847 29.212C110.054 29.212 109.362 28.9287 108.773 28.362C108.184 27.7727 107.889 27.07 107.889 26.254C107.889 25.438 108.184 24.7467 108.773 24.18C109.362 23.5907 110.054 23.296 110.847 23.296C111.686 23.296 112.388 23.5907 112.955 24.18C113.544 24.7467 113.839 25.438 113.839 26.254C113.839 27.07 113.544 27.7727 112.955 28.362C112.388 28.9287 111.686 29.212 110.847 29.212ZM108.535 49V32H113.193V49H108.535ZM125.894 49.204C123.99 49.204 122.426 48.6827 121.202 47.64C120.001 46.5747 119.4 45.0447 119.4 43.05V36.08H115.966V32H119.4V27.274H124.058V32H128.852V36.08H124.058V42.132C124.058 43.1747 124.285 43.9227 124.738 44.376C125.191 44.8067 125.928 45.022 126.948 45.022C127.673 45.022 128.308 44.92 128.852 44.716V48.83C128.036 49.0793 127.05 49.204 125.894 49.204ZM138.636 56.106H133.57L137.14 48.048L130 32H135.1L139.656 43.016L144.178 32H149.312L138.636 56.106ZM162.406 49V29.552H155.98V24.86H173.864V29.552H167.37V49H162.406ZM174.211 49V32H178.869V34.72C179.163 33.8813 179.696 33.19 180.467 32.646C181.26 32.0793 182.133 31.796 183.085 31.796C183.674 31.796 184.195 31.864 184.649 32V36.726C183.901 36.4767 183.198 36.352 182.541 36.352C181.43 36.352 180.535 36.76 179.855 37.576C179.197 38.3693 178.869 39.4687 178.869 40.874V49H174.211ZM193.929 49.374C191.685 49.374 189.793 48.5013 188.251 46.756C186.71 45.0107 185.939 42.9253 185.939 40.5C185.939 38.0747 186.71 35.9893 188.251 34.244C189.793 32.4987 191.685 31.626 193.929 31.626C195.017 31.626 195.992 31.8527 196.853 32.306C197.715 32.7593 198.372 33.292 198.825 33.904V32H203.483V49H198.825V47.096C198.372 47.708 197.715 48.2407 196.853 48.694C195.992 49.1473 195.017 49.374 193.929 49.374ZM191.787 43.832C192.581 44.6933 193.623 45.124 194.915 45.124C196.207 45.124 197.239 44.6933 198.009 43.832C198.803 42.9707 199.199 41.86 199.199 40.5C199.199 39.14 198.803 38.0293 198.009 37.168C197.239 36.3067 196.207 35.876 194.915 35.876C193.623 35.876 192.581 36.3067 191.787 37.168C191.017 38.0293 190.631 39.14 190.631 40.5C190.631 41.86 191.017 42.9707 191.787 43.832ZM215.866 49.374C213.304 49.374 211.174 48.524 209.474 46.824C207.774 45.1013 206.924 42.9933 206.924 40.5C206.924 38.0067 207.774 35.91 209.474 34.21C211.174 32.4873 213.304 31.626 215.866 31.626C218.132 31.626 220.025 32.2607 221.544 33.53C223.085 34.7993 224.094 36.454 224.57 38.494H219.742C218.994 36.726 217.702 35.842 215.866 35.842C214.619 35.842 213.599 36.2727 212.806 37.134C212.012 37.9727 211.616 39.0947 211.616 40.5C211.616 41.9053 212.012 43.0387 212.806 43.9C213.599 44.7387 214.619 45.158 215.866 45.158C217.702 45.158 218.994 44.274 219.742 42.506H224.57C224.094 44.546 223.085 46.2007 221.544 47.47C220.025 48.7393 218.132 49.374 215.866 49.374ZM239.328 49L232.392 41.18V49H227.734V23.5H232.392V38.256L237.9 32H243.51L236.778 39.65L245.074 49H239.328ZM253.384 49.374C250.778 49.374 248.636 48.5353 246.958 46.858C245.304 45.1807 244.476 43.05 244.476 40.466C244.476 37.9273 245.315 35.8193 246.992 34.142C248.692 32.4647 250.834 31.626 253.418 31.626C256.025 31.626 258.19 32.5213 259.912 34.312C261.635 36.08 262.428 38.5053 262.292 41.588H249.032C249.123 42.6533 249.565 43.5487 250.358 44.274C251.152 44.9767 252.24 45.328 253.622 45.328C254.461 45.328 255.198 45.1693 255.832 44.852C256.49 44.512 256.954 44.0473 257.226 43.458H262.088C261.59 45.2033 260.547 46.6313 258.96 47.742C257.374 48.83 255.515 49.374 253.384 49.374ZM253.282 35.4C252.217 35.4 251.322 35.6833 250.596 36.25C249.894 36.794 249.429 37.5533 249.202 38.528H257.192C256.943 37.4627 256.444 36.6807 255.696 36.182C254.971 35.6607 254.166 35.4 253.282 35.4ZM265.685 49V32H270.343V34.72C270.638 33.8813 271.171 33.19 271.941 32.646C272.735 32.0793 273.607 31.796 274.559 31.796C275.149 31.796 275.67 31.864 276.123 32V36.726C275.375 36.4767 274.673 36.352 274.015 36.352C272.905 36.352 272.009 36.76 271.329 37.576C270.672 38.3693 270.343 39.4687 270.343 40.874V49H265.685Z" fill="#0E4772"/>
<path d="M19.743 85L25.2371 72.5771H26.5844L32.096 85H30.3988L28.789 81.3781H22.9975L21.4228 85H19.743ZM25.8845 74.7817L23.6449 79.9083H28.1417L25.8845 74.7817ZM37.3278 85.175C36.0097 85.175 34.919 84.7375 34.0558 83.8627C33.1926 82.9762 32.761 81.8972 32.761 80.6257C32.761 79.3543 33.1926 78.2811 34.0558 77.4063C34.919 76.5197 36.0097 76.0765 37.3278 76.0765C38.4126 76.0765 39.3516 76.3798 40.1448 76.9863C40.938 77.5812 41.4688 78.3628 41.737 79.3309H40.1273C39.9173 78.7594 39.5674 78.3044 39.0775 77.9662C38.5876 77.6279 38.0043 77.4587 37.3278 77.4587C36.4296 77.4587 35.6947 77.762 35.1231 78.3686C34.5632 78.9752 34.2833 79.7275 34.2833 80.6257C34.2833 81.5239 34.5632 82.2763 35.1231 82.8828C35.6947 83.4894 36.4296 83.7927 37.3278 83.7927C38.0043 83.7927 38.5876 83.6236 39.0775 83.2853C39.5674 82.947 39.9173 82.4921 40.1273 81.9205H41.737C41.4804 82.8887 40.9555 83.6761 40.1623 84.2826C39.3691 84.8775 38.4243 85.175 37.3278 85.175ZM47.0388 85.0875C46.2339 85.0875 45.5865 84.86 45.0966 84.4051C44.6067 83.9502 44.3617 83.2853 44.3617 82.4104V77.6337H42.5071V76.2514H44.3617V73.8193H45.8665V76.2514H48.3861V77.6337H45.8665V82.218C45.8665 82.7662 45.9831 83.1511 46.2164 83.3728C46.4497 83.5944 46.8172 83.7052 47.3188 83.7052C47.762 83.7052 48.1178 83.6469 48.3861 83.5302V84.8775C47.9662 85.0175 47.5171 85.0875 47.0388 85.0875ZM51.8306 73.6094C51.6323 73.8077 51.3815 73.9068 51.0782 73.9068C50.7749 73.9068 50.5183 73.8077 50.3083 73.6094C50.0983 73.3994 49.9934 73.1428 49.9934 72.8395C49.9934 72.5479 50.0983 72.2971 50.3083 72.0871C50.5183 71.8772 50.7749 71.7722 51.0782 71.7722C51.3815 71.7722 51.6323 71.8772 51.8306 72.0871C52.0289 72.2971 52.128 72.5479 52.128 72.8395C52.128 73.1428 52.0289 73.3994 51.8306 73.6094ZM50.3083 85V76.2514H51.8131V85H50.3083ZM57.395 85L53.3532 76.2514H55.0329L58.0249 82.8828L61.0169 76.2514H62.6967L58.6548 85H57.395ZM65.7394 73.6094C65.5411 73.8077 65.2903 73.9068 64.987 73.9068C64.6837 73.9068 64.4271 73.8077 64.2171 73.6094C64.0072 73.3994 63.9022 73.1428 63.9022 72.8395C63.9022 72.5479 64.0072 72.2971 64.2171 72.0871C64.4271 71.8772 64.6837 71.7722 64.987 71.7722C65.2903 71.7722 65.5411 71.8772 65.7394 72.0871C65.9377 72.2971 66.0368 72.5479 66.0368 72.8395C66.0368 73.1428 65.9377 73.3994 65.7394 73.6094ZM64.2171 85V76.2514H65.7219V85H64.2171ZM71.9688 85.0875C71.1639 85.0875 70.5165 84.86 70.0266 84.4051C69.5367 83.9502 69.2917 83.2853 69.2917 82.4104V77.6337H67.437V76.2514H69.2917V73.8193H70.7965V76.2514H73.316V77.6337H70.7965V82.218C70.7965 82.7662 70.9131 83.1511 71.1464 83.3728C71.3797 83.5944 71.7471 83.7052 72.2487 83.7052C72.692 83.7052 73.0478 83.6469 73.316 83.5302V84.8775C72.8961 85.0175 72.447 85.0875 71.9688 85.0875ZM77.5654 88.6569H75.8857L77.7928 84.5451L73.961 76.2514H75.6232L78.6327 82.9003L81.6247 76.2514H83.3044L77.5654 88.6569ZM88.8619 85V72.5771H90.4892V83.4603H96.4907V85H88.8619ZM101.674 85.175C100.402 85.175 99.3467 84.7434 98.5068 83.8802C97.6786 83.017 97.2645 81.9322 97.2645 80.6257C97.2645 79.3076 97.667 78.2228 98.4718 77.3713C99.2884 76.5081 100.367 76.0765 101.709 76.0765C103.062 76.0765 104.123 76.5547 104.893 77.5112C105.663 78.4677 106.001 79.6401 105.908 81.0282H98.7868C98.8101 81.8214 99.1017 82.4862 99.6616 83.0228C100.222 83.5477 100.898 83.8102 101.691 83.8102C102.881 83.8102 103.727 83.3203 104.228 82.3404H105.768C105.546 83.157 105.074 83.8335 104.351 84.3701C103.628 84.9067 102.735 85.175 101.674 85.175ZM103.389 78.0362C102.91 77.6162 102.333 77.4063 101.656 77.4063C100.98 77.4063 100.373 77.6104 99.8366 78.0187C99.3117 78.4269 98.9851 79.0335 98.8568 79.8384H104.316C104.176 79.0452 103.867 78.4444 103.389 78.0362ZM110.655 85L106.613 76.2514H108.293L111.285 82.8828L114.277 76.2514H115.957L111.915 85H110.655ZM121.016 85.175C119.745 85.175 118.689 84.7434 117.849 83.8802C117.021 83.017 116.607 81.9322 116.607 80.6257C116.607 79.3076 117.009 78.2228 117.814 77.3713C118.631 76.5081 119.71 76.0765 121.051 76.0765C122.404 76.0765 123.466 76.5547 124.236 77.5112C125.006 78.4677 125.344 79.6401 125.251 81.0282H118.129C118.153 81.8214 118.444 82.4862 119.004 83.0228C119.564 83.5477 120.241 83.8102 121.034 83.8102C122.224 83.8102 123.069 83.3203 123.571 82.3404H125.111C124.889 83.157 124.417 83.8335 123.693 84.3701C122.97 84.9067 122.078 85.175 121.016 85.175ZM122.731 78.0362C122.253 77.6162 121.675 77.4063 120.999 77.4063C120.322 77.4063 119.716 77.6104 119.179 78.0187C118.654 78.4269 118.328 79.0335 118.199 79.8384H123.658C123.518 79.0452 123.209 78.4444 122.731 78.0362ZM127.422 85V71.8772H128.927V85H127.422Z" fill="#0E4772"/>
<circle cx="30" cy="112" r="10" fill="#FC3A3A"/>
<path d="M53.4416 119.175C52.1468 119.175 51.0912 118.743 50.2746 117.88C49.4581 117.005 49.0498 115.88 49.0498 114.503V111.039C49.0498 109.662 49.4581 108.543 50.2746 107.679C51.1028 106.805 52.1585 106.367 53.4416 106.367C54.7247 106.367 55.7804 106.805 56.6086 107.679C57.4368 108.554 57.8509 109.674 57.8509 111.039V114.503C57.8509 115.88 57.4368 117.005 56.6086 117.88C55.7804 118.743 54.7247 119.175 53.4416 119.175ZM53.4416 117.705C54.3048 117.705 55.0047 117.419 55.5413 116.848C56.0778 116.276 56.3461 115.495 56.3461 114.503V111.039C56.3461 110.047 56.0778 109.266 55.5413 108.694C55.0047 108.123 54.3048 107.837 53.4416 107.837C52.5901 107.837 51.896 108.123 51.3594 108.694C50.8229 109.266 50.5546 110.047 50.5546 111.039V114.503C50.5546 115.495 50.8229 116.276 51.3594 116.848C51.896 117.419 52.5901 117.705 53.4416 117.705ZM64.2593 114.853V113.348H68.7211V114.853H64.2593ZM82.9979 117.548V119H74.9492V118.405C74.9492 117.974 75.0134 117.565 75.1417 117.18C75.2817 116.784 75.4333 116.451 75.5966 116.183C75.7599 115.915 76.0166 115.617 76.3665 115.291C76.7164 114.952 76.9906 114.707 77.1889 114.556C77.3872 114.392 77.7196 114.147 78.1862 113.821C78.6528 113.483 78.9619 113.261 79.1135 113.156C79.9417 112.549 80.5133 112.042 80.8283 111.634C81.1549 111.214 81.3182 110.666 81.3182 109.989C81.3182 109.336 81.1082 108.817 80.6883 108.432C80.2684 108.035 79.7201 107.837 79.0436 107.837C78.332 107.837 77.7254 108.053 77.2239 108.484C76.7223 108.916 76.4715 109.517 76.4715 110.286H74.9317C74.9317 109.12 75.3167 108.175 76.0865 107.452C76.8681 106.729 77.8479 106.367 79.0261 106.367C80.1225 106.367 81.0324 106.682 81.7556 107.312C82.4905 107.942 82.8579 108.84 82.8579 110.006C82.8579 110.893 82.6421 111.651 82.2105 112.281C81.7789 112.899 81.0382 113.588 79.9884 114.346C79.7901 114.486 79.5101 114.684 79.1485 114.941C78.7869 115.186 78.507 115.384 78.3087 115.536C78.1104 115.687 77.8887 115.874 77.6438 116.095C77.4105 116.305 77.2239 116.533 77.0839 116.778C76.9556 117.011 76.8623 117.268 76.8039 117.548H82.9979ZM89.2902 119.175C87.9954 119.175 86.9397 118.743 86.1232 117.88C85.3067 117.005 84.8984 115.88 84.8984 114.503V111.039C84.8984 109.662 85.3067 108.543 86.1232 107.679C86.9514 106.805 88.007 106.367 89.2902 106.367C90.5733 106.367 91.6289 106.805 92.4571 107.679C93.2853 108.554 93.6994 109.674 93.6994 111.039V114.503C93.6994 115.88 93.2853 117.005 92.4571 117.88C91.6289 118.743 90.5733 119.175 89.2902 119.175ZM89.2902 117.705C90.1534 117.705 90.8532 117.419 91.3898 116.848C91.9264 116.276 92.1947 115.495 92.1947 114.503V111.039C92.1947 110.047 91.9264 109.266 91.3898 108.694C90.8532 108.123 90.1534 107.837 89.2902 107.837C88.4386 107.837 87.7446 108.123 87.208 108.694C86.6714 109.266 86.4031 110.047 86.4031 111.039V114.503C86.4031 115.495 86.6714 116.276 87.208 116.848C87.7446 117.419 88.4386 117.705 89.2902 117.705ZM104.517 119H102.89L110.764 106.577H112.391L104.517 119ZM112.303 119.14C111.347 119.14 110.53 118.802 109.854 118.125C109.189 117.449 108.856 116.638 108.856 115.693C108.856 114.737 109.189 113.926 109.854 113.261C110.53 112.584 111.347 112.246 112.303 112.246C113.248 112.246 114.059 112.584 114.735 113.261C115.412 113.926 115.75 114.737 115.75 115.693C115.75 116.638 115.412 117.449 114.735 118.125C114.059 118.802 113.248 119.14 112.303 119.14ZM112.303 117.775C112.863 117.775 113.347 117.571 113.756 117.163C114.164 116.743 114.368 116.253 114.368 115.693C114.368 115.133 114.164 114.649 113.756 114.241C113.347 113.821 112.863 113.611 112.303 113.611C111.72 113.611 111.23 113.815 110.834 114.223C110.437 114.632 110.239 115.121 110.239 115.693C110.239 116.265 110.437 116.755 110.834 117.163C111.23 117.571 111.72 117.775 112.303 117.775ZM102.977 113.331C102.021 113.331 101.204 112.993 100.528 112.316C99.8629 111.64 99.5305 110.829 99.5305 109.884C99.5305 108.927 99.8629 108.117 100.528 107.452C101.204 106.775 102.021 106.437 102.977 106.437C103.922 106.437 104.733 106.775 105.41 107.452C106.086 108.117 106.424 108.927 106.424 109.884C106.424 110.829 106.086 111.64 105.41 112.316C104.733 112.993 103.922 113.331 102.977 113.331ZM102.977 111.966C103.537 111.966 104.021 111.762 104.43 111.354C104.838 110.934 105.042 110.444 105.042 109.884C105.042 109.324 104.838 108.84 104.43 108.432C104.021 108.012 103.537 107.802 102.977 107.802C102.394 107.802 101.904 108.006 101.508 108.414C101.111 108.823 100.913 109.312 100.913 109.884C100.913 110.456 101.111 110.945 101.508 111.354C101.904 111.762 102.394 111.966 102.977 111.966Z" fill="#0E4772"/>
<circle cx="30" cy="165" r="10" fill="#C1E8AF"/>
<path d="M55.8387 170.985C55.0455 171.778 54.0482 172.175 52.8467 172.175C51.6452 172.175 50.6421 171.778 49.8372 170.985C49.0323 170.192 48.6299 169.224 48.6299 168.081C48.6299 167.474 48.7465 166.932 48.9798 166.453C49.2248 165.963 49.5747 165.45 50.0297 164.914L54.5614 159.577H56.4686L52.6717 164.074C52.8817 164.05 53.045 164.039 53.1616 164.039C54.1998 164.039 55.1038 164.435 55.8737 165.229C56.6552 166.022 57.046 166.961 57.046 168.046C57.046 169.2 56.6436 170.18 55.8387 170.985ZM52.8467 170.723C53.5932 170.723 54.2231 170.46 54.7364 169.935C55.2496 169.41 55.5063 168.781 55.5063 168.046C55.5063 167.311 55.2496 166.681 54.7364 166.156C54.2231 165.631 53.5932 165.369 52.8467 165.369C52.0885 165.369 51.4528 165.631 50.9395 166.156C50.4263 166.669 50.1696 167.299 50.1696 168.046C50.1696 168.792 50.4263 169.428 50.9395 169.953C51.4528 170.466 52.0885 170.723 52.8467 170.723ZM60.2254 172V161.064H57.8283L59.0531 159.577H61.7302V172H60.2254ZM68.7361 167.853V166.348H73.1979V167.853H68.7361ZM83.5728 172.175C82.3597 172.175 81.3565 171.808 80.5633 171.073C79.7818 170.338 79.391 169.405 79.391 168.273C79.391 166.757 80.0443 165.678 81.3507 165.036C80.4992 164.43 80.0734 163.607 80.0734 162.569C80.0734 161.636 80.4 160.872 81.0533 160.277C81.7182 159.67 82.558 159.367 83.5728 159.367C84.5993 159.367 85.4334 159.67 86.0749 160.277C86.7282 160.872 87.0548 161.636 87.0548 162.569C87.0548 163.619 86.6348 164.441 85.795 165.036C87.0898 165.678 87.7372 166.757 87.7372 168.273C87.7372 169.405 87.3464 170.338 86.5649 171.073C85.795 171.808 84.7976 172.175 83.5728 172.175ZM83.5728 170.74C84.3894 170.74 85.0309 170.507 85.4975 170.04C85.9758 169.574 86.2149 168.985 86.2149 168.273C86.2149 167.55 85.9758 166.955 85.4975 166.488C85.0309 166.022 84.3894 165.789 83.5728 165.789C82.7796 165.789 82.1381 166.028 81.6482 166.506C81.1582 166.972 80.9133 167.562 80.9133 168.273C80.9133 168.973 81.1582 169.562 81.6482 170.04C82.1381 170.507 82.7796 170.74 83.5728 170.74ZM83.5728 164.441C84.1794 164.441 84.6635 164.266 85.0251 163.916C85.3867 163.555 85.5675 163.117 85.5675 162.604C85.5675 162.067 85.3867 161.63 85.0251 161.292C84.6752 160.953 84.1911 160.784 83.5728 160.784C82.9779 160.784 82.4939 160.959 82.1206 161.309C81.7473 161.648 81.5607 162.079 81.5607 162.604C81.5607 163.106 81.7473 163.537 82.1206 163.899C82.4939 164.26 82.9779 164.441 83.5728 164.441ZM94.0062 172.175C92.7114 172.175 91.6557 171.743 90.8392 170.88C90.0227 170.005 89.6144 168.88 89.6144 167.503V164.039C89.6144 162.662 90.0227 161.543 90.8392 160.679C91.6674 159.805 92.7231 159.367 94.0062 159.367C95.2893 159.367 96.345 159.805 97.1732 160.679C98.0014 161.554 98.4155 162.674 98.4155 164.039V167.503C98.4155 168.88 98.0014 170.005 97.1732 170.88C96.345 171.743 95.2893 172.175 94.0062 172.175ZM94.0062 170.705C94.8694 170.705 95.5693 170.419 96.1058 169.848C96.6424 169.276 96.9107 168.495 96.9107 167.503V164.039C96.9107 163.047 96.6424 162.266 96.1058 161.694C95.5693 161.123 94.8694 160.837 94.0062 160.837C93.1547 160.837 92.4606 161.123 91.924 161.694C91.3874 162.266 91.1192 163.047 91.1192 164.039V167.503C91.1192 168.495 91.3874 169.276 91.924 169.848C92.4606 170.419 93.1547 170.705 94.0062 170.705ZM109.233 172H107.606L115.48 159.577H117.107L109.233 172ZM117.019 172.14C116.063 172.14 115.246 171.802 114.57 171.125C113.905 170.449 113.572 169.638 113.572 168.693C113.572 167.737 113.905 166.926 114.57 166.261C115.246 165.584 116.063 165.246 117.019 165.246C117.964 165.246 118.775 165.584 119.451 166.261C120.128 166.926 120.466 167.737 120.466 168.693C120.466 169.638 120.128 170.449 119.451 171.125C118.775 171.802 117.964 172.14 117.019 172.14ZM117.019 170.775C117.579 170.775 118.063 170.571 118.472 170.163C118.88 169.743 119.084 169.253 119.084 168.693C119.084 168.133 118.88 167.649 118.472 167.241C118.063 166.821 117.579 166.611 117.019 166.611C116.436 166.611 115.946 166.815 115.55 167.223C115.153 167.632 114.955 168.121 114.955 168.693C114.955 169.265 115.153 169.755 115.55 170.163C115.946 170.571 116.436 170.775 117.019 170.775ZM107.693 166.331C106.737 166.331 105.92 165.993 105.244 165.316C104.579 164.64 104.246 163.829 104.246 162.884C104.246 161.927 104.579 161.117 105.244 160.452C105.92 159.775 106.737 159.437 107.693 159.437C108.638 159.437 109.449 159.775 110.126 160.452C110.802 161.117 111.14 161.927 111.14 162.884C111.14 163.829 110.802 164.64 110.126 165.316C109.449 165.993 108.638 166.331 107.693 166.331ZM107.693 164.966C108.253 164.966 108.737 164.762 109.146 164.354C109.554 163.934 109.758 163.444 109.758 162.884C109.758 162.324 109.554 161.84 109.146 161.432C108.737 161.012 108.253 160.802 107.693 160.802C107.11 160.802 106.62 161.006 106.224 161.414C105.827 161.823 105.629 162.312 105.629 162.884C105.629 163.456 105.827 163.945 106.224 164.354C106.62 164.762 107.11 164.966 107.693 164.966Z" fill="#0E4772"/>
<circle cx="171" cy="112" r="10" fill="#E69724"/>
<path d="M197.906 117.548V119H189.857V118.405C189.857 117.974 189.922 117.565 190.05 117.18C190.19 116.784 190.341 116.451 190.505 116.183C190.668 115.915 190.925 115.617 191.275 115.291C191.625 114.952 191.899 114.707 192.097 114.556C192.295 114.392 192.628 114.147 193.094 113.821C193.561 113.483 193.87 113.261 194.022 113.156C194.85 112.549 195.421 112.042 195.736 111.634C196.063 111.214 196.226 110.666 196.226 109.989C196.226 109.336 196.016 108.817 195.596 108.432C195.176 108.035 194.628 107.837 193.952 107.837C193.24 107.837 192.634 108.053 192.132 108.484C191.63 108.916 191.38 109.517 191.38 110.286H189.84C189.84 109.12 190.225 108.175 190.995 107.452C191.776 106.729 192.756 106.367 193.934 106.367C195.031 106.367 195.941 106.682 196.664 107.312C197.399 107.942 197.766 108.84 197.766 110.006C197.766 110.893 197.55 111.651 197.119 112.281C196.687 112.899 195.946 113.588 194.897 114.346C194.698 114.486 194.418 114.684 194.057 114.941C193.695 115.186 193.415 115.384 193.217 115.536C193.019 115.687 192.797 115.874 192.552 116.095C192.319 116.305 192.132 116.533 191.992 116.778C191.864 117.011 191.77 117.268 191.712 117.548H197.906ZM201.294 119V108.064H198.897L200.121 106.577H202.799V119H201.294ZM209.804 114.853V113.348H214.266V114.853H209.804ZM226.548 119V115.623H219.934V114.416L226.741 106.577H228.053V114.206H229.768V115.623H228.053V119H226.548ZM221.894 114.206H226.548V108.852L221.894 114.206ZM235.878 119.175C234.583 119.175 233.527 118.743 232.711 117.88C231.894 117.005 231.486 115.88 231.486 114.503V111.039C231.486 109.662 231.894 108.543 232.711 107.679C233.539 106.805 234.594 106.367 235.878 106.367C237.161 106.367 238.216 106.805 239.045 107.679C239.873 108.554 240.287 109.674 240.287 111.039V114.503C240.287 115.88 239.873 117.005 239.045 117.88C238.216 118.743 237.161 119.175 235.878 119.175ZM235.878 117.705C236.741 117.705 237.441 117.419 237.977 116.848C238.514 116.276 238.782 115.495 238.782 114.503V111.039C238.782 110.047 238.514 109.266 237.977 108.694C237.441 108.123 236.741 107.837 235.878 107.837C235.026 107.837 234.332 108.123 233.795 108.694C233.259 109.266 232.991 110.047 232.991 111.039V114.503C232.991 115.495 233.259 116.276 233.795 116.848C234.332 117.419 235.026 117.705 235.878 117.705ZM251.105 119H249.477L257.351 106.577H258.978L251.105 119ZM258.891 119.14C257.934 119.14 257.118 118.802 256.441 118.125C255.776 117.449 255.444 116.638 255.444 115.693C255.444 114.737 255.776 113.926 256.441 113.261C257.118 112.584 257.934 112.246 258.891 112.246C259.836 112.246 260.646 112.584 261.323 113.261C261.999 113.926 262.338 114.737 262.338 115.693C262.338 116.638 261.999 117.449 261.323 118.125C260.646 118.802 259.836 119.14 258.891 119.14ZM258.891 117.775C259.451 117.775 259.935 117.571 260.343 117.163C260.751 116.743 260.955 116.253 260.955 115.693C260.955 115.133 260.751 114.649 260.343 114.241C259.935 113.821 259.451 113.611 258.891 113.611C258.308 113.611 257.818 113.815 257.421 114.223C257.024 114.632 256.826 115.121 256.826 115.693C256.826 116.265 257.024 116.755 257.421 117.163C257.818 117.571 258.308 117.775 258.891 117.775ZM249.565 113.331C248.608 113.331 247.792 112.993 247.115 112.316C246.45 111.64 246.118 110.829 246.118 109.884C246.118 108.927 246.45 108.117 247.115 107.452C247.792 106.775 248.608 106.437 249.565 106.437C250.51 106.437 251.32 106.775 251.997 107.452C252.674 108.117 253.012 108.927 253.012 109.884C253.012 110.829 252.674 111.64 251.997 112.316C251.32 112.993 250.51 113.331 249.565 113.331ZM249.565 111.966C250.125 111.966 250.609 111.762 251.017 111.354C251.425 110.934 251.63 110.444 251.63 109.884C251.63 109.324 251.425 108.84 251.017 108.432C250.609 108.012 250.125 107.802 249.565 107.802C248.982 107.802 248.492 108.006 248.095 108.414C247.699 108.823 247.5 109.312 247.5 109.884C247.5 110.456 247.699 110.945 248.095 111.354C248.492 111.762 248.982 111.966 249.565 111.966Z" fill="#0E4772"/>
<circle cx="311" cy="112" r="10" fill="#FCF439"/>
<path d="M335.911 119V115.623H329.297V114.416L336.104 106.577H337.416V114.206H339.131V115.623H337.416V119H335.911ZM331.257 114.206H335.911V108.852L331.257 114.206ZM342.114 119V108.064H339.717L340.942 106.577H343.619V119H342.114ZM350.625 114.853V113.348H355.086V114.853H350.625ZM368.296 117.985C367.503 118.778 366.505 119.175 365.304 119.175C364.102 119.175 363.099 118.778 362.294 117.985C361.49 117.192 361.087 116.224 361.087 115.081C361.087 114.474 361.204 113.932 361.437 113.453C361.682 112.963 362.032 112.45 362.487 111.914L367.019 106.577H368.926L365.129 111.074C365.339 111.05 365.502 111.039 365.619 111.039C366.657 111.039 367.561 111.435 368.331 112.229C369.112 113.022 369.503 113.961 369.503 115.046C369.503 116.2 369.101 117.18 368.296 117.985ZM365.304 117.723C366.05 117.723 366.68 117.46 367.194 116.935C367.707 116.41 367.963 115.781 367.963 115.046C367.963 114.311 367.707 113.681 367.194 113.156C366.68 112.631 366.05 112.369 365.304 112.369C364.546 112.369 363.91 112.631 363.397 113.156C362.883 113.669 362.627 114.299 362.627 115.046C362.627 115.792 362.883 116.428 363.397 116.953C363.91 117.466 364.546 117.723 365.304 117.723ZM375.673 119.175C374.378 119.175 373.322 118.743 372.506 117.88C371.689 117.005 371.281 115.88 371.281 114.503V111.039C371.281 109.662 371.689 108.543 372.506 107.679C373.334 106.805 374.389 106.367 375.673 106.367C376.956 106.367 378.011 106.805 378.84 107.679C379.668 108.554 380.082 109.674 380.082 111.039V114.503C380.082 115.88 379.668 117.005 378.84 117.88C378.011 118.743 376.956 119.175 375.673 119.175ZM375.673 117.705C376.536 117.705 377.236 117.419 377.772 116.848C378.309 116.276 378.577 115.495 378.577 114.503V111.039C378.577 110.047 378.309 109.266 377.772 108.694C377.236 108.123 376.536 107.837 375.673 107.837C374.821 107.837 374.127 108.123 373.59 108.694C373.054 109.266 372.786 110.047 372.786 111.039V114.503C372.786 115.495 373.054 116.276 373.59 116.848C374.127 117.419 374.821 117.705 375.673 117.705ZM390.9 119H389.272L397.146 106.577H398.773L390.9 119ZM398.686 119.14C397.729 119.14 396.913 118.802 396.236 118.125C395.571 117.449 395.239 116.638 395.239 115.693C395.239 114.737 395.571 113.926 396.236 113.261C396.913 112.584 397.729 112.246 398.686 112.246C399.631 112.246 400.441 112.584 401.118 113.261C401.794 113.926 402.133 114.737 402.133 115.693C402.133 116.638 401.794 117.449 401.118 118.125C400.441 118.802 399.631 119.14 398.686 119.14ZM398.686 117.775C399.246 117.775 399.73 117.571 400.138 117.163C400.546 116.743 400.75 116.253 400.75 115.693C400.75 115.133 400.546 114.649 400.138 114.241C399.73 113.821 399.246 113.611 398.686 113.611C398.103 113.611 397.613 113.815 397.216 114.223C396.819 114.632 396.621 115.121 396.621 115.693C396.621 116.265 396.819 116.755 397.216 117.163C397.613 117.571 398.103 117.775 398.686 117.775ZM389.36 113.331C388.403 113.331 387.587 112.993 386.91 112.316C386.245 111.64 385.913 110.829 385.913 109.884C385.913 108.927 386.245 108.117 386.91 107.452C387.587 106.775 388.403 106.437 389.36 106.437C390.305 106.437 391.115 106.775 391.792 107.452C392.468 108.117 392.807 108.927 392.807 109.884C392.807 110.829 392.468 111.64 391.792 112.316C391.115 112.993 390.305 113.331 389.36 113.331ZM389.36 111.966C389.92 111.966 390.404 111.762 390.812 111.354C391.22 110.934 391.424 110.444 391.424 109.884C391.424 109.324 391.22 108.84 390.812 108.432C390.404 108.012 389.92 107.802 389.36 107.802C388.777 107.802 388.287 108.006 387.89 108.414C387.493 108.823 387.295 109.312 387.295 109.884C387.295 110.456 387.493 110.945 387.89 111.354C388.287 111.762 388.777 111.966 389.36 111.966Z" fill="#0E4772"/>
<circle cx="170" cy="165" r="10" fill="#7ACB59"/>
<path d="M193.004 172.175C191.791 172.175 190.788 171.808 189.995 171.073C189.213 170.338 188.822 169.405 188.822 168.273C188.822 166.757 189.476 165.678 190.782 165.036C189.931 164.43 189.505 163.607 189.505 162.569C189.505 161.636 189.831 160.872 190.485 160.277C191.149 159.67 191.989 159.367 193.004 159.367C194.031 159.367 194.865 159.67 195.506 160.277C196.159 160.872 196.486 161.636 196.486 162.569C196.486 163.619 196.066 164.441 195.226 165.036C196.521 165.678 197.168 166.757 197.168 168.273C197.168 169.405 196.778 170.338 195.996 171.073C195.226 171.808 194.229 172.175 193.004 172.175ZM193.004 170.74C193.821 170.74 194.462 170.507 194.929 170.04C195.407 169.574 195.646 168.985 195.646 168.273C195.646 167.55 195.407 166.955 194.929 166.488C194.462 166.022 193.821 165.789 193.004 165.789C192.211 165.789 191.569 166.028 191.079 166.506C190.59 166.972 190.345 167.562 190.345 168.273C190.345 168.973 190.59 169.562 191.079 170.04C191.569 170.507 192.211 170.74 193.004 170.74ZM193.004 164.441C193.611 164.441 194.095 164.266 194.456 163.916C194.818 163.555 194.999 163.117 194.999 162.604C194.999 162.067 194.818 161.63 194.456 161.292C194.106 160.953 193.622 160.784 193.004 160.784C192.409 160.784 191.925 160.959 191.552 161.309C191.179 161.648 190.992 162.079 190.992 162.604C190.992 163.106 191.179 163.537 191.552 163.899C191.925 164.26 192.409 164.441 193.004 164.441ZM200.533 172V161.064H198.136L199.361 159.577H202.038V172H200.533ZM209.044 167.853V166.348H213.505V167.853H209.044ZM221.413 172V161.064H219.016L220.241 159.577H222.918V172H221.413ZM230.008 172.175C228.713 172.175 227.657 171.743 226.841 170.88C226.024 170.005 225.616 168.88 225.616 167.503V164.039C225.616 162.662 226.024 161.543 226.841 160.679C227.669 159.805 228.725 159.367 230.008 159.367C231.291 159.367 232.347 159.805 233.175 160.679C234.003 161.554 234.417 162.674 234.417 164.039V167.503C234.417 168.88 234.003 170.005 233.175 170.88C232.347 171.743 231.291 172.175 230.008 172.175ZM230.008 170.705C230.871 170.705 231.571 170.419 232.107 169.848C232.644 169.276 232.912 168.495 232.912 167.503V164.039C232.912 163.047 232.644 162.266 232.107 161.694C231.571 161.123 230.871 160.837 230.008 160.837C229.156 160.837 228.462 161.123 227.926 161.694C227.389 162.266 227.121 163.047 227.121 164.039V167.503C227.121 168.495 227.389 169.276 227.926 169.848C228.462 170.419 229.156 170.705 230.008 170.705ZM240.909 172.175C239.615 172.175 238.559 171.743 237.742 170.88C236.926 170.005 236.518 168.88 236.518 167.503V164.039C236.518 162.662 236.926 161.543 237.742 160.679C238.571 159.805 239.626 159.367 240.909 159.367C242.192 159.367 243.248 159.805 244.076 160.679C244.905 161.554 245.319 162.674 245.319 164.039V167.503C245.319 168.88 244.905 170.005 244.076 170.88C243.248 171.743 242.192 172.175 240.909 172.175ZM240.909 170.705C241.773 170.705 242.472 170.419 243.009 169.848C243.546 169.276 243.814 168.495 243.814 167.503V164.039C243.814 163.047 243.546 162.266 243.009 161.694C242.472 161.123 241.773 160.837 240.909 160.837C240.058 160.837 239.364 161.123 238.827 161.694C238.291 162.266 238.022 163.047 238.022 164.039V167.503C238.022 168.495 238.291 169.276 238.827 169.848C239.364 170.419 240.058 170.705 240.909 170.705ZM256.136 172H254.509L262.383 159.577H264.01L256.136 172ZM263.923 172.14C262.966 172.14 262.15 171.802 261.473 171.125C260.808 170.449 260.476 169.638 260.476 168.693C260.476 167.737 260.808 166.926 261.473 166.261C262.15 165.584 262.966 165.246 263.923 165.246C264.867 165.246 265.678 165.584 266.355 166.261C267.031 166.926 267.369 167.737 267.369 168.693C267.369 169.638 267.031 170.449 266.355 171.125C265.678 171.802 264.867 172.14 263.923 172.14ZM263.923 170.775C264.482 170.775 264.967 170.571 265.375 170.163C265.783 169.743 265.987 169.253 265.987 168.693C265.987 168.133 265.783 167.649 265.375 167.241C264.967 166.821 264.482 166.611 263.923 166.611C263.339 166.611 262.849 166.815 262.453 167.223C262.056 167.632 261.858 168.121 261.858 168.693C261.858 169.265 262.056 169.755 262.453 170.163C262.849 170.571 263.339 170.775 263.923 170.775ZM254.597 166.331C253.64 166.331 252.824 165.993 252.147 165.316C251.482 164.64 251.15 163.829 251.15 162.884C251.15 161.927 251.482 161.117 252.147 160.452C252.824 159.775 253.64 159.437 254.597 159.437C255.541 159.437 256.352 159.775 257.029 160.452C257.705 161.117 258.044 161.927 258.044 162.884C258.044 163.829 257.705 164.64 257.029 165.316C256.352 165.993 255.541 166.331 254.597 166.331ZM254.597 164.966C255.156 164.966 255.641 164.762 256.049 164.354C256.457 163.934 256.661 163.444 256.661 162.884C256.661 162.324 256.457 161.84 256.049 161.432C255.641 161.012 255.156 160.802 254.597 160.802C254.013 160.802 253.523 161.006 253.127 161.414C252.73 161.823 252.532 162.312 252.532 162.884C252.532 163.456 252.73 163.945 253.127 164.354C253.523 164.762 254.013 164.966 254.597 164.966Z" fill="#0E4772"/>
</svg>
