<?xml version="1.0" encoding="utf-8"?>
<!-- Generator: Adobe Illustrator 25.2.1, SVG Export Plug-In . SVG Version: 6.00 Build 0)  -->
<svg version="1.1" id="Layer_1" xmlns="http://www.w3.org/2000/svg" xmlns:xlink="http://www.w3.org/1999/xlink" x="0px" y="0px"
	 viewBox="0 0 42.7 40.9" style="enable-background:new 0 0 42.7 40.9;" xml:space="preserve">
<style type="text/css">
	.st0{fill:#7FC45B;}
	.st1{opacity:0.6;fill:#FFFFFF;}
	.st2{opacity:0.8;fill:#FFFFFF;}
</style>
<g>
	<g id="Layer_2_1_">
		<g id="Layer_1-2">
			<path class="st0" d="M16.8,0C7.5,0,0,7.5,0,16.8C0,26,7.5,33.5,16.8,33.5S33.5,26,33.5,16.8C33.5,7.5,26,0,16.8,0z M23.5,17.5
				c-3.2,2-6.2,4-9.4,6c-0.2,0.1-0.6,0.3-0.9,0.1c-0.3-0.2-0.4-0.5-0.3-0.9V10.8c-0.1-0.3,0.1-0.7,0.3-0.9c0.3-0.2,0.5-0.1,0.9,0.1
				c3.2,2,6.2,4,9.4,6C24.1,16.5,24.1,17.1,23.5,17.5z"/>
			<path class="st1" d="M22.9,21L30,40.9l2.3-10.4L22.9,21z"/>
			<path class="st2" d="M22.9,21l19.8,7.3l-10.4,2.2L22.9,21z"/>
		</g>
	</g>
</g>
</svg>
