<?xml version="1.0" encoding="utf-8"?>
<!-- Generator: Adobe Illustrator 25.2.1, SVG Export Plug-In . SVG Version: 6.00 Build 0)  -->
<svg version="1.1" id="Layer_1" xmlns="http://www.w3.org/2000/svg" xmlns:xlink="http://www.w3.org/1999/xlink" x="0px" y="0px"
	 viewBox="0 0 55 55" style="enable-background:new 0 0 55 55;" xml:space="preserve">
<style type="text/css">
	.st0{fill:#FFFFFF;}
	.st1{fill:#79CA58;}
</style>
<path class="st0" d="M27.5,1L27.5,1C42.1,1,54,12.9,54,27.5l0,0C54,42.1,42.1,54,27.5,54l0,0C12.9,54,1,42.1,1,27.5l0,0
	C1,12.9,12.9,1,27.5,1z"/>
<path class="st1" d="M15.8,40.5c-0.8-0.2-0.9-0.9-0.7-1.5c3.8-7.9,7.6-15.8,11.3-23.7c0.2-0.4,0.5-0.8,1-0.8c0.5,0,0.8,0.3,1,0.8
	c3.8,7.9,7.6,15.8,11.4,23.7c0.3,0.6,0.2,1-0.2,1.3c-0.1,0.1-0.3,0.2-0.4,0.2h-0.4c-0.2-0.1-0.4-0.2-0.6-0.3
	c-3.4-2.4-6.7-4.8-10.1-7.3c-0.2-0.2-0.5-0.3-0.7-0.5c-0.1,0.1-0.2,0.1-0.2,0.2c-3.5,2.5-6.9,5-10.4,7.5c-0.2,0.2-0.5,0.3-0.7,0.4
	L15.8,40.5z"/>
</svg>
