<svg width="27" height="26" viewBox="0 0 27 26" fill="none" xmlns="http://www.w3.org/2000/svg">
<path d="M13.0046 25.9618C11.5039 25.9618 10.005 26.0235 8.50434 25.9481C5.35562 25.7904 2.95165 24.3077 1.28645 21.6518C0.481981 20.3907 0.0494811 18.9284 0.0386121 17.4326C0.0197575 14.4493 -0.0470915 11.4634 0.0566089 8.48353C0.163737 5.32709 1.7021 2.92484 4.38374 1.26649C5.64201 0.474136 7.09626 0.0482479 8.58318 0.0366582C11.5622 0.0169466 14.5438 -0.0430452 17.5194 0.052942C20.7101 0.154928 23.1338 1.69586 24.8042 4.39893C25.587 5.64729 26.0069 7.0889 26.0169 8.56238C26.0366 11.5345 26.0957 14.5093 26.0014 17.4755C25.9003 20.6328 24.3731 23.0462 21.7017 24.7105C20.2585 25.6112 18.6576 25.9892 16.9589 25.9772C15.6408 25.9686 14.3227 25.9772 13.0046 25.9772V25.9618ZM9.43164 14.3679V14.3902C10.0316 14.3902 10.6315 14.409 11.2314 14.3825C11.5691 14.3679 11.6445 14.4904 11.6393 14.8041C11.6231 15.926 11.6325 17.0487 11.6342 18.1714C11.6328 18.3432 11.6422 18.515 11.6625 18.6856C11.6892 18.8711 11.7536 19.0492 11.8519 19.2088C11.9501 19.3684 12.08 19.5063 12.2335 19.6137C12.3871 19.7212 12.5611 19.796 12.7447 19.8336C12.9283 19.8712 13.1177 19.8708 13.3011 19.8323C14.0167 19.6737 14.4153 19.151 14.4204 18.3282C14.429 17.1284 14.429 15.9311 14.4204 14.7364C14.4204 14.4724 14.5018 14.385 14.7684 14.3876C15.9142 14.3996 17.0609 14.3936 18.2068 14.3876C18.3889 14.3901 18.571 14.38 18.7518 14.3576C18.9344 14.3283 19.1092 14.2623 19.2657 14.1637C19.4222 14.0651 19.5571 13.9358 19.6623 13.7837C19.7675 13.6315 19.8408 13.4597 19.8779 13.2785C19.915 13.0973 19.915 12.9105 19.878 12.7292C19.7211 12.0136 19.1923 11.6108 18.3764 11.6048C17.2297 11.5971 16.0839 11.6048 14.9372 11.6048C14.423 11.6048 14.423 11.6048 14.423 11.1095C14.423 10.0193 14.423 8.92833 14.423 7.83819C14.4245 7.6664 14.4156 7.49468 14.3964 7.32397C14.3712 7.13575 14.3072 6.95481 14.2085 6.79261C14.1097 6.63042 13.9783 6.4905 13.8227 6.38173C13.667 6.27296 13.4905 6.19771 13.3042 6.16074C13.1179 6.12378 12.926 6.1259 12.7406 6.16698C12.049 6.32553 11.6471 6.83889 11.6385 7.61879C11.6265 8.73293 11.6385 9.84278 11.6325 10.9543C11.6325 11.6965 11.7285 11.5971 10.9854 11.6014C9.88244 11.6065 8.77859 11.5971 7.67559 11.6057C6.95397 11.6108 6.47575 11.9168 6.2495 12.491C5.91697 13.3377 6.46975 14.2908 7.37734 14.355C8.05868 14.4047 8.74688 14.3679 9.43164 14.3679Z" fill="#EBF1FA"/>
<path d="M9.42936 14.368C8.74374 14.368 8.05812 14.4074 7.37249 14.3586C6.4649 14.2934 5.91555 13.3413 6.24465 12.4945C6.4709 11.9203 6.94912 11.6144 7.67074 11.6092C8.77374 11.6007 9.87759 11.6092 10.9806 11.6049C11.7236 11.6007 11.6242 11.7001 11.6276 10.9579C11.6336 9.84376 11.6216 8.7339 11.6336 7.62234C11.6422 6.84244 12.0442 6.32909 12.7358 6.17054C12.9213 6.12919 13.1134 6.12686 13.2999 6.1637C13.4863 6.20054 13.6631 6.27574 13.819 6.38454C13.9748 6.49333 14.1063 6.63334 14.2052 6.79567C14.3041 6.95801 14.3681 7.13912 14.3933 7.32752C14.4125 7.49824 14.4214 7.66996 14.4198 7.84174C14.4198 8.93188 14.4198 10.0229 14.4198 11.113C14.4198 11.6084 14.4198 11.6084 14.9341 11.6084C16.0808 11.6084 17.2266 11.6032 18.3733 11.6084C19.1926 11.6144 19.718 12.0172 19.8748 12.7328C19.9118 12.914 19.9118 13.1008 19.8748 13.2821C19.8377 13.4633 19.7643 13.6351 19.6591 13.7872C19.5539 13.9393 19.419 14.0686 19.2626 14.1672C19.1061 14.2659 18.9313 14.3318 18.7487 14.3612C18.5679 14.3836 18.3858 14.3936 18.2036 14.3912C17.0578 14.3912 15.9111 14.3997 14.7652 14.3912C14.4987 14.3912 14.4147 14.4769 14.4173 14.74C14.4281 15.9398 14.4281 17.1371 14.4173 18.3318C14.4121 19.1545 14.0136 19.6773 13.298 19.8359C13.1145 19.8743 12.9252 19.8748 12.7416 19.8372C12.5579 19.7996 12.384 19.7247 12.2304 19.6173C12.0768 19.5098 11.9469 19.372 11.8487 19.2124C11.7505 19.0527 11.6861 18.8747 11.6594 18.6891C11.6391 18.5185 11.6297 18.3468 11.6311 18.1749C11.6311 17.0522 11.6199 15.9295 11.6362 14.8077C11.6414 14.494 11.5659 14.3714 11.2283 14.386C10.6283 14.4126 10.0284 14.3937 9.42851 14.3937L9.42936 14.368Z" fill="#EBF1FA"/>
<path d="M15 6L8 13L15 20V6Z" fill="#19355F"/>
</svg>
