<?xml version="1.0" encoding="utf-8"?>
<!-- Generator: Adobe Illustrator 25.2.1, SVG Export Plug-In . SVG Version: 6.00 Build 0)  -->
<svg version="1.1" id="Layer_1" xmlns="http://www.w3.org/2000/svg" xmlns:xlink="http://www.w3.org/1999/xlink" x="0px" y="0px"
	 viewBox="0 0 287.1 206.6" style="enable-background:new 0 0 287.1 206.6;" xml:space="preserve">
<style type="text/css">
	.st0{fill:#7EC35C;}
</style>
<g>
	<path class="st0" d="M77.6,161.1l-8.7,8.7c3.7,1.7,7.6,3.3,11.5,4.8l9-9C85.4,164.3,81.4,162.8,77.6,161.1z M286,100.9
		c-11.7-25.5-33.3-46.5-60.5-60.6l-8.5,8.6c25.5,12.5,46,31.4,57.4,54.4c-20.9,42.5-73,70.9-130.6,71h-0.3
		c-15.9,0-31.3-2.1-45.8-6.2l-9.3,9.2c17.3,5.5,35.9,8.4,55.1,8.4h0.3c63.1-0.1,120.2-32.3,142.2-80.1l1.1-2.4L286,100.9z
		 M143.6,20.7h-0.3C80.2,20.9,23.1,53.1,1.1,100.9L0,103.3l1.1,2.4c11.7,25.5,33.3,46.5,60.5,60.6l8.5-8.5
		c-25.5-12.5-46-31.4-57.4-54.5c20.9-42.5,73-70.9,130.6-71h0.3c15.9,0,31.3,2.1,45.9,6.2l9.2-9.2C181.4,23.7,162.7,20.7,143.6,20.7
		z M206.7,32l-9,9c4,1.3,8,2.8,11.8,4.5l8.7-8.7C214.5,35,210.6,33.4,206.7,32z"/>
	<path class="st0" d="M182,56.7l-8.2,8.2c3,2.4,5.7,5.1,8.1,8.1l8.2-8.2C187.7,61.8,185,59.1,182,56.7z M105.1,133.6l-8.2,8.2
		c2.4,3,5.2,5.7,8.1,8.1l8.2-8.2C110.2,139.4,107.5,136.6,105.1,133.6z M194.7,71.1l-8.4,8.4c3.9,7,6.2,15.2,6.2,23.8
		c0,27-22,49-49,49c-8.6,0-16.8-2.2-23.8-6.2l-8.4,8.4c9.3,5.9,20.4,9.3,32.2,9.3c33.4,0,60.5-27.1,60.5-60.5
		C204,91.5,200.6,80.4,194.7,71.1z M143.6,42.8c-33.4,0-60.5,27.1-60.5,60.5c0,11.8,3.4,22.9,9.3,32.2l8.4-8.4
		c-3.9-7-6.2-15.2-6.2-23.8c0-27,22-49,49-49c8.6,0,16.8,2.2,23.8,6.2l8.4-8.4C166.4,46.2,155.4,42.8,143.6,42.8z M182,56.7
		l-8.2,8.2c3,2.4,5.7,5.1,8.1,8.1l8.2-8.2C187.7,61.8,185,59.1,182,56.7z"/>
	<path class="st0" d="M245.1,9.8l-26.9,26.9l-8.7,8.7l-19.4,19.4L182,73l-68.8,68.8l-8.2,8.2l-15.7,15.7l-9,9l-30.3,30.3
		c-1.1,1.1-2.6,1.7-4.1,1.7c-1.5,0-3-0.6-4.1-1.7c-2.3-2.2-2.3-5.9,0-8.1l26.9-26.9l8.7-8.7l27.5-27.5l68.8-68.8L237,1.7
		c1.1-1.1,2.6-1.7,4.1-1.7c1.5,0,3,0.6,4.1,1.7C247.4,3.9,247.4,7.6,245.1,9.8z"/>
</g>
</svg>
