<?xml version="1.0" encoding="utf-8"?>
<!-- Generator: Adobe Illustrator 25.2.1, SVG Export Plug-In . SVG Version: 6.00 Build 0)  -->
<svg version="1.1" id="Layer_1" xmlns="http://www.w3.org/2000/svg" xmlns:xlink="http://www.w3.org/1999/xlink" x="0px" y="0px"
	 viewBox="0 0 287.1 165.1" style="enable-background:new 0 0 287.1 165.1;" xml:space="preserve">
<style type="text/css">
	.st0{fill:#7EC35C;}
</style>
<g>
	<path class="st0" d="M286,80.1C264,32.2,206.8,0,143.6,0h-0.3C80.2,0.1,23.1,32.3,1.1,80.1L0,82.5L1.1,85
		c22,47.9,79.2,80.1,142.5,80.1h0.3C206.9,165,264,132.8,286,85l1.1-2.4L286,80.1z M143.8,153.6h-0.3c-57.7,0-109.9-28.4-130.8-71
		c20.9-42.5,73-70.9,130.6-71h0.3c57.7,0,109.9,28.4,130.8,71C253.5,125,201.4,153.5,143.8,153.6z"/>
	<path class="st0" d="M189.9,47.8c0,0-0.1-0.1-0.1-0.1L178.4,42c-0.7-0.4-1.3-1-1.7-1.7l-3.9-7.8c2.3,1.3,4.5,2.8,6.5,4.5
		c1.2,0.9,2.3,1.9,3.4,2.9C185.4,42.3,187.8,45,189.9,47.8z"/>
	<path class="st0" d="M196.4,58.9c-0.6-1.3-1.2-2.6-1.9-3.8c-0.9-1.6-1.8-3.1-2.8-4.6c0.2,1.5-0.4,3.2-2,4l-11.4,5.7
		c-0.7,0.4-1.3,0.9-1.7,1.7l-5.7,11.4c-0.7,1.4-2,2.1-3.4,2.1c-1.3,0-2.7-0.7-3.4-2.1l-5.7-11.4c-0.4-0.7-1-1.3-1.7-1.7l-11.4-5.7
		c-2.8-1.4-2.8-5.3,0-6.7L157,42c0.7-0.4,1.3-1,1.7-1.7l5.7-11.3c0.1-0.2,0.2-0.3,0.2-0.4c-1.2-0.5-2.4-0.9-3.7-1.3v0
		c-1.2-0.4-2.5-0.7-3.8-1c-4.4-1.1-8.9-1.6-13.6-1.6c-32,0-57.9,25.9-57.9,57.9s26,57.9,57.9,57.9s57.9-26,57.9-57.9
		C201.5,74.1,199.7,66.1,196.4,58.9z M143.6,105c-12.4,0-22.4-10-22.4-22.4c0-11.4,8.5-20.8,19.4-22.2c0.5,0.4,1.1,0.7,1.6,1
		l10.2,5.1l5.1,10.2c1.7,3.4,4.9,5.6,8.5,6.2C165.9,95,155.9,105,143.6,105z"/>
	<path class="st0" d="M193.2,40.8L183,35.7l-5.1-10.2c-2-3.9-5.9-6.3-10.2-6.3c-4.4,0-8.3,2.4-10.2,6.3l-0.3,0.7l-4.8,9.5l-10.2,5.1
		c-3.9,1.9-6.3,5.9-6.3,10.2c0,3.7,1.8,7.1,4.7,9.2c0.5,0.4,1.1,0.7,1.6,1l10.2,5.1l5.1,10.2c1.7,3.4,4.9,5.6,8.5,6.2
		c0.6,0.1,1.2,0.1,1.7,0.1c4.4,0,8.3-2.4,10.2-6.3l5.1-10.2l10.2-5.1c1.2-0.6,2.3-1.4,3.2-2.4c2-2.1,3.1-4.9,3.1-7.8
		C199.5,46.7,197.1,42.8,193.2,40.8z M189.8,54.4l-11.4,5.7c-0.7,0.4-1.3,0.9-1.7,1.7l-5.7,11.4c-0.7,1.4-2,2.1-3.4,2.1
		c-1.3,0-2.7-0.7-3.4-2.1l-5.7-11.4c-0.4-0.7-1-1.3-1.7-1.7l-11.4-5.7c-2.8-1.4-2.8-5.3,0-6.7L157,42c0.7-0.4,1.3-1,1.7-1.7
		l5.7-11.3c0.1-0.2,0.2-0.3,0.2-0.4c0.7-1.1,1.9-1.7,3.1-1.7c1.3,0,2.7,0.7,3.4,2.1l1.8,3.6v0l3.9,7.8c0.4,0.7,1,1.3,1.7,1.7
		l11.4,5.7c0.1,0,0.1,0.1,0.1,0.1c1.1,0.6,1.7,1.6,1.9,2.7C192.1,52,191.4,53.6,189.8,54.4z"/>
</g>
</svg>
