<svg xmlns="http://www.w3.org/2000/svg" viewBox="0 0 988.73 168.78"><defs><style>.cls-1{fill:#fff;}.cls-2{fill:#7fc45b;}.cls-3{fill:#5b8c3e;}</style></defs><g id="Layer_2" data-name="Layer 2"><g id="OBJECTS"><path class="cls-1" d="M245.17,45.31h54V61.5h-54q-5.4,0-5.4,5.4v5.4q0,5.4,5.4,5.4H256V93.9h-10.8q-27,0-27-21.6V66.9Q218.18,45.32,245.17,45.31Zm27,75.58h-54V104.7h54q5.4,0,5.4-5.4t-5.4-5.4h-10.8V77.7h10.8q27,0,27,21.6T272.17,120.89Z"/><path class="cls-1" d="M334.9,45.31h54V61.5h-54q-5.4,0-5.4,5.4v5.4q0,5.4,5.4,5.4h10.8V93.9H334.9q-27,0-27-21.6V66.9Q307.91,45.32,334.9,45.31Zm27,75.58h-54V104.7h54q5.4,0,5.4-5.4t-5.4-5.4H351.1V77.7h10.8q27,0,27,21.6T361.9,120.89Z"/><path class="cls-2" d="M475.28,61.5H399.69l-10.8-16.19h86.39Zm-48.59,5.4h21.59v54H426.69Z"/><path class="cls-2" d="M540.07,61.5h-54l-10.8-16.19h64.79q27,0,27,21.59v5.4q0,17.34-17.38,20.73l17.38,27.86h-27l-27-43.19h27q5.4,0,5.4-5.4V66.9Q545.47,61.5,540.07,61.5Zm-32.4,59.39H486.08v-54h21.59Z"/><path class="cls-2" d="M611.39,86.77l-17.33,34.12H570.84L600.1,64.42Zm-8-28.72,11.17-21.54,43.74,84.38H635.09Z"/><path class="cls-2" d="M681,99.3q0,5.4,5.4,5.4v16.19q-27,0-27-21.59V66.9q0-21.59,27-21.59H708V61.5h-21.6q-5.4,0-5.4,5.4Zm32.4,21.59h-21.6V104.7h21.6q5.4,0,5.4-5.4V88.5h21.59V99.3Q740.37,120.89,713.38,120.89Zm5.4-54q0-5.4-5.4-5.4V45.31q27,0,27,21.59V77.7H718.78Z"/><path class="cls-2" d="M751.17,45.31h21.6v44l1.35-1.73,14,17.87L776,120.89H751.17ZM805.7,83.1l29.69,37.79H807.32L777.63,83.1l29.69-37.79h28.07Z"/><path class="cls-1" d="M843,104.7h21.6v16.19H843Z"/><path class="cls-1" d="M875.35,45.31h21.59v75.58H875.35Z"/><path class="cls-1" d="M929.34,99.3q0,5.4,5.4,5.4v16.19q-27,0-27-21.59V66.9q0-21.59,27-21.59h21.59V61.5H934.74q-5.4,0-5.4,5.4Zm37.79-32.4q0-5.4-5.4-5.4V45.31q27,0,27,21.59V99.3q0,21.58-27,21.59H940.14V104.7h21.59q5.4,0,5.4-5.4Z"/><path class="cls-2" d="M117.06,168.78H51.72a2.74,2.74,0,0,0-.81-.32,8.49,8.49,0,0,1-5.84-9.08c.49-4.22,3.57-7,7.79-7.46a13.77,13.77,0,0,0,3.73-.81c6.48-3.24,9.24-9.08,10.7-16.05H14.92C6.32,135.06,0,129.06,0,121V14.11A13.36,13.36,0,0,1,1.46,7.94C4.05,2.43,8.76,0,14.75,0h140.9c3.89.32,7.46,1.78,9.73,5,1.46,2.1,2.27,4.54,3.4,6.81V123.06c-.81,3.08-1.94,6-4.37,8.11a15.15,15.15,0,0,1-10.87,4.05H101c1.3,3.08,2.11,6,3.57,8.6,2.43,4.37,5.84,7.94,11.51,8.26a8.35,8.35,0,0,1,7.46,10.7A9.57,9.57,0,0,1,117.06,168.78Zm46.05-62.09V14.92c0-6-3.57-9.41-9.57-9.41H15.08c-6.16,0-9.57,3.41-9.57,9.57v91.61Zm-157.27,6V122.9a4.55,4.55,0,0,0,.65,1.95c1.78,3.24,4.7,4.53,8.43,4.53H155.49c3.4-.16,6.81-2.75,7.3-6.16s.48-7,.64-10.53Zm97.44,39.07c0-.32,0-.32-.16-.32a29.56,29.56,0,0,1-7.3-15.57c0-.32-.81-.81-1.29-.81H74.1c-.81,0-1.3.16-1.46,1.13A28.19,28.19,0,0,1,66,150.63a6.49,6.49,0,0,0-.81,1.13ZM84.47,157.6H54.64a8,8,0,0,0-2,.16,2.71,2.71,0,0,0,0,5.19,9.39,9.39,0,0,0,2.11.16H114a5.79,5.79,0,0,0,2.43-.33,3.18,3.18,0,0,0,1.63-2.43,4.35,4.35,0,0,0-1.46-2.43c-.49-.49-1.46-.32-2.27-.32Z"/><path class="cls-2" d="M84.47,123.71A2.88,2.88,0,0,1,81.55,121,3,3,0,0,1,84.47,118a2.84,2.84,0,0,1,2.76,2.75A2.88,2.88,0,0,1,84.47,123.71Z"/><path class="cls-2" d="M99.62,58.7a6.93,6.93,0,0,1-2,1.56Q85.31,67.33,73,74.41a11.44,11.44,0,0,1-3.83,1.69h-.92l-.14,0a3.16,3.16,0,0,1-2.37-1.75,6.14,6.14,0,0,1-.61-3q0-14.86,0-29.73a8.32,8.32,0,0,1,.28-2.16A3.31,3.31,0,0,1,69,36.82a6.5,6.5,0,0,1,2.69.93q13,7.47,26,15A8.58,8.58,0,0,1,99.4,54,3.29,3.29,0,0,1,99.62,58.7Z"/><path class="cls-1" d="M139.28,47.56a.21.21,0,0,1,0,.11.41.41,0,0,1-.07.28c-1.23,2.47-2.78,4.79-4.22,7.15s-3,4.92-4.46,7.4c-.6,1-.84.85-1.32,0s-1.12-2.06-1.69-3.08L120,63.71l-.68.4L102.15,74l-4,2.28h0L67.34,93.93c-2.56,1.47-5.05,3.1-8.06,3.57H57.34a1.08,1.08,0,0,0-.3-.11,6.67,6.67,0,0,1-5-3.69,13.06,13.06,0,0,1-1.28-6.27q0-31.33,0-62.67a17.84,17.84,0,0,1,.59-4.54,7,7,0,0,1,7.53-5.5,13.44,13.44,0,0,1,5.67,2c17.7,10.15,37.57,21.8,55.26,32l-9.67,5.55c-.62-.57-27.91-16.61-39.77-23.41a8.61,8.61,0,0,0-3.67-1.27,4.51,4.51,0,0,0-4.88,3.56A11.68,11.68,0,0,0,61.46,36q0,20.31,0,40.61a8.49,8.49,0,0,0,.83,4.06,4.33,4.33,0,0,0,3.25,2.39.77.77,0,0,1,.19.08H67a15.7,15.7,0,0,0,5.22-2.32L93.75,68.48l4.48-2.57,8-4.6,16.9-9.71c-.62-1.1-1.25-2.19-1.88-3.29-.29-.5-.5-.86.4-.86,4.22,0,8.43-.06,12.66-.15a35.86,35.86,0,0,1,4.52.1A.61.61,0,0,1,139.28,47.56Z"/><path class="cls-2" d="M100.51,56.46a3.57,3.57,0,0,1-.89,2.24,6.93,6.93,0,0,1-2,1.56L73,74.41a11.44,11.44,0,0,1-3.83,1.69h-.92l-.14,0a3.16,3.16,0,0,1-2.37-1.75,6.14,6.14,0,0,1-.61-3q0-7.42,0-14.86t0-14.87a8.32,8.32,0,0,1,.28-2.16A3.31,3.31,0,0,1,69,36.82a6.5,6.5,0,0,1,2.69.93q13,7.47,26,15A8.58,8.58,0,0,1,99.4,54,3.34,3.34,0,0,1,100.51,56.46Z"/><path class="cls-3" d="M100.51,56.46a3.57,3.57,0,0,1-.89,2.24,6.93,6.93,0,0,1-2,1.56L73,74.41a11.44,11.44,0,0,1-3.83,1.69h-.92l-.14,0a3.16,3.16,0,0,1-2.37-1.75,6.14,6.14,0,0,1-.61-3q0-7.42,0-14.86Z"/></g></g></svg>